# Blender 5.1.1
# www.blender.org
mtllib Untitled.mtl
o Cube
v 2.000000 1.000000 0.000000
v 1.000000 2.000000 0.000000
v 1.333333 1.333333 0.000000
v 0.080000 0.000000 -0.080000
v 0.080000 0.160000 0.000000
v 0.000000 0.160000 -0.080000
v 0.080000 3.840000 0.000000
v 0.080000 4.000000 -0.080000
v 0.000000 3.840000 -0.080000
v 0.000000 2.160000 -0.080000
v 0.000000 1.840000 -0.080000
v 0.080000 2.000000 0.000000
v 0.080000 0.160000 -2.000000
v 0.080000 0.000000 -1.920000
v 0.000000 0.160000 -1.920000
v 0.080000 4.000000 -1.920000
v 0.080000 3.840000 -2.000000
v 0.000000 3.840000 -1.920000
v 0.080000 2.000000 -2.000000
v 0.000000 1.840000 -1.920000
v 0.000000 2.160000 -1.920000
v 1.920000 0.000000 -0.080000
v 2.080000 0.000000 -0.080000
v 2.000000 0.160000 0.000000
v 3.920000 0.000000 -0.080000
v 4.000000 0.160000 -0.080000
v 3.920000 0.160000 0.000000
v 1.920000 4.000000 -0.080000
v 1.920000 3.840000 0.000000
v 2.000000 3.840000 -0.080000
v 3.920000 2.000000 -0.080000
v 3.920000 1.840000 0.000000
v 4.000000 1.840000 -0.080000
v 1.920000 0.000000 -1.920000
v 2.000000 0.160000 -2.000000
v 2.080000 0.000000 -1.920000
v 4.000000 0.160000 -1.920000
v 3.920000 0.000000 -1.920000
v 3.920000 0.160000 -2.000000
v 1.920000 4.000000 -1.920000
v 2.000000 3.840000 -1.920000
v 1.920000 3.840000 -2.000000
v 3.920000 2.000000 -1.920000
v 4.000000 1.840000 -1.920000
v 3.920000 1.840000 -2.000000
v 2.000000 2.160000 -1.920000
v 2.080000 2.000000 -1.920000
v 1.920000 1.840000 -2.000000
v 2.080000 2.000000 -0.080000
v 2.000000 2.160000 -0.080000
v 1.920000 1.840000 0.000000
v 1.166667 1.666667 0.000000
v 1.666667 1.166667 0.000000
v 0.040000 0.080000 -0.080000
v 0.080000 0.080000 -0.040000
v 0.040000 0.160000 -0.040000
v 0.040000 3.840000 -0.040000
v 0.080000 3.920000 -0.040000
v 0.040000 3.920000 -0.080000
v 0.040000 2.080000 -0.040000
v 0.000000 2.000000 -0.080000
v 0.040000 1.920000 -0.040000
v 0.040000 0.160000 -1.960000
v 0.080000 0.080000 -1.960000
v 0.040000 0.080000 -1.920000
v 0.040000 3.920000 -1.920000
v 0.080000 3.920000 -1.960000
v 0.040000 3.840000 -1.960000
v 0.040000 2.080000 -1.960000
v 0.040000 1.920000 -1.960000
v 0.000000 2.000000 -1.920000
v 1.960000 0.080000 -0.040000
v 2.000000 0.000000 -0.080000
v 2.040000 0.080000 -0.040000
v 3.920000 0.080000 -0.040000
v 3.960000 0.080000 -0.080000
v 3.960000 0.160000 -0.040000
v 1.960000 3.920000 -0.080000
v 1.920000 3.920000 -0.040000
v 1.960000 3.840000 -0.040000
v 3.960000 1.920000 -0.080000
v 3.920000 1.920000 -0.040000
v 3.960000 1.840000 -0.040000
v 2.000000 0.000000 -1.920000
v 1.960000 0.080000 -1.960000
v 2.040000 0.080000 -1.960000
v 3.960000 0.160000 -1.960000
v 3.960000 0.080000 -1.920000
v 3.920000 0.080000 -1.960000
v 1.920000 3.920000 -1.960000
v 1.960000 3.920000 -1.920000
v 1.960000 3.840000 -1.960000
v 3.920000 1.920000 -1.960000
v 3.960000 1.920000 -1.920000
v 3.960000 1.840000 -1.960000
v 1.960000 2.000000 -1.960000
v 2.040000 2.080000 -1.920000
v 2.000000 1.920000 -1.960000
v 2.000000 1.920000 -0.040000
v 2.040000 2.080000 -0.080000
v 1.960000 2.000000 -0.040000
v 0.000000 3.000000 -0.080000
v 0.080000 2.920000 0.000000
v 0.080000 4.000000 -1.000000
v 0.000000 3.840000 -1.000000
v 0.080000 2.920000 -2.000000
v 0.000000 3.000000 -1.920000
v 0.000000 2.160000 -1.000000
v 0.000000 1.840000 -1.000000
v 0.000000 1.000000 -1.920000
v 0.080000 1.080000 -2.000000
v 0.000000 0.160000 -1.000000
v 0.080000 0.000000 -1.000000
v 0.080000 1.080000 0.000000
v 0.000000 1.000000 -0.080000
v 1.000000 4.000000 -1.920000
v 1.000000 3.840000 -2.000000
v 2.000000 3.000000 -1.920000
v 1.920000 2.840000 -2.000000
v 1.040000 0.160000 -2.000000
v 1.000000 0.000000 -1.920000
v 2.000000 2.160000 -1.000000
v 2.080000 2.000000 -1.000000
v 2.000000 3.840000 -1.000000
v 1.920000 4.000000 -1.000000
v 1.920000 2.840000 0.000000
v 2.000000 3.000000 -0.080000
v 1.000000 3.840000 0.000000
v 1.000000 4.000000 -0.080000
v 1.000000 0.000000 -0.080000
v 1.040000 0.160000 0.000000
v 1.920000 0.000000 -1.000000
v 2.080000 0.000000 -1.000000
v 2.920000 1.840000 -2.000000
v 3.000000 2.000000 -1.920000
v 3.920000 1.000000 -2.000000
v 4.000000 1.000000 -1.920000
v 2.960000 0.160000 -2.000000
v 3.000000 0.000000 -1.920000
v 3.920000 0.000000 -1.000000
v 4.000000 0.160000 -1.000000
v 4.000000 1.840000 -1.000000
v 3.920000 2.000000 -1.000000
v 4.000000 1.000000 -0.080000
v 3.920000 1.000000 0.000000
v 3.000000 0.000000 -0.080000
v 2.960000 0.160000 0.000000
v 3.000000 2.000000 -0.080000
v 2.920000 1.840000 0.000000
v 0.540000 2.000000 0.000000
v 2.000000 0.580000 0.000000
v 1.460000 1.920000 0.000000
v 1.960000 1.000000 -2.000000
v 1.000000 1.920000 -2.000000
v 1.960000 1.420000 0.000000
v 0.040000 2.920000 -0.040000
v 0.040000 3.920000 -1.000000
v 0.040000 3.000000 -1.960000
v 0.000000 2.000000 -1.000000
v 0.040000 1.080000 -1.960000
v 0.040000 0.080000 -1.000000
v 0.040000 1.000000 -0.040000
v 1.000000 3.920000 -1.960000
v 1.960000 2.840000 -1.960000
v 1.000000 0.080000 -1.960000
v 2.040000 2.080000 -1.000000
v 1.960000 3.920000 -1.000000
v 1.960000 3.000000 -0.040000
v 1.000000 3.920000 -0.040000
v 1.040000 0.080000 -0.040000
v 2.000000 0.000000 -1.000000
v 3.000000 1.920000 -1.960000
v 3.960000 1.000000 -1.960000
v 2.960000 0.080000 -1.960000
v 3.960000 0.080000 -1.000000
v 3.960000 1.920000 -1.000000
v 3.960000 1.000000 -0.040000
v 3.000000 0.080000 -0.040000
v 2.920000 1.920000 -0.040000
v 1.000000 0.000000 -1.000000
v 0.000000 1.000000 -1.000000
v 0.706667 0.746667 0.000000
v 0.540000 1.080000 0.000000
v 1.666667 0.746667 0.000000
v 1.460000 2.920000 0.000000
v 0.540000 2.920000 0.000000
v 0.000000 3.000000 -1.000000
v 1.000000 4.000000 -1.000000
v 1.040000 1.080000 -2.000000
v 1.000000 2.920000 -2.000000
v 3.000000 0.000000 -1.000000
v 2.960000 0.580000 0.000000
v 2.960000 1.420000 0.000000
v 4.000000 1.000000 -1.000000
v 2.000000 3.000000 -1.000000
v 3.000000 2.000000 -1.000000
v 2.920000 1.000000 -2.000000
v 1.500000 1.500000 0.000000
v 1.250000 1.500000 0.000000
v 1.500000 1.250000 0.000000
v 0.060000 0.040000 -0.080000
v 0.080000 0.120000 -0.020000
v 0.020000 0.160000 -0.060000
v 0.060000 3.840000 -0.020000
v 0.080000 3.960000 -0.060000
v 0.020000 3.880000 -0.080000
v 0.020000 2.120000 -0.060000
v 0.000000 1.920000 -0.080000
v 0.060000 1.960000 -0.020000
v 0.060000 0.160000 -1.980000
v 0.080000 0.040000 -1.940000
v 0.020000 0.120000 -1.920000
v 0.060000 3.960000 -1.920000
v 0.080000 3.880000 -1.980000
v 0.020000 3.840000 -1.940000
v 0.060000 2.040000 -1.980000
v 0.020000 1.880000 -1.940000
v 0.000000 2.080000 -1.920000
v 1.940000 0.040000 -0.060000
v 2.040000 0.000000 -0.080000
v 2.020000 0.120000 -0.020000
v 3.920000 0.040000 -0.060000
v 3.980000 0.120000 -0.080000
v 3.940000 0.160000 -0.020000
v 1.940000 3.960000 -0.080000
v 1.920000 3.880000 -0.020000
v 1.980000 3.840000 -0.060000
v 3.940000 1.960000 -0.080000
v 3.920000 1.880000 -0.020000
v 3.980000 1.840000 -0.060000
v 1.960000 0.000000 -1.920000
v 1.980000 0.120000 -1.980000
v 2.060000 0.040000 -1.940000
v 3.980000 0.160000 -1.940000
v 3.940000 0.040000 -1.920000
v 3.920000 0.120000 -1.980000
v 1.920000 3.960000 -1.940000
v 1.980000 3.880000 -1.920000
v 1.940000 3.840000 -1.980000
v 3.920000 1.960000 -1.940000
v 3.980000 1.880000 -1.920000
v 3.940000 1.840000 -1.980000
v 1.980000 2.080000 -1.940000
v 2.060000 2.040000 -1.920000
v 1.960000 1.880000 -1.980000
v 2.040000 1.960000 -0.060000
v 2.020000 2.120000 -0.080000
v 1.940000 1.920000 -0.020000
v 0.000000 2.580000 -0.080000
v 0.080000 3.380000 0.000000
v 0.080000 4.000000 -1.460000
v 0.000000 3.840000 -0.540000
v 0.080000 2.460000 -2.000000
v 0.000000 3.420000 -1.920000
v 0.000000 2.160000 -1.460000
v 0.000000 1.840000 -0.540000
v 0.000000 1.420000 -1.920000
v 0.080000 0.620000 -2.000000
v 0.000000 0.160000 -1.460000
v 0.080000 0.000000 -0.540000
v 0.080000 1.540000 0.000000
v 0.000000 0.580000 -0.080000
v 1.460000 4.000000 -1.920000
v 0.540000 3.840000 -2.000000
v 2.000000 2.580000 -1.920000
v 1.920000 3.340000 -2.000000
v 1.520000 0.160000 -2.000000
v 0.540000 0.000000 -1.920000
v 2.000000 2.160000 -0.540000
v 2.080000 2.000000 -1.460000
v 2.000000 3.840000 -1.460000
v 1.920000 4.000000 -0.540000
v 1.920000 2.340000 0.000000
v 2.000000 3.420000 -0.080000
v 1.460000 3.840000 0.000000
v 0.540000 4.000000 -0.080000
v 1.460000 0.000000 -0.080000
v 0.560000 0.160000 0.000000
v 1.920000 0.000000 -1.460000
v 2.080000 0.000000 -0.540000
v 2.420000 1.840000 -2.000000
v 3.460000 2.000000 -1.920000
v 3.920000 1.420000 -2.000000
v 4.000000 0.580000 -1.920000
v 3.440000 0.160000 -2.000000
v 2.540000 0.000000 -1.920000
v 3.920000 0.000000 -1.460000
v 4.000000 0.160000 -0.540000
v 4.000000 1.840000 -1.460000
v 3.920000 2.000000 -0.540000
v 4.000000 1.420000 -0.080000
v 3.920000 0.580000 0.000000
v 3.460000 0.000000 -0.080000
v 2.480000 0.160000 0.000000
v 2.540000 2.000000 -0.080000
v 3.420000 1.840000 0.000000
v 0.310000 2.000000 0.000000
v 2.000000 0.790000 0.000000
v 1.690000 1.880000 0.000000
v 1.980000 0.580000 -2.000000
v 1.460000 1.880000 -2.000000
v 1.980000 1.210000 0.000000
v 0.020000 3.380000 -0.060000
v 0.060000 3.960000 -0.540000
v 0.060000 3.420000 -1.980000
v 0.000000 2.080000 -0.540000
v 0.020000 0.620000 -1.940000
v 0.020000 0.120000 -0.540000
v 0.060000 0.580000 -0.020000
v 0.540000 3.960000 -1.940000
v 1.980000 3.340000 -1.940000
v 0.540000 0.120000 -1.980000
v 2.020000 2.120000 -1.460000
v 1.980000 3.880000 -0.540000
v 1.940000 3.420000 -0.020000
v 0.540000 3.880000 -0.020000
v 0.560000 0.040000 -0.060000
v 1.960000 0.000000 -0.540000
v 3.460000 1.880000 -1.980000
v 3.940000 0.580000 -1.980000
v 2.480000 0.120000 -1.980000
v 3.940000 0.040000 -0.540000
v 3.980000 1.880000 -0.540000
v 3.980000 0.580000 -0.060000
v 2.540000 0.040000 -0.060000
v 3.420000 1.960000 -0.060000
v 0.540000 0.000000 -1.460000
v 0.000000 0.580000 -1.460000
v 1.020000 1.040000 0.000000
v 0.310000 0.620000 0.000000
v 1.500000 1.040000 0.000000
v 1.230000 2.460000 0.000000
v 0.770000 2.460000 0.000000
v 0.000000 3.420000 -0.540000
v 1.460000 4.000000 -1.460000
v 1.520000 0.620000 -2.000000
v 0.540000 2.460000 -2.000000
v 2.540000 0.000000 -1.460000
v 2.480000 0.790000 0.000000
v 2.480000 1.210000 0.000000
v 4.000000 0.580000 -1.460000
v 2.000000 2.580000 -1.460000
v 3.460000 2.000000 -0.540000
v 2.420000 1.420000 -2.000000
v 1.250000 1.750000 0.000000
v 1.083333 1.833333 0.000000
v 1.833333 1.083333 0.000000
v 0.020000 0.120000 -0.080000
v 0.080000 0.040000 -0.060000
v 0.060000 0.160000 -0.020000
v 0.020000 3.840000 -0.060000
v 0.080000 3.880000 -0.020000
v 0.060000 3.960000 -0.080000
v 0.060000 2.040000 -0.020000
v 0.000000 2.080000 -0.080000
v 0.020000 1.880000 -0.060000
v 0.020000 0.160000 -1.940000
v 0.080000 0.120000 -1.980000
v 0.060000 0.040000 -1.920000
v 0.020000 3.880000 -1.920000
v 0.080000 3.960000 -1.940000
v 0.060000 3.840000 -1.980000
v 0.020000 2.120000 -1.940000
v 0.060000 1.960000 -1.980000
v 0.000000 1.920000 -1.920000
v 1.980000 0.120000 -0.020000
v 1.960000 0.000000 -0.080000
v 2.060000 0.040000 -0.060000
v 3.920000 0.120000 -0.020000
v 3.940000 0.040000 -0.080000
v 3.980000 0.160000 -0.060000
v 1.980000 3.880000 -0.080000
v 1.920000 3.960000 -0.060000
v 1.940000 3.840000 -0.020000
v 3.980000 1.880000 -0.080000
v 3.920000 1.960000 -0.060000
v 3.940000 1.840000 -0.020000
v 2.040000 0.000000 -1.920000
v 1.940000 0.040000 -1.940000
v 2.020000 0.120000 -1.980000
v 3.940000 0.160000 -1.980000
v 3.980000 0.120000 -1.920000
v 3.920000 0.040000 -1.940000
v 1.920000 3.880000 -1.980000
v 1.940000 3.960000 -1.920000
v 1.980000 3.840000 -1.940000
v 3.920000 1.880000 -1.980000
v 3.940000 1.960000 -1.920000
v 3.980000 1.840000 -1.940000
v 1.940000 1.920000 -1.980000
v 2.020000 2.120000 -1.920000
v 2.040000 1.960000 -1.940000
v 1.960000 1.880000 -0.020000
v 2.060000 2.040000 -0.080000
v 1.980000 2.080000 -0.060000
v 0.000000 3.420000 -0.080000
v 0.080000 2.460000 0.000000
v 0.080000 4.000000 -0.540000
v 0.000000 3.840000 -1.460000
v 0.080000 3.380000 -2.000000
v 0.000000 2.580000 -1.920000
v 0.000000 2.160000 -0.540000
v 0.000000 1.840000 -1.460000
v 0.000000 0.580000 -1.920000
v 0.080000 1.540000 -2.000000
v 0.000000 0.160000 -0.540000
v 0.080000 0.000000 -1.460000
v 0.080000 0.620000 0.000000
v 0.000000 1.420000 -0.080000
v 0.540000 4.000000 -1.920000
v 1.460000 3.840000 -2.000000
v 2.000000 3.420000 -1.920000
v 1.920000 2.340000 -2.000000
v 0.560000 0.160000 -2.000000
v 1.460000 0.000000 -1.920000
v 2.000000 2.160000 -1.460000
v 2.080000 2.000000 -0.540000
v 2.000000 3.840000 -0.540000
v 1.920000 4.000000 -1.460000
v 1.920000 3.340000 0.000000
v 2.000000 2.580000 -0.080000
v 0.540000 3.840000 0.000000
v 1.460000 4.000000 -0.080000
v 0.540000 0.000000 -0.080000
v 1.520000 0.160000 0.000000
v 1.920000 0.000000 -0.540000
v 2.080000 0.000000 -1.460000
v 3.420000 1.840000 -2.000000
v 2.540000 2.000000 -1.920000
v 3.920000 0.580000 -2.000000
v 4.000000 1.420000 -1.920000
v 2.480000 0.160000 -2.000000
v 3.460000 0.000000 -1.920000
v 3.920000 0.000000 -0.540000
v 4.000000 0.160000 -1.460000
v 4.000000 1.840000 -0.540000
v 3.920000 2.000000 -1.460000
v 4.000000 0.580000 -0.080000
v 3.920000 1.420000 0.000000
v 2.540000 0.000000 -0.080000
v 3.440000 0.160000 0.000000
v 3.460000 2.000000 -0.080000
v 2.420000 1.840000 0.000000
v 0.770000 2.000000 0.000000
v 2.000000 0.370000 0.000000
v 1.230000 1.960000 0.000000
v 1.940000 1.420000 -2.000000
v 0.540000 1.960000 -2.000000
v 1.940000 1.630000 0.000000
v 0.060000 2.460000 -0.020000
v 0.020000 3.880000 -1.460000
v 0.020000 2.580000 -1.940000
v 0.000000 1.920000 -1.460000
v 0.060000 1.540000 -1.980000
v 0.060000 0.040000 -1.460000
v 0.020000 1.420000 -0.060000
v 1.460000 3.880000 -1.980000
v 1.940000 2.340000 -1.980000
v 1.460000 0.040000 -1.940000
v 2.060000 2.040000 -0.540000
v 1.940000 3.960000 -1.460000
v 1.980000 2.580000 -0.060000
v 1.460000 3.960000 -0.060000
v 1.520000 0.120000 -0.020000
v 2.040000 0.000000 -1.460000
v 2.540000 1.960000 -1.940000
v 3.980000 1.420000 -1.940000
v 3.440000 0.040000 -1.940000
v 3.980000 0.120000 -1.460000
v 3.940000 1.960000 -1.460000
v 3.940000 1.420000 -0.020000
v 3.460000 0.120000 -0.020000
v 2.420000 1.880000 -0.020000
v 1.460000 0.000000 -0.540000
v 0.000000 1.420000 -0.540000
v 0.393333 0.453333 0.000000
v 0.770000 1.540000 0.000000
v 1.833333 0.453333 0.000000
v 1.690000 3.380000 0.000000
v 0.310000 3.380000 0.000000
v 0.000000 2.580000 -1.460000
v 0.540000 4.000000 -0.540000
v 0.560000 1.540000 -2.000000
v 1.460000 3.380000 -2.000000
v 3.460000 0.000000 -0.540000
v 3.440000 0.370000 0.000000
v 3.440000 1.630000 0.000000
v 4.000000 1.420000 -0.540000
v 2.000000 3.420000 -0.540000
v 2.540000 2.000000 -1.460000
v 3.420000 0.580000 -2.000000
v 1.750000 1.250000 0.000000
v 1.583333 1.333333 0.000000
v 1.333333 1.583333 0.000000
v 1.416667 1.416667 0.000000
v 3.420000 1.000000 -2.000000
v 2.920000 1.420000 -2.000000
v 3.420000 1.420000 -2.000000
v 3.000000 2.000000 -1.460000
v 3.460000 2.000000 -1.000000
v 3.460000 2.000000 -1.460000
v 2.000000 3.420000 -1.000000
v 2.000000 3.000000 -1.460000
v 2.000000 3.420000 -1.460000
v 4.000000 1.420000 -1.000000
v 4.000000 1.000000 -1.460000
v 4.000000 1.420000 -1.460000
v 2.960000 1.000000 0.000000
v 3.440000 0.790000 0.000000
v 3.440000 1.210000 0.000000
v 2.480000 0.580000 0.000000
v 2.480000 0.370000 0.000000
v 2.960000 0.370000 0.000000
v 3.460000 0.000000 -1.000000
v 3.000000 0.000000 -1.460000
v 3.460000 0.000000 -1.460000
v 1.000000 3.380000 -2.000000
v 0.540000 2.920000 -2.000000
v 0.540000 3.380000 -2.000000
v 0.560000 1.080000 -2.000000
v 1.040000 0.620000 -2.000000
v 0.560000 0.620000 -2.000000
v 0.540000 4.000000 -1.000000
v 1.000000 4.000000 -1.460000
v 0.540000 4.000000 -1.460000
v 0.000000 3.000000 -1.460000
v 0.000000 3.420000 -1.000000
v 0.000000 3.420000 -1.460000
v 1.000000 2.920000 0.000000
v 1.230000 3.380000 0.000000
v 0.770000 3.380000 0.000000
v 1.690000 2.880000 0.000000
v 1.460000 2.420000 0.000000
v 1.690000 2.380000 0.000000
v 1.186667 0.746667 0.000000
v 0.873333 0.453333 0.000000
v 1.353333 0.453333 0.000000
v 0.310000 1.080000 0.000000
v 0.540000 1.540000 0.000000
v 0.310000 1.540000 0.000000
v 0.623333 0.913333 0.000000
v 0.936667 1.206667 0.000000
v 0.853333 1.373333 0.000000
v 0.000000 1.000000 -0.540000
v 0.000000 0.580000 -1.000000
v 0.000000 0.580000 -0.540000
v 1.460000 0.000000 -1.000000
v 1.000000 0.000000 -1.460000
v 1.460000 0.000000 -1.460000
v 2.460000 1.920000 -0.040000
v 2.960000 1.960000 -0.060000
v 2.500000 1.960000 -0.060000
v 3.460000 0.080000 -0.040000
v 3.000000 0.040000 -0.060000
v 3.460000 0.040000 -0.060000
v 3.960000 1.420000 -0.040000
v 3.980000 1.000000 -0.060000
v 3.980000 1.420000 -0.060000
v 3.960000 1.920000 -1.460000
v 3.980000 1.880000 -1.000000
v 3.980000 1.880000 -1.460000
v 3.960000 0.080000 -1.460000
v 3.940000 0.040000 -1.000000
v 3.940000 0.040000 -1.460000
v 3.440000 0.080000 -1.960000
v 2.960000 0.120000 -1.980000
v 3.440000 0.120000 -1.980000
v 3.960000 1.420000 -1.960000
v 3.940000 1.000000 -1.980000
v 3.940000 1.420000 -1.980000
v 2.500000 1.920000 -1.960000
v 2.960000 1.880000 -1.980000
v 2.460000 1.880000 -1.980000
v 2.000000 0.000000 -1.460000
v 1.960000 0.000000 -1.000000
v 1.960000 0.000000 -1.460000
v 1.500000 0.080000 -0.040000
v 1.020000 0.040000 -0.060000
v 1.480000 0.040000 -0.060000
v 1.460000 3.920000 -0.040000
v 1.000000 3.880000 -0.020000
v 1.460000 3.880000 -0.020000
v 1.960000 2.500000 -0.040000
v 1.940000 2.920000 -0.020000
v 1.940000 2.420000 -0.020000
v 1.960000 3.920000 -1.460000
v 1.980000 3.880000 -1.000000
v 1.980000 3.880000 -1.460000
v 2.040000 2.080000 -0.540000
v 2.020000 2.120000 -1.000000
v 2.020000 2.120000 -0.540000
v 1.480000 0.080000 -1.960000
v 1.020000 0.120000 -1.980000
v 1.500000 0.120000 -1.980000
v 1.960000 2.420000 -1.960000
v 1.980000 2.920000 -1.940000
v 1.980000 2.500000 -1.940000
v 1.460000 3.920000 -1.960000
v 1.000000 3.960000 -1.940000
v 1.460000 3.960000 -1.940000
v 0.040000 1.460000 -0.040000
v 0.060000 1.040000 -0.020000
v 0.060000 1.500000 -0.020000
v 0.040000 0.080000 -1.460000
v 0.020000 0.120000 -1.000000
v 0.020000 0.120000 -1.460000
v 0.040000 1.500000 -1.960000
v 0.020000 1.040000 -1.940000
v 0.020000 1.460000 -1.940000
v 0.000000 2.000000 -1.460000
v 0.000000 2.080000 -1.000000
v 0.000000 2.080000 -1.460000
v 0.040000 2.540000 -1.960000
v 0.060000 2.960000 -1.980000
v 0.060000 2.500000 -1.980000
v 0.040000 3.920000 -1.460000
v 0.060000 3.960000 -1.000000
v 0.060000 3.960000 -1.460000
v 0.040000 2.500000 -0.040000
v 0.020000 2.960000 -0.060000
v 0.020000 2.540000 -0.060000
v 1.710000 1.670000 0.000000
v 1.480000 1.710000 0.000000
v 1.730000 1.460000 0.000000
v 2.460000 0.580000 -2.000000
v 2.440000 1.000000 -2.000000
v 2.940000 0.580000 -2.000000
v 2.540000 2.000000 -0.540000
v 3.000000 2.000000 -0.540000
v 2.540000 2.000000 -1.000000
v 2.000000 2.580000 -0.540000
v 2.000000 2.580000 -1.000000
v 2.000000 3.000000 -0.540000
v 4.000000 0.580000 -0.540000
v 4.000000 0.580000 -1.000000
v 4.000000 1.000000 -0.540000
v 2.460000 1.420000 0.000000
v 2.940000 1.630000 0.000000
v 2.440000 1.630000 0.000000
v 2.540000 0.000000 -0.540000
v 2.540000 0.000000 -1.000000
v 3.000000 0.000000 -0.540000
v 1.460000 2.380000 -2.000000
v 1.000000 2.420000 -2.000000
v 1.460000 2.880000 -2.000000
v 1.480000 1.460000 -2.000000
v 1.500000 1.040000 -2.000000
v 1.020000 1.500000 -2.000000
v 1.460000 4.000000 -0.540000
v 1.460000 4.000000 -1.000000
v 1.000000 4.000000 -0.540000
v 0.000000 2.580000 -0.540000
v 0.000000 3.000000 -0.540000
v 0.000000 2.580000 -1.000000
v 0.540000 2.460000 0.000000
v 0.310000 2.920000 0.000000
v 0.310000 2.460000 0.000000
v 1.666667 0.956667 0.000000
v 1.833333 0.663333 0.000000
v 1.833333 0.873333 0.000000
v 0.000000 1.420000 -1.460000
v 0.000000 1.000000 -1.460000
v 0.000000 1.420000 -1.000000
v 0.540000 0.000000 -0.540000
v 0.540000 0.000000 -1.000000
v 1.000000 0.000000 -0.540000
v 3.420000 1.880000 -0.020000
v 3.420000 1.920000 -0.040000
v 2.920000 1.880000 -0.020000
v 2.500000 0.120000 -0.020000
v 2.520000 0.080000 -0.040000
v 2.980000 0.120000 -0.020000
v 3.940000 0.580000 -0.020000
v 3.960000 0.580000 -0.040000
v 3.940000 1.000000 -0.020000
v 3.940000 1.960000 -0.540000
v 3.960000 1.920000 -0.540000
v 3.940000 1.960000 -1.000000
v 3.980000 0.120000 -0.540000
v 3.960000 0.080000 -0.540000
v 3.980000 0.120000 -1.000000
v 2.520000 0.040000 -1.940000
v 2.500000 0.080000 -1.960000
v 2.980000 0.040000 -1.940000
v 3.980000 0.580000 -1.940000
v 3.960000 0.580000 -1.960000
v 3.980000 1.000000 -1.940000
v 3.460000 1.960000 -1.940000
v 3.460000 1.920000 -1.960000
v 3.000000 1.960000 -1.940000
v 2.040000 0.000000 -0.540000
v 2.000000 0.000000 -0.540000
v 2.040000 0.000000 -1.000000
v 0.560000 0.120000 -0.020000
v 0.560000 0.080000 -0.040000
v 1.040000 0.120000 -0.020000
v 0.540000 3.960000 -0.060000
v 0.540000 3.920000 -0.040000
v 1.000000 3.960000 -0.060000
v 1.980000 3.420000 -0.060000
v 1.960000 3.420000 -0.040000
v 1.980000 3.000000 -0.060000
v 1.940000 3.960000 -0.540000
v 1.960000 3.920000 -0.540000
v 1.940000 3.960000 -1.000000
v 2.060000 2.040000 -1.460000
v 2.040000 2.080000 -1.460000
v 2.060000 2.040000 -1.000000
v 0.540000 0.040000 -1.940000
v 0.540000 0.080000 -1.960000
v 1.000000 0.040000 -1.940000
v 1.940000 3.340000 -1.980000
v 1.960000 3.340000 -1.960000
v 1.940000 2.840000 -1.980000
v 0.540000 3.880000 -1.980000
v 0.540000 3.920000 -1.960000
v 1.000000 3.880000 -1.980000
v 0.020000 0.580000 -0.060000
v 0.040000 0.580000 -0.040000
v 0.020000 1.000000 -0.060000
v 0.060000 0.040000 -0.540000
v 0.040000 0.080000 -0.540000
v 0.060000 0.040000 -1.000000
v 0.060000 0.620000 -1.980000
v 0.040000 0.620000 -1.960000
v 0.060000 1.080000 -1.980000
v 0.000000 1.920000 -0.540000
v 0.000000 2.000000 -0.540000
v 0.000000 1.920000 -1.000000
v 0.020000 3.420000 -1.940000
v 0.040000 3.420000 -1.960000
v 0.020000 3.000000 -1.940000
v 0.020000 3.880000 -0.540000
v 0.040000 3.920000 -0.540000
v 0.020000 3.880000 -1.000000
v 0.060000 3.380000 -0.020000
v 0.040000 3.380000 -0.040000
v 0.060000 2.920000 -0.020000
v 1.980000 1.960000 -0.040000
v 2.020000 2.000000 -0.060000
v 2.000000 2.040000 -0.060000
v 1.980000 1.960000 -1.960000
v 2.000000 2.040000 -1.940000
v 2.020000 2.000000 -1.940000
v 3.940000 1.880000 -1.960000
v 3.940000 1.920000 -1.940000
v 3.960000 1.880000 -1.940000
v 1.940000 3.880000 -1.960000
v 1.940000 3.920000 -1.940000
v 1.960000 3.880000 -1.940000
v 3.940000 0.120000 -1.960000
v 3.960000 0.120000 -1.940000
v 3.940000 0.080000 -1.940000
v 2.020000 0.040000 -1.940000
v 1.980000 0.040000 -1.940000
v 2.000000 0.080000 -1.960000
v 3.960000 1.880000 -0.060000
v 3.940000 1.920000 -0.060000
v 3.940000 1.880000 -0.040000
v 1.960000 3.880000 -0.060000
v 1.940000 3.920000 -0.060000
v 1.940000 3.880000 -0.040000
v 3.940000 0.120000 -0.040000
v 3.940000 0.080000 -0.060000
v 3.960000 0.120000 -0.060000
v 2.000000 0.080000 -0.040000
v 1.980000 0.040000 -0.060000
v 2.020000 0.040000 -0.060000
v 0.020000 2.040000 -1.940000
v 0.040000 2.000000 -1.960000
v 0.020000 1.960000 -1.940000
v 0.040000 3.880000 -1.940000
v 0.060000 3.920000 -1.940000
v 0.060000 3.880000 -1.960000
v 0.040000 0.120000 -1.940000
v 0.060000 0.120000 -1.960000
v 0.060000 0.080000 -1.940000
v 0.040000 2.000000 -0.040000
v 0.020000 2.040000 -0.060000
v 0.020000 1.960000 -0.060000
v 0.040000 3.880000 -0.060000
v 0.060000 3.880000 -0.040000
v 0.060000 3.920000 -0.060000
v 0.040000 0.120000 -0.060000
v 0.060000 0.080000 -0.060000
v 0.060000 0.120000 -0.040000
vn -0.6667 -0.3333 0.6667
vn -0.6667 0.3333 0.6667
vn -0.7071 -0.0000 0.7071
vn -0.6667 -0.3333 -0.6667
vn -0.6667 0.3333 -0.6667
vn -0.7071 -0.0000 -0.7071
vn -0.0000 -0.4472 0.8944
vn 0.6667 -0.3333 0.6667
vn 0.6667 0.3333 0.6667
vn -0.0000 -0.4472 -0.8944
vn 0.6667 -0.3333 -0.6667
vn 0.6667 0.3333 -0.6667
vn 0.3123 0.1562 -0.9370
vn 0.3123 0.1562 0.9370
vn -0.8944 0.4472 -0.0000
vn -1.0000 -0.0000 -0.0000
vn -0.8944 -0.4472 -0.0000
vn -0.0000 0.4472 -0.8944
vn 0.7071 -0.0000 -0.7071
vn 0.8944 0.4472 -0.0000
vn 0.7071 -0.0000 0.7071
vn -0.0000 0.4472 0.8944
vn -0.0000 -1.0000 -0.0000
vn 0.8944 -0.4472 -0.0000
vn -0.0000 -0.0000 1.0000
vn -0.0000 1.0000 -0.0000
vn -0.0000 -0.0000 -1.0000
vn 1.0000 -0.0000 -0.0000
vt 0.375000 0.990000
vt 0.377500 0.990000
vt 0.377500 0.992500
vt 0.615000 0.000000
vt 0.617500 0.002500
vt 0.615000 0.002500
vt 0.510000 0.010000
vt 0.507500 0.010000
vt 0.507500 0.007500
vt 0.385000 0.260000
vt 0.382500 0.260000
vt 0.385833 0.256667
vt 0.625000 0.240000
vt 0.622500 0.244167
vt 0.622500 0.240000
vt 0.500000 0.258000
vt 0.499167 0.254333
vt 0.502500 0.253500
vt 0.370000 0.750000
vt 0.371250 0.748750
vt 0.373750 0.750000
vt 0.370000 0.740000
vt 0.375000 0.740000
vt 0.373125 0.743125
vt 0.632500 0.740000
vt 0.629375 0.743750
vt 0.628125 0.740000
vt 0.628750 0.740000
vt 0.624375 0.743125
vt 0.622813 0.740000
vt 0.370000 0.500000
vt 0.373750 0.500000
vt 0.371250 0.501250
vt 0.390000 0.510000
vt 0.385000 0.510000
vt 0.388125 0.506875
vt 0.632500 0.510000
vt 0.628125 0.510000
vt 0.629375 0.506250
vt 0.628750 0.510000
vt 0.622813 0.510000
vt 0.624375 0.506875
vt 0.510000 0.510000
vt 0.507500 0.510000
vt 0.505625 0.505625
vt 0.500000 0.740000
vt 0.502500 0.740000
vt 0.498125 0.744375
vt 0.615000 0.010000
vt 0.586250 0.007500
vt 0.615000 0.007500
vt 0.625000 0.010000
vt 0.622500 0.067500
vt 0.622500 0.010000
vt 0.615000 0.256667
vt 0.588750 0.252500
vt 0.615000 0.252500
vt 0.506667 0.068333
vt 0.388333 0.246667
vt 0.416250 0.249500
vt 0.387500 0.250000
vt 0.125000 0.740000
vt 0.127500 0.682500
vt 0.127500 0.740000
vt 0.385000 0.990000
vt 0.411250 0.992500
vt 0.385000 0.992500
vt 0.865000 0.510000
vt 0.803750 0.506250
vt 0.865000 0.507500
vt 0.615000 0.510000
vt 0.584375 0.505625
vt 0.616250 0.506250
vt 0.381250 0.320000
vt 0.507500 0.567500
vt 0.615000 0.740000
vt 0.619375 0.682500
vt 0.619375 0.740000
vt 0.620000 0.755000
vt 0.592500 0.751250
vt 0.618750 0.751250
vt 0.865000 0.750000
vt 0.806875 0.747500
vt 0.865000 0.747500
vt 0.377500 0.930000
vt 0.371250 0.688750
vt 0.611250 0.497500
vt 0.644688 0.500625
vt 0.615625 0.500625
vt 0.382500 0.497500
vt 0.438125 0.500625
vt 0.384375 0.500625
vt 0.250000 0.500000
vt 0.280000 0.502500
vt 0.251250 0.502500
vt 0.375000 0.682500
vt 0.605000 0.740000
vt 0.610938 0.682500
vt 0.610938 0.740000
vt 0.390000 0.740000
vt 0.445312 0.743125
vt 0.388125 0.743125
vt 0.255000 0.740000
vt 0.286875 0.743125
vt 0.253750 0.742500
vt 0.659063 0.742500
vt 0.135000 0.510000
vt 0.193750 0.570000
vt 0.135000 0.567500
vt 0.442500 0.187500
vt 0.442500 0.245000
vt 0.385000 0.750000
vt 0.398125 0.750000
vt 0.403333 0.770833
vt 0.615000 0.990000
vt 0.586250 0.990000
vt 0.586250 0.961250
vt 0.588750 0.067500
vt 0.588750 0.010000
vt 0.690625 0.567500
vt 0.632500 0.567500
vt 0.385000 0.500000
vt 0.413750 0.439500
vt 0.411875 0.498125
vt 0.530000 0.317250
vt 0.498125 0.316625
vt 0.255000 0.510000
vt 0.283750 0.567500
vt 0.255000 0.567500
vt 0.611250 0.752500
vt 0.609687 0.784375
vt 0.583437 0.783125
vt 0.443750 0.567500
vt 0.390000 0.567500
vt 0.536250 0.567500
vt 0.510000 0.567500
vt 0.657813 0.682500
vt 0.657813 0.740000
vt 0.605000 0.370000
vt 0.549375 0.401875
vt 0.552500 0.371250
vt 0.500000 0.875000
vt 0.484375 0.843750
vt 0.498125 0.845625
vt 0.625000 0.067500
vt 0.586250 0.257000
vt 0.510000 0.067500
vt 0.415417 0.245833
vt 0.125000 0.682500
vt 0.413750 0.990000
vt 0.806875 0.510000
vt 0.588750 0.510000
vt 0.385000 0.320000
vt 0.615000 0.682500
vt 0.588125 0.755625
vt 0.803750 0.751250
vt 0.373750 0.930000
vt 0.370000 0.687500
vt 0.645938 0.498125
vt 0.439687 0.497500
vt 0.283125 0.499375
vt 0.370000 0.682500
vt 0.605000 0.682500
vt 0.443750 0.740000
vt 0.283750 0.740000
vt 0.193750 0.507500
vt 0.390000 0.187500
vt 0.458333 0.833333
vt 0.468750 0.843750
vt 0.440000 0.872500
vt 0.500000 0.903750
vt 0.471250 0.903750
vt 0.385000 0.930000
vt 0.403333 0.950833
vt 0.530000 0.845000
vt 0.618750 0.813750
vt 0.590000 0.785000
vt 0.615000 0.067500
vt 0.690625 0.510000
vt 0.385000 0.440000
vt 0.528750 0.257667
vt 0.283750 0.510000
vt 0.395000 0.875000
vt 0.391875 0.844375
vt 0.421250 0.875000
vt 0.382500 0.752500
vt 0.439687 0.752500
vt 0.411875 0.783125
vt 0.443750 0.510000
vt 0.536250 0.510000
vt 0.628750 0.682500
vt 0.606563 0.401875
vt 0.489583 0.864583
vt 0.468750 0.812500
vt 0.458333 0.802083
vt 0.453125 0.781250
vt 0.473958 0.833333
vt 0.479167 0.854167
vt 0.463542 0.822917
vt 0.493750 0.433750
vt 0.495313 0.465625
vt 0.438125 0.465625
vt 0.550938 0.433750
vt 0.608125 0.433750
vt 0.609688 0.465625
vt 0.552500 0.465625
vt 0.686875 0.625000
vt 0.686875 0.567500
vt 0.715938 0.567500
vt 0.657813 0.625000
vt 0.628750 0.625000
vt 0.628750 0.567500
vt 0.657813 0.567500
vt 0.562500 0.625000
vt 0.588750 0.625000
vt 0.588750 0.682500
vt 0.562500 0.567500
vt 0.562500 0.510000
vt 0.588750 0.567500
vt 0.497500 0.625000
vt 0.551250 0.625000
vt 0.551250 0.682500
vt 0.497500 0.567500
vt 0.497500 0.510000
vt 0.551250 0.510000
vt 0.551250 0.567500
vt 0.441250 0.813750
vt 0.498437 0.813750
vt 0.470625 0.844375
vt 0.469063 0.783125
vt 0.496875 0.752500
vt 0.554062 0.752500
vt 0.526250 0.783125
vt 0.447500 0.875000
vt 0.444375 0.844375
vt 0.473750 0.875000
vt 0.418125 0.844375
vt 0.388750 0.813750
vt 0.385625 0.783125
vt 0.415000 0.813750
vt 0.312500 0.625000
vt 0.341250 0.625000
vt 0.341250 0.682500
vt 0.312500 0.567500
vt 0.312500 0.510000
vt 0.341250 0.510000
vt 0.341250 0.567500
vt 0.560000 0.376500
vt 0.588750 0.376167
vt 0.590000 0.435750
vt 0.558750 0.316917
vt 0.557500 0.257333
vt 0.587500 0.316583
vt 0.442500 0.379000
vt 0.442500 0.319000
vt 0.471250 0.318500
vt 0.413750 0.379500
vt 0.385000 0.380000
vt 0.413750 0.319500
vt 0.748750 0.625000
vt 0.806875 0.625000
vt 0.806875 0.682500
vt 0.748750 0.567500
vt 0.748750 0.510000
vt 0.806875 0.567500
vt 0.562500 0.125000
vt 0.562500 0.182500
vt 0.536250 0.182500
vt 0.588750 0.125000
vt 0.615000 0.125000
vt 0.615000 0.182500
vt 0.588750 0.182500
vt 0.560000 0.815000
vt 0.558750 0.873750
vt 0.588750 0.843750
vt 0.617500 0.872500
vt 0.616250 0.931250
vt 0.587500 0.902500
vt 0.558125 0.785625
vt 0.528125 0.815625
vt 0.496250 0.816250
vt 0.494375 0.786875
vt 0.526250 0.786250
vt 0.421667 0.911667
vt 0.421667 0.851667
vt 0.403333 0.890833
vt 0.385000 0.870000
vt 0.385000 0.810000
vt 0.403333 0.830833
vt 0.442500 0.932500
vt 0.442500 0.961250
vt 0.413750 0.961250
vt 0.471250 0.932500
vt 0.500000 0.932500
vt 0.500000 0.961250
vt 0.471250 0.961250
vt 0.432083 0.922083
vt 0.450417 0.882917
vt 0.460833 0.893333
vt 0.496667 0.128333
vt 0.498333 0.069167
vt 0.550833 0.069167
vt 0.444167 0.128333
vt 0.391667 0.128333
vt 0.393333 0.069167
vt 0.445833 0.069167
vt 0.252500 0.630000
vt 0.311250 0.627500
vt 0.311250 0.690000
vt 0.252500 0.567500
vt 0.252500 0.505000
vt 0.311250 0.502500
vt 0.311250 0.565000
vt 0.689375 0.745000
vt 0.718438 0.745000
vt 0.719688 0.747500
vt 0.688125 0.742500
vt 0.686875 0.740000
vt 0.715938 0.740000
vt 0.717188 0.742500
vt 0.318750 0.746250
vt 0.347500 0.746250
vt 0.350625 0.749375
vt 0.315625 0.743125
vt 0.312500 0.740000
vt 0.341250 0.740000
vt 0.344375 0.743125
vt 0.500625 0.746250
vt 0.554375 0.746250
vt 0.555938 0.749375
vt 0.499063 0.743125
vt 0.497500 0.740000
vt 0.551250 0.740000
vt 0.552812 0.743125
vt 0.616875 0.625000
vt 0.616875 0.567500
vt 0.622813 0.567500
vt 0.610938 0.625000
vt 0.605000 0.625000
vt 0.605000 0.567500
vt 0.610938 0.567500
vt 0.380000 0.625000
vt 0.380000 0.567500
vt 0.385000 0.567500
vt 0.375000 0.625000
vt 0.370000 0.625000
vt 0.370000 0.567500
vt 0.375000 0.567500
vt 0.310000 0.505000
vt 0.343125 0.504375
vt 0.340000 0.507500
vt 0.313125 0.501875
vt 0.316250 0.498750
vt 0.349375 0.498125
vt 0.346250 0.501250
vt 0.493750 0.503750
vt 0.550938 0.503750
vt 0.549375 0.506875
vt 0.495313 0.500625
vt 0.496875 0.497500
vt 0.554063 0.497500
vt 0.552500 0.500625
vt 0.678125 0.503750
vt 0.712813 0.504375
vt 0.711563 0.506875
vt 0.679375 0.501250
vt 0.680625 0.498750
vt 0.715312 0.499375
vt 0.714063 0.501875
vt 0.372500 0.627500
vt 0.372500 0.565000
vt 0.373750 0.566250
vt 0.371250 0.626250
vt 0.370000 0.562500
vt 0.371250 0.563750
vt 0.380000 0.870000
vt 0.378750 0.810000
vt 0.382500 0.810000
vt 0.376250 0.870000
vt 0.372500 0.870000
vt 0.371250 0.810000
vt 0.375000 0.810000
vt 0.748750 0.745000
vt 0.687500 0.746250
vt 0.690625 0.742500
vt 0.745625 0.748750
vt 0.742500 0.752500
vt 0.681250 0.753750
vt 0.684375 0.750000
vt 0.565000 0.747500
vt 0.533125 0.748125
vt 0.537500 0.743750
vt 0.560625 0.751875
vt 0.556250 0.756250
vt 0.524375 0.756875
vt 0.528750 0.752500
vt 0.623750 0.625000
vt 0.623750 0.567500
vt 0.628125 0.567500
vt 0.619375 0.625000
vt 0.615000 0.625000
vt 0.615000 0.567500
vt 0.619375 0.567500
vt 0.505000 0.625000
vt 0.505000 0.682500
vt 0.502500 0.682500
vt 0.507500 0.625000
vt 0.510000 0.625000
vt 0.510000 0.682500
vt 0.507500 0.682500
vt 0.377500 0.380000
vt 0.377500 0.440000
vt 0.373750 0.440000
vt 0.381250 0.380000
vt 0.381250 0.440000
vt 0.553750 0.501250
vt 0.527500 0.501250
vt 0.523125 0.496875
vt 0.558125 0.505625
vt 0.531875 0.505625
vt 0.742500 0.502500
vt 0.684375 0.502500
vt 0.681250 0.498750
vt 0.745625 0.506250
vt 0.687500 0.506250
vt 0.437500 0.995000
vt 0.466250 0.995000
vt 0.463750 0.997500
vt 0.440000 0.992500
vt 0.442500 0.990000
vt 0.471250 0.990000
vt 0.468750 0.992500
vt 0.130000 0.625000
vt 0.130000 0.567500
vt 0.132500 0.567500
vt 0.127500 0.625000
vt 0.125000 0.625000
vt 0.125000 0.567500
vt 0.127500 0.567500
vt 0.444167 0.252333
vt 0.471250 0.251500
vt 0.472083 0.255167
vt 0.443333 0.248667
vt 0.469583 0.244167
vt 0.470417 0.247833
vt 0.503333 0.126667
vt 0.503333 0.184167
vt 0.500000 0.185000
vt 0.506667 0.125833
vt 0.510000 0.125000
vt 0.510000 0.182500
vt 0.506667 0.183333
vt 0.562500 0.248333
vt 0.533750 0.248667
vt 0.536250 0.244167
vt 0.560000 0.252833
vt 0.531250 0.253167
vt 0.620000 0.125000
vt 0.620000 0.182500
vt 0.617500 0.182500
vt 0.622500 0.125000
vt 0.625000 0.125000
vt 0.625000 0.182500
vt 0.622500 0.182500
vt 0.557500 0.005000
vt 0.531250 0.005000
vt 0.528750 0.002500
vt 0.560000 0.007500
vt 0.562500 0.010000
vt 0.536250 0.010000
vt 0.533750 0.007500
vt 0.480625 0.785000
vt 0.482500 0.814375
vt 0.466875 0.783125
vt 0.500000 0.372500
vt 0.444375 0.404375
vt 0.447500 0.373750
vt 0.496875 0.403125
vt 0.441250 0.435000
vt 0.715938 0.682500
vt 0.686875 0.682500
vt 0.715938 0.625000
vt 0.536250 0.682500
vt 0.536250 0.625000
vt 0.562500 0.682500
vt 0.390000 0.625000
vt 0.443750 0.682500
vt 0.390000 0.682500
vt 0.443750 0.625000
vt 0.497500 0.682500
vt 0.555625 0.813750
vt 0.554062 0.845625
vt 0.527812 0.844375
vt 0.581875 0.815000
vt 0.608125 0.816250
vt 0.606562 0.848125
vt 0.580312 0.846875
vt 0.255000 0.625000
vt 0.283750 0.682500
vt 0.255000 0.682500
vt 0.283750 0.625000
vt 0.312500 0.682500
vt 0.496250 0.375250
vt 0.526250 0.434500
vt 0.494375 0.433875
vt 0.528125 0.375875
vt 0.558125 0.435125
vt 0.438750 0.496250
vt 0.467500 0.435750
vt 0.465625 0.494375
vt 0.440625 0.437625
vt 0.469375 0.377125
vt 0.632500 0.625000
vt 0.690625 0.682500
vt 0.632500 0.682500
vt 0.690625 0.625000
vt 0.748750 0.682500
vt 0.536250 0.067500
vt 0.562500 0.067500
vt 0.536250 0.125000
vt 0.557500 0.932500
vt 0.528750 0.932500
vt 0.528750 0.903750
vt 0.557500 0.961250
vt 0.557500 0.990000
vt 0.528750 0.990000
vt 0.528750 0.961250
vt 0.421667 0.791667
vt 0.434792 0.791667
vt 0.440000 0.812500
vt 0.416458 0.770833
vt 0.411250 0.750000
vt 0.424375 0.750000
vt 0.429583 0.770833
vt 0.496667 0.243333
vt 0.550833 0.184167
vt 0.550833 0.241667
vt 0.496667 0.185833
vt 0.550833 0.126667
vt 0.135000 0.625000
vt 0.193750 0.685000
vt 0.135000 0.682500
vt 0.193750 0.627500
vt 0.252500 0.687500
vt 0.620000 0.746250
vt 0.650312 0.748750
vt 0.615625 0.749375
vt 0.654688 0.745625
vt 0.685000 0.748125
vt 0.252500 0.745000
vt 0.284375 0.748125
vt 0.251250 0.747500
vt 0.285625 0.745625
vt 0.317500 0.748750
vt 0.386250 0.746250
vt 0.441562 0.749375
vt 0.384375 0.749375
vt 0.443438 0.746250
vt 0.498750 0.749375
vt 0.616875 0.740000
vt 0.622813 0.682500
vt 0.616875 0.682500
vt 0.622813 0.625000
vt 0.380000 0.740000
vt 0.385000 0.682500
vt 0.385000 0.740000
vt 0.380000 0.682500
vt 0.385000 0.625000
vt 0.282500 0.507500
vt 0.253750 0.507500
vt 0.281250 0.505000
vt 0.311250 0.507500
vt 0.386250 0.503750
vt 0.441875 0.506875
vt 0.440000 0.503750
vt 0.495625 0.506875
vt 0.620000 0.503750
vt 0.653438 0.506875
vt 0.649063 0.503750
vt 0.682500 0.506875
vt 0.372500 0.747500
vt 0.373750 0.686250
vt 0.373750 0.746250
vt 0.372500 0.687500
vt 0.373750 0.626250
vt 0.380000 0.990000
vt 0.382500 0.930000
vt 0.382500 0.990000
vt 0.380000 0.930000
vt 0.382500 0.870000
vt 0.865000 0.745000
vt 0.806875 0.742500
vt 0.865000 0.742500
vt 0.806875 0.745000
vt 0.748750 0.742500
vt 0.617500 0.747500
vt 0.590000 0.743750
vt 0.616250 0.743750
vt 0.591250 0.747500
vt 0.563750 0.743750
vt 0.623750 0.740000
vt 0.628125 0.682500
vt 0.623750 0.682500
vt 0.628125 0.625000
vt 0.505000 0.510000
vt 0.502500 0.567500
vt 0.502500 0.510000
vt 0.505000 0.567500
vt 0.502500 0.625000
vt 0.380000 0.260000
vt 0.376250 0.320000
vt 0.377500 0.260000
vt 0.378750 0.320000
vt 0.375000 0.380000
vt 0.617500 0.502500
vt 0.586875 0.498125
vt 0.618750 0.498750
vt 0.585625 0.501875
vt 0.555000 0.497500
vt 0.865000 0.505000
vt 0.803750 0.501250
vt 0.865000 0.502500
vt 0.803750 0.503750
vt 0.742500 0.500000
vt 0.385000 0.995000
vt 0.411250 0.997500
vt 0.385000 0.997500
vt 0.411250 0.995000
vt 0.437500 0.997500
vt 0.130000 0.740000
vt 0.132500 0.682500
vt 0.132500 0.740000
vt 0.130000 0.682500
vt 0.132500 0.625000
vt 0.386667 0.253333
vt 0.414583 0.256167
vt 0.415417 0.252833
vt 0.443333 0.255667
vt 0.505000 0.010000
vt 0.501667 0.068333
vt 0.502500 0.010000
vt 0.504167 0.068333
vt 0.500833 0.126667
vt 0.615000 0.248333
vt 0.588750 0.244167
vt 0.615000 0.244167
vt 0.588750 0.248333
vt 0.562500 0.244167
vt 0.620000 0.010000
vt 0.617500 0.067500
vt 0.617500 0.010000
vt 0.620000 0.067500
vt 0.617500 0.125000
vt 0.615000 0.005000
vt 0.586250 0.002500
vt 0.586250 0.005000
vt 0.557500 0.002500
vt 0.496250 0.748750
vt 0.498750 0.748750
vt 0.494375 0.753125
vt 0.500625 0.744375
vt 0.505000 0.740000
vt 0.507500 0.740000
vt 0.503125 0.744375
vt 0.501250 0.501250
vt 0.498750 0.501250
vt 0.496875 0.496875
vt 0.503125 0.505625
vt 0.500625 0.505625
vt 0.614063 0.503750
vt 0.618438 0.506875
vt 0.616875 0.510000
vt 0.610938 0.510000
vt 0.612500 0.506875
vt 0.626250 0.502500
vt 0.621875 0.502500
vt 0.623125 0.498750
vt 0.625000 0.506250
vt 0.623750 0.510000
vt 0.619375 0.510000
vt 0.620625 0.506250
vt 0.381250 0.503750
vt 0.383125 0.506875
vt 0.380000 0.510000
vt 0.375000 0.510000
vt 0.378125 0.506875
vt 0.372500 0.502500
vt 0.376250 0.502500
vt 0.373750 0.503750
vt 0.375000 0.501250
vt 0.377500 0.500000
vt 0.381250 0.500000
vt 0.378750 0.501250
vt 0.612500 0.743125
vt 0.618438 0.743125
vt 0.614062 0.746250
vt 0.620625 0.743750
vt 0.625000 0.743750
vt 0.626250 0.747500
vt 0.623125 0.751250
vt 0.621875 0.747500
vt 0.376250 0.746250
vt 0.381250 0.746250
vt 0.379375 0.749375
vt 0.378125 0.743125
vt 0.383125 0.743125
vt 0.377500 0.750000
vt 0.378750 0.748750
vt 0.381250 0.750000
vt 0.375000 0.748750
vt 0.376250 0.747500
vt 0.505000 0.249000
vt 0.504167 0.245333
vt 0.507500 0.244500
vt 0.501667 0.249833
vt 0.498333 0.250667
vt 0.497500 0.247000
vt 0.500833 0.246167
vt 0.620000 0.240000
vt 0.617500 0.244167
vt 0.617500 0.240000
vt 0.620000 0.244167
vt 0.620000 0.248333
vt 0.617500 0.252500
vt 0.617500 0.248333
vt 0.384167 0.253333
vt 0.383333 0.256667
vt 0.380833 0.256667
vt 0.505000 0.005000
vt 0.502500 0.005000
vt 0.502500 0.002500
vt 0.505000 0.007500
vt 0.502500 0.007500
vt 0.617500 0.007500
vt 0.617500 0.005000
vt 0.620000 0.005000
vt 0.622500 0.007500
vt 0.620000 0.007500
vt 0.380000 0.995000
vt 0.382500 0.995000
vt 0.382500 0.997500
vt 0.380000 0.992500
vt 0.382500 0.992500
vt 0.385000 1.000000
vt 0.500000 0.007500
vt 0.500000 0.005000
vt 0.500000 0.010000
vt 0.500000 0.002500
vt 0.500000 0.000000
vt 0.378333 0.256667
vt 0.381667 0.253333
vt 0.375000 0.260000
vt 0.385000 0.250000
vt 0.615000 0.240000
vt 0.500000 0.242500
vt 0.503333 0.241667
vt 0.506667 0.240833
vt 0.510000 0.240000
vt 0.377500 0.746250
vt 0.380000 0.747500
vt 0.375000 0.745000
vt 0.382500 0.748750
vt 0.609687 0.749375
vt 0.608125 0.746250
vt 0.606562 0.743125
vt 0.382500 0.501250
vt 0.380000 0.502500
vt 0.377500 0.503750
vt 0.375000 0.505000
vt 0.373125 0.506875
vt 0.376250 0.503750
vt 0.370000 0.510000
vt 0.379375 0.500625
vt 0.620000 0.495000
vt 0.606563 0.506875
vt 0.608125 0.503750
vt 0.605000 0.510000
vt 0.609688 0.500625
vt 0.498125 0.505625
vt 0.496250 0.501250
vt 0.500000 0.510000
vt 0.494375 0.496875
vt 0.492500 0.492500
vt 0.505625 0.744375
vt 0.501250 0.748750
vt 0.510000 0.740000
vt 0.496875 0.753125
vt 0.492500 0.757500
vt 0.528750 0.000000
vt 0.557500 0.000000
vt 0.586250 0.000000
vt 0.536250 0.240000
vt 0.562500 0.240000
vt 0.588750 0.240000
vt 0.497500 0.185000
vt 0.498333 0.126667
vt 0.499167 0.068333
vt 0.471250 0.258500
vt 0.442500 0.259000
vt 0.413750 0.259500
vt 0.135000 0.740000
vt 0.463750 1.000000
vt 0.437500 1.000000
vt 0.490000 1.000000
vt 0.411250 1.000000
vt 0.681250 0.496250
vt 0.742500 0.497500
vt 0.803750 0.498750
vt 0.865000 0.500000
vt 0.524375 0.493125
vt 0.556250 0.493750
vt 0.588125 0.494375
vt 0.371250 0.440000
vt 0.372500 0.380000
vt 0.373750 0.320000
vt 0.500000 0.682500
vt 0.500000 0.625000
vt 0.500000 0.567500
vt 0.536250 0.740000
vt 0.562500 0.740000
vt 0.588750 0.740000
vt 0.690625 0.740000
vt 0.748750 0.740000
vt 0.806875 0.740000
vt 0.865000 0.740000
vt 0.375000 0.565000
vt 0.375000 0.685000
vt 0.715938 0.510000
vt 0.686875 0.510000
vt 0.745000 0.510000
vt 0.657813 0.510000
vt 0.349375 0.751875
vt 0.316250 0.751250
vt 0.283125 0.750625
vt 0.250000 0.750000
vt 0.715312 0.750625
vt 0.680625 0.751250
vt 0.750000 0.750000
vt 0.645937 0.751875
vt 0.311250 0.747500
vt 0.193750 0.742500
vt 0.605000 0.067500
vt 0.605000 0.125000
vt 0.605000 0.010000
vt 0.605000 0.182500
vt 0.605000 0.240000
vt 0.442708 0.770833
vt 0.447917 0.791667
vt 0.437500 0.750000
vt 0.453125 0.812500
vt 0.500000 0.990000
vt 0.578750 0.878750
vt 0.552500 0.877500
vt 0.605000 0.880000
vt 0.526250 0.876250
vt 0.745000 0.567500
vt 0.745000 0.625000
vt 0.745000 0.682500
vt 0.745000 0.740000
vt 0.385625 0.466875
vt 0.388750 0.436250
vt 0.391875 0.405625
vt 0.395000 0.375000
vt 0.451250 0.751875
vt 0.465000 0.753750
vt 0.478750 0.755625
vt 0.127500 0.510000
vt 0.130000 0.510000
vt 0.125000 0.510000
vt 0.132500 0.510000
vt 0.497500 0.992500
vt 0.495000 0.995000
vt 0.492500 0.997500
vt 0.748750 0.502500
vt 0.747500 0.505000
vt 0.750000 0.500000
vt 0.746250 0.507500
vt 0.746250 0.742500
vt 0.747500 0.745000
vt 0.748750 0.747500
vt 0.447500 0.010000
vt 0.500000 0.010000
vt 0.395000 0.010000
vt 0.552500 0.010000
vt 0.865000 0.567500
vt 0.865000 0.625000
vt 0.865000 0.682500
vt 0.616250 0.316250
vt 0.617500 0.375833
vt 0.618750 0.435417
s 0
usemtl 
f 4/1/1 349/2/1 201/3/1
f 7/4/2 352/5/2 204/6/2
f 10/7/3 355/8/3 207/9/3
f 13/10/4 358/11/4 210/12/4
f 16/13/5 361/14/5 213/15/5
f 19/16/6 364/17/6 216/18/6
f 22/19/7 367/20/7 219/21/7
f 25/22/8 370/23/8 222/24/8
f 28/25/9 373/26/9 225/27/9
f 31/28/9 376/29/9 228/30/9
f 34/31/10 379/32/10 231/33/10
f 37/34/11 382/35/11 234/36/11
f 40/37/12 385/38/12 237/39/12
f 43/40/12 388/41/12 240/42/12
f 46/43/13 391/44/13 243/45/13
f 49/46/14 394/47/14 246/48/14
f 9/49/3 303/50/3 351/51/3
f 8/52/15 304/53/15 353/54/15
f 17/55/6 305/56/6 362/57/6
f 10/7/16 306/58/16 355/8/16
f 15/59/6 307/60/6 357/61/6
f 6/62/17 308/63/17 348/64/17
f 5/65/3 309/66/3 350/67/3
f 16/68/18 310/69/18 361/70/18
f 41/71/19 311/72/19 386/73/19
f 13/10/10 312/74/10 358/11/10
f 46/43/20 313/75/20 391/44/20
f 30/76/20 314/77/20 372/78/20
f 29/79/21 315/80/21 374/81/21
f 7/82/22 316/83/22 352/84/22
f 4/1/7 317/85/7 349/2/7
f 22/19/23 318/86/23 367/20/23
f 45/87/18 319/88/18 387/89/18
f 39/90/19 320/91/19 381/92/19
f 35/93/10 321/94/10 380/95/10
f 25/22/24 322/96/24 370/23/24
f 33/97/20 323/98/20 375/99/20
f 26/100/21 324/101/21 371/102/21
f 23/103/7 325/104/7 368/105/7
f 31/28/22 326/106/22 376/29/22
f 14/107/23 327/108/23 407/109/23
f 15/59/16 328/110/16 404/111/16
f 24/112/25 445/113/25 478/114/25
f 7/115/25 250/116/25 480/117/25
f 9/49/16 334/118/16 396/119/16
f 40/37/26 335/120/26 419/121/26
f 35/122/27 336/123/27 300/124/27
f 19/16/27 337/125/27 448/126/27
f 36/127/23 338/128/23 427/129/23
f 32/130/25 296/131/25 487/132/25
f 37/34/28 341/133/28 435/134/28
f 46/43/28 342/135/28 416/136/28
f 31/28/26 343/137/26 442/138/26
f 48/139/27 344/140/27 447/141/27
f 2/142/25 345/143/25 446/144/25
f 9/49/3 396/119/3 303/50/3
f 8/52/15 398/145/15 304/53/15
f 17/55/6 400/146/6 305/56/6
f 10/7/16 402/147/16 306/58/16
f 15/59/6 404/148/6 307/60/6
f 6/62/17 406/149/17 308/63/17
f 5/65/3 408/150/3 309/66/3
f 16/68/18 410/151/18 310/69/18
f 41/71/19 412/152/19 311/72/19
f 13/10/10 414/153/10 312/74/10
f 46/43/20 416/136/20 313/75/20
f 30/76/20 418/154/20 314/77/20
f 29/79/21 420/155/21 315/80/21
f 7/82/22 422/156/22 316/83/22
f 4/1/7 424/157/7 317/85/7
f 22/19/23 426/158/23 318/86/23
f 45/87/18 428/159/18 319/88/18
f 39/90/19 430/160/19 320/91/19
f 35/93/10 432/161/10 321/94/10
f 25/22/24 434/162/24 322/96/24
f 33/97/20 436/163/20 323/98/20
f 26/100/21 438/164/21 324/101/21
f 23/103/7 440/165/7 325/104/7
f 31/28/22 442/138/22 326/106/22
f 14/107/23 268/166/23 327/108/23
f 15/59/16 259/167/16 328/110/16
f 3/168/25 199/169/25 329/170/25
f 2/142/25 444/171/25 477/172/25
f 5/65/25 278/173/25 476/174/25
f 2/142/25 446/144/25 332/175/25
f 29/79/25 275/176/25 479/177/25
f 9/49/16 252/178/16 334/118/16
f 40/37/26 263/179/26 335/120/26
f 35/122/27 267/180/27 336/123/27
f 19/16/27 253/181/27 337/125/27
f 36/127/23 286/182/23 338/128/23
f 24/183/25 294/184/25 445/185/25
f 27/186/25 292/187/25 486/188/25
f 37/34/28 284/189/28 341/133/28
f 46/43/28 265/190/28 342/135/28
f 31/28/26 290/191/26 343/137/26
f 48/139/27 281/192/27 344/140/27
f 2/142/25 346/193/25 345/143/25
f 198/194/25 493/195/25 492/196/25
f 198/194/25 494/197/25 493/195/25
f 52/198/25 199/169/25 495/199/25
f 197/200/27 496/201/27 491/202/27
f 197/200/27 497/203/27 496/201/27
f 134/204/27 428/205/27 498/206/27
f 196/207/26 499/208/26 490/209/26
f 196/207/26 500/210/26 499/208/26
f 143/211/26 437/212/26 501/213/26
f 195/214/28 502/215/28 489/216/28
f 195/214/28 503/217/28 502/215/28
f 118/218/28 412/152/28 504/219/28
f 194/220/28 505/221/28 488/222/28
f 194/220/28 506/223/28 505/221/28
f 137/224/28 431/225/28 507/226/28
f 192/227/25 508/228/25 339/229/25
f 192/227/25 509/230/25 508/228/25
f 145/231/25 439/232/25 510/233/25
f 151/234/25 511/235/25 298/236/25
f 151/234/25 512/237/25 511/235/25
f 147/238/25 441/239/25 513/240/25
f 191/241/23 514/242/23 485/243/23
f 191/241/23 515/244/23 514/242/23
f 139/245/23 433/246/23 516/247/23
f 190/248/27 517/249/27 484/250/27
f 190/248/27 518/251/27 517/249/27
f 106/252/27 400/146/27 519/253/27
f 189/254/27 520/255/27 483/256/27
f 189/254/27 521/257/27 520/255/27
f 120/258/27 414/153/27 522/259/27
f 188/260/26 523/261/26 482/262/26
f 188/260/26 524/263/26 523/261/26
f 116/264/26 410/151/26 525/265/26
f 187/266/16 526/267/16 481/268/16
f 187/266/16 527/269/16 526/267/16
f 105/270/16 399/271/16 528/272/16
f 185/273/25 529/274/25 332/175/25
f 185/273/25 530/275/25 529/274/25
f 128/276/25 422/277/25 531/278/25
f 185/273/25 532/279/25 479/177/25
f 185/273/25 533/280/25 532/279/25
f 152/281/25 299/282/25 534/283/25
f 182/284/25 535/285/25 329/170/25
f 182/284/25 536/286/25 535/285/25
f 131/287/25 425/288/25 537/289/25
f 183/290/25 538/291/25 330/292/25
f 183/290/25 539/293/25 538/291/25
f 150/294/25 297/295/25 540/296/25
f 182/284/25 541/297/25 476/174/25
f 182/284/25 542/298/25 541/297/25
f 52/198/25 346/193/25 543/299/25
f 181/300/16 544/301/16 475/302/16
f 181/300/16 545/303/16 544/301/16
f 112/304/16 406/305/16 546/306/16
f 180/307/23 547/308/23 474/309/23
f 180/307/23 548/310/23 547/308/23
f 121/311/23 415/312/23 549/313/23
f 179/314/22 550/315/22 473/316/22
f 179/314/22 551/317/22 550/315/22
f 148/318/22 295/319/22 552/320/22
f 178/321/7 553/322/7 472/323/7
f 178/321/7 554/324/7 553/322/7
f 146/325/7 293/326/7 555/327/7
f 177/328/21 556/329/21 471/330/21
f 177/328/21 557/331/21 556/329/21
f 144/332/21 291/333/21 558/334/21
f 176/335/20 559/336/20 470/337/20
f 176/335/20 560/338/20 559/336/20
f 142/339/20 289/340/20 561/341/20
f 175/342/24 562/343/24 469/344/24
f 175/342/24 563/345/24 562/343/24
f 140/346/24 287/347/24 564/348/24
f 174/349/10 565/350/10 468/351/10
f 174/349/10 566/352/10 565/350/10
f 138/353/10 285/354/10 567/355/10
f 173/356/19 568/357/19 467/358/19
f 173/356/19 569/359/19 568/357/19
f 136/360/19 283/361/19 570/362/19
f 172/363/18 571/364/18 466/365/18
f 172/363/18 572/366/18 571/364/18
f 134/367/18 281/368/18 573/369/18
f 171/370/23 574/371/23 465/372/23
f 171/370/23 575/373/23 574/371/23
f 132/346/23 279/374/23 576/375/23
f 170/376/7 577/377/7 464/378/7
f 170/376/7 578/379/7 577/377/7
f 130/380/7 277/381/7 579/382/7
f 169/383/22 580/384/22 463/385/22
f 169/383/22 581/386/22 580/384/22
f 128/387/22 275/388/22 582/389/22
f 168/390/21 583/391/21 462/392/21
f 168/390/21 584/393/21 583/391/21
f 126/394/21 273/395/21 585/396/21
f 167/397/20 586/398/20 461/399/20
f 167/397/20 587/400/20 586/398/20
f 124/401/20 271/402/20 588/403/20
f 166/404/20 589/405/20 460/406/20
f 166/404/20 590/407/20 589/405/20
f 122/408/20 269/409/20 591/410/20
f 165/411/10 592/412/10 459/413/10
f 165/411/10 593/414/10 592/412/10
f 120/258/10 267/180/10 594/415/10
f 164/416/19 595/417/19 458/418/19
f 164/416/19 596/419/19 595/417/19
f 118/218/19 265/190/19 597/420/19
f 163/421/18 598/422/18 457/423/18
f 163/421/18 599/424/18 598/422/18
f 116/264/18 263/179/18 600/425/18
f 162/426/3 601/427/3 456/428/3
f 162/426/3 602/429/3 601/427/3
f 114/430/3 261/431/3 603/432/3
f 161/433/17 604/434/17 455/435/17
f 161/433/17 605/436/17 604/434/17
f 112/437/17 259/438/17 606/439/17
f 160/440/6 607/441/6 454/442/6
f 160/440/6 608/443/6 607/441/6
f 110/111/6 257/444/6 609/445/6
f 159/446/16 610/447/16 453/448/16
f 159/446/16 611/449/16 610/447/16
f 108/450/16 255/451/16 612/452/16
f 158/453/6 613/454/6 452/455/6
f 158/453/6 614/456/6 613/454/6
f 106/252/6 253/181/6 615/457/6
f 157/458/15 616/459/15 451/460/15
f 157/458/15 617/461/15 616/459/15
f 104/462/15 251/463/15 618/464/15
f 156/465/3 619/466/3 450/467/3
f 156/465/3 620/468/3 619/466/3
f 102/469/3 249/470/3 621/471/3
f 152/281/25 622/472/25 299/282/25
f 152/281/25 623/473/25 622/472/25
f 198/194/25 492/196/25 624/474/25
f 153/475/27 625/476/27 300/477/27
f 153/475/27 626/478/27 625/476/27
f 197/200/27 491/202/27 627/479/27
f 148/318/26 628/480/26 295/319/26
f 148/318/26 629/481/26 628/480/26
f 196/207/26 490/209/26 630/482/26
f 122/408/28 631/483/28 269/409/28
f 122/408/28 632/484/28 631/483/28
f 195/214/28 489/216/28 633/485/28
f 141/486/28 634/487/28 288/488/28
f 141/486/28 635/489/28 634/487/28
f 194/220/28 488/222/28 636/490/28
f 193/491/25 637/492/25 340/493/25
f 193/491/25 638/494/25 637/492/25
f 149/495/25 443/496/25 639/497/25
f 133/498/23 640/499/23 280/500/23
f 133/498/23 641/501/23 640/499/23
f 191/241/23 485/243/23 642/502/23
f 154/503/27 643/504/27 301/505/27
f 154/503/27 644/506/27 643/504/27
f 190/248/27 484/250/27 645/507/27
f 153/508/27 646/509/27 447/510/27
f 153/508/27 647/511/27 646/509/27
f 189/254/27 483/256/27 648/512/27
f 125/513/26 649/514/26 272/515/26
f 125/513/26 650/516/26 649/514/26
f 188/260/26 482/262/26 651/517/26
f 102/469/16 652/518/16 249/470/16
f 102/469/16 653/519/16 652/518/16
f 187/266/16 481/268/16 654/520/16
f 186/521/25 655/522/25 333/523/25
f 186/521/25 656/524/25 655/522/25
f 103/525/25 397/526/25 657/527/25
f 184/528/25 658/529/25 331/530/25
f 184/528/25 659/531/25 658/529/25
f 151/532/25 298/533/25 660/534/25
f 110/535/16 661/536/16 257/537/16
f 110/535/16 662/538/16 661/536/16
f 181/300/16 475/302/16 663/539/16
f 113/540/23 664/541/23 260/542/23
f 113/540/23 665/543/23 664/541/23
f 180/307/23 474/309/23 666/544/23
f 82/545/22 667/546/22 229/547/22
f 82/545/22 668/548/22 667/546/22
f 179/314/22 473/316/22 669/549/22
f 74/550/7 670/551/7 221/552/7
f 74/550/7 671/553/7 670/551/7
f 178/321/7 472/323/7 672/554/7
f 77/555/21 673/556/21 224/557/21
f 77/555/21 674/558/21 673/556/21
f 177/328/21 471/330/21 675/559/21
f 81/560/20 676/561/20 228/30/20
f 81/560/20 677/562/20 676/561/20
f 176/335/20 470/337/20 678/563/20
f 76/564/24 679/565/24 223/566/24
f 76/564/24 680/567/24 679/565/24
f 175/342/24 469/344/24 681/568/24
f 86/311/10 682/569/10 233/570/10
f 86/311/10 683/571/10 682/569/10
f 174/349/10 468/351/10 684/572/10
f 87/573/19 685/574/19 234/36/19
f 87/573/19 686/575/19 685/574/19
f 173/356/19 467/358/19 687/576/19
f 93/577/18 688/578/18 240/42/18
f 93/577/18 689/579/18 688/578/18
f 172/363/18 466/365/18 690/580/18
f 73/581/23 691/582/23 220/583/23
f 73/581/23 692/584/23 691/582/23
f 171/370/23 465/372/23 693/585/23
f 55/586/7 694/587/7 202/588/7
f 55/586/7 695/589/7 694/587/7
f 170/376/7 464/378/7 696/590/7
f 58/591/22 697/592/22 205/593/22
f 58/591/22 698/594/22 697/592/22
f 169/383/22 463/385/22 699/595/22
f 80/596/21 700/597/21 227/598/21
f 80/596/21 701/599/21 700/597/21
f 168/390/21 462/392/21 702/600/21
f 78/601/20 703/602/20 225/27/20
f 78/601/20 704/603/20 703/602/20
f 167/397/20 461/399/20 705/604/20
f 97/605/20 706/606/20 244/607/20
f 97/605/20 707/608/20 706/606/20
f 166/404/20 460/406/20 708/609/20
f 64/610/10 709/611/10 211/612/10
f 64/610/10 710/613/10 709/611/10
f 165/411/10 459/413/10 711/614/10
f 92/615/19 712/616/19 239/617/19
f 92/615/19 713/618/19 712/616/19
f 164/416/19 458/418/19 714/619/19
f 67/620/18 715/621/18 214/622/18
f 67/620/18 716/623/18 715/621/18
f 163/421/18 457/423/18 717/624/18
f 56/625/3 718/626/3 203/627/3
f 56/625/3 719/628/3 718/626/3
f 162/426/3 456/428/3 720/629/3
f 54/630/17 721/631/17 201/632/17
f 54/630/17 722/633/17 721/631/17
f 161/433/17 455/435/17 723/634/17
f 63/635/6 724/636/6 210/12/6
f 63/635/6 725/637/6 724/636/6
f 160/440/6 454/442/6 726/638/6
f 61/639/16 727/640/16 208/641/16
f 61/639/16 728/642/16 727/640/16
f 159/446/16 453/448/16 729/643/16
f 68/644/6 730/645/6 215/646/6
f 68/644/6 731/647/6 730/645/6
f 158/453/6 452/455/6 732/648/6
f 59/649/15 733/650/15 206/651/15
f 59/649/15 734/652/15 733/650/15
f 157/458/15 451/460/15 735/653/15
f 57/654/3 736/655/3 204/6/3
f 57/654/3 737/656/3 736/655/3
f 156/465/3 450/467/3 738/657/3
f 99/658/14 739/659/14 393/660/14
f 99/658/14 740/661/14 739/659/14
f 100/662/14 247/663/14 741/664/14
f 96/665/13 742/666/13 390/667/13
f 96/665/13 743/668/13 742/666/13
f 97/605/13 244/607/13 744/669/13
f 93/577/12 745/670/12 387/89/12
f 93/577/12 746/671/12 745/670/12
f 94/672/12 241/673/12 747/674/12
f 90/675/12 748/676/12 384/677/12
f 90/675/12 749/678/12 748/676/12
f 91/679/12 238/680/12 750/681/12
f 87/573/11 751/682/11 381/92/11
f 87/573/11 752/683/11 751/682/11
f 88/684/11 235/685/11 753/686/11
f 84/687/10 754/688/10 378/689/10
f 84/687/10 755/690/10 754/688/10
f 85/691/10 232/692/10 756/693/10
f 81/560/9 757/694/9 375/99/9
f 81/560/9 758/695/9 757/694/9
f 82/545/9 229/547/9 759/696/9
f 78/601/9 760/697/9 372/78/9
f 78/601/9 761/698/9 760/697/9
f 79/699/9 226/700/9 762/701/9
f 75/702/8 763/703/8 369/704/8
f 75/702/8 764/705/8 763/703/8
f 76/564/8 223/566/8 765/706/8
f 72/707/7 766/708/7 366/709/7
f 72/707/7 767/710/7 766/708/7
f 73/581/7 220/583/7 768/711/7
f 69/712/6 769/713/6 363/714/6
f 69/712/6 770/715/6 769/713/6
f 70/716/6 217/717/6 771/718/6
f 66/719/5 772/720/5 360/721/5
f 66/719/5 773/722/5 772/720/5
f 67/723/5 214/724/5 774/725/5
f 63/635/4 775/726/4 357/61/4
f 63/635/4 776/727/4 775/726/4
f 64/610/4 211/612/4 777/728/4
f 60/729/3 778/730/3 354/731/3
f 60/729/3 779/732/3 778/730/3
f 61/639/3 208/641/3 780/733/3
f 57/654/2 781/734/2 351/51/2
f 57/654/2 782/735/2 781/734/2
f 58/736/2 205/737/2 783/738/2
f 54/739/1 784/740/1 348/741/1
f 54/739/1 785/742/1 784/740/1
f 55/586/1 202/588/1 786/743/1
f 786/743/1 350/67/1 56/625/1
f 786/743/1 202/588/1 350/67/1
f 202/588/1 5/65/1 350/67/1
f 784/740/1 786/743/1 56/625/1
f 784/740/1 785/742/1 786/743/1
f 785/742/1 55/586/1 786/743/1
f 348/741/1 203/627/1 6/744/1
f 348/741/1 784/740/1 203/627/1
f 784/740/1 56/625/1 203/627/1
f 783/738/2 353/54/2 59/649/2
f 783/738/2 205/737/2 353/54/2
f 205/737/2 8/52/2 353/54/2
f 781/734/2 783/738/2 59/649/2
f 781/734/2 782/735/2 783/738/2
f 782/735/2 58/736/2 783/738/2
f 351/51/2 206/651/2 9/49/2
f 351/51/2 781/734/2 206/651/2
f 781/734/2 59/649/2 206/651/2
f 780/733/3 356/745/3 62/746/3
f 780/733/3 208/641/3 356/745/3
f 208/641/3 11/747/3 356/745/3
f 778/730/3 780/733/3 62/746/3
f 778/730/3 779/732/3 780/733/3
f 779/732/3 61/639/3 780/733/3
f 354/731/3 209/748/3 12/749/3
f 354/731/3 778/730/3 209/748/3
f 778/730/3 62/746/3 209/748/3
f 777/728/4 359/750/4 65/751/4
f 777/728/4 211/612/4 359/750/4
f 211/612/4 14/752/4 359/750/4
f 775/726/4 777/728/4 65/751/4
f 775/726/4 776/727/4 777/728/4
f 776/727/4 64/610/4 777/728/4
f 357/61/4 212/753/4 15/59/4
f 357/61/4 775/726/4 212/753/4
f 775/726/4 65/751/4 212/753/4
f 774/725/5 362/57/5 68/644/5
f 774/725/5 214/724/5 362/57/5
f 214/724/5 17/55/5 362/57/5
f 772/720/5 774/725/5 68/644/5
f 772/720/5 773/722/5 774/725/5
f 773/722/5 67/723/5 774/725/5
f 360/721/5 215/646/5 18/754/5
f 360/721/5 772/720/5 215/646/5
f 772/720/5 68/644/5 215/646/5
f 771/718/6 365/755/6 71/756/6
f 771/718/6 217/717/6 365/755/6
f 217/717/6 20/535/6 365/755/6
f 769/713/6 771/718/6 71/756/6
f 769/713/6 770/715/6 771/718/6
f 770/715/6 70/716/6 771/718/6
f 363/714/6 218/757/6 21/758/6
f 363/714/6 769/713/6 218/757/6
f 769/713/6 71/756/6 218/757/6
f 768/711/7 368/759/7 74/760/7
f 768/711/7 220/583/7 368/759/7
f 220/583/7 23/761/7 368/759/7
f 766/708/7 768/711/7 74/760/7
f 766/708/7 767/710/7 768/711/7
f 767/710/7 73/581/7 768/711/7
f 366/709/7 221/762/7 24/112/7
f 366/709/7 766/708/7 221/762/7
f 766/708/7 74/760/7 221/762/7
f 765/706/8 371/102/8 77/555/8
f 765/706/8 223/566/8 371/102/8
f 223/566/8 26/100/8 371/102/8
f 763/703/8 765/706/8 77/555/8
f 763/703/8 764/705/8 765/706/8
f 764/705/8 76/564/8 765/706/8
f 369/704/8 224/557/8 27/186/8
f 369/704/8 763/703/8 224/557/8
f 763/703/8 77/555/8 224/557/8
f 762/701/9 374/81/9 80/596/9
f 762/701/9 226/700/9 374/81/9
f 226/700/9 29/79/9 374/81/9
f 760/697/9 762/701/9 80/596/9
f 760/697/9 761/698/9 762/701/9
f 761/698/9 79/699/9 762/701/9
f 372/78/9 227/598/9 30/76/9
f 372/78/9 760/697/9 227/598/9
f 760/697/9 80/596/9 227/598/9
f 759/696/9 377/763/9 83/764/9
f 759/696/9 229/547/9 377/763/9
f 229/547/9 32/130/9 377/763/9
f 757/694/9 759/696/9 83/764/9
f 757/694/9 758/695/9 759/696/9
f 758/695/9 82/545/9 759/696/9
f 375/99/9 230/765/9 33/97/9
f 375/99/9 757/694/9 230/765/9
f 757/694/9 83/764/9 230/765/9
f 756/693/10 380/766/10 86/767/10
f 756/693/10 232/692/10 380/766/10
f 232/692/10 35/122/10 380/766/10
f 754/688/10 756/693/10 86/767/10
f 754/688/10 755/690/10 756/693/10
f 755/690/10 85/691/10 756/693/10
f 378/689/10 233/768/10 36/769/10
f 378/689/10 754/688/10 233/768/10
f 754/688/10 86/767/10 233/768/10
f 753/686/11 383/770/11 89/771/11
f 753/686/11 235/685/11 383/770/11
f 235/685/11 38/772/11 383/770/11
f 751/682/11 753/686/11 89/771/11
f 751/682/11 752/683/11 753/686/11
f 752/683/11 88/684/11 753/686/11
f 381/92/11 236/773/11 39/90/11
f 381/92/11 751/682/11 236/773/11
f 751/682/11 89/771/11 236/773/11
f 750/681/12 386/73/12 92/615/12
f 750/681/12 238/680/12 386/73/12
f 238/680/12 41/71/12 386/73/12
f 748/676/12 750/681/12 92/615/12
f 748/676/12 749/678/12 750/681/12
f 749/678/12 91/679/12 750/681/12
f 384/677/12 239/617/12 42/774/12
f 384/677/12 748/676/12 239/617/12
f 748/676/12 92/615/12 239/617/12
f 747/674/12 389/775/12 95/776/12
f 747/674/12 241/673/12 389/775/12
f 241/673/12 44/777/12 389/775/12
f 745/670/12 747/674/12 95/776/12
f 745/670/12 746/671/12 747/674/12
f 746/671/12 94/672/12 747/674/12
f 387/89/12 242/778/12 45/87/12
f 387/89/12 745/670/12 242/778/12
f 745/670/12 95/776/12 242/778/12
f 744/669/13 392/779/13 98/780/13
f 744/669/13 244/607/13 392/779/13
f 244/607/13 47/781/13 392/779/13
f 742/666/13 744/669/13 98/780/13
f 742/666/13 743/668/13 744/669/13
f 743/668/13 97/605/13 744/669/13
f 390/667/13 245/782/13 48/783/13
f 390/667/13 742/666/13 245/782/13
f 742/666/13 98/780/13 245/782/13
f 741/664/14 395/784/14 101/785/14
f 741/664/14 247/663/14 395/784/14
f 247/663/14 50/786/14 395/784/14
f 739/659/14 741/664/14 101/785/14
f 739/659/14 740/661/14 741/664/14
f 740/661/14 100/662/14 741/664/14
f 393/660/14 248/787/14 51/788/14
f 393/660/14 739/659/14 248/787/14
f 739/659/14 101/785/14 248/787/14
f 738/657/3 397/789/3 103/790/3
f 738/657/3 450/467/3 397/789/3
f 450/467/3 12/749/3 397/789/3
f 736/655/3 738/657/3 103/790/3
f 736/655/3 737/656/3 738/657/3
f 737/656/3 156/465/3 738/657/3
f 204/6/3 250/791/3 7/4/3
f 204/6/3 736/655/3 250/791/3
f 736/655/3 103/790/3 250/791/3
f 735/653/15 399/271/15 105/270/15
f 735/653/15 451/460/15 399/271/15
f 451/460/15 18/754/15 399/271/15
f 733/650/15 735/653/15 105/270/15
f 733/650/15 734/652/15 735/653/15
f 734/652/15 157/458/15 735/653/15
f 206/651/15 252/178/15 9/49/15
f 206/651/15 733/650/15 252/178/15
f 733/650/15 105/270/15 252/178/15
f 732/648/6 401/792/6 107/793/6
f 732/648/6 452/455/6 401/792/6
f 452/455/6 21/758/6 401/792/6
f 730/645/6 732/648/6 107/793/6
f 730/645/6 731/647/6 732/648/6
f 731/647/6 158/453/6 732/648/6
f 215/646/6 254/794/6 18/754/6
f 215/646/6 730/645/6 254/794/6
f 730/645/6 107/793/6 254/794/6
f 729/643/16 403/795/16 109/796/16
f 729/643/16 453/448/16 403/795/16
f 453/448/16 20/535/16 403/795/16
f 727/640/16 729/643/16 109/796/16
f 727/640/16 728/642/16 729/643/16
f 728/642/16 159/446/16 729/643/16
f 208/641/16 256/797/16 11/747/16
f 208/641/16 727/640/16 256/797/16
f 727/640/16 109/796/16 256/797/16
f 726/638/6 405/798/6 111/799/6
f 726/638/6 454/442/6 405/798/6
f 454/442/6 19/16/6 405/798/6
f 724/636/6 726/638/6 111/799/6
f 724/636/6 725/637/6 726/638/6
f 725/637/6 160/440/6 726/638/6
f 210/12/6 258/800/6 13/10/6
f 210/12/6 724/636/6 258/800/6
f 724/636/6 111/799/6 258/800/6
f 723/634/17 407/109/17 113/540/17
f 723/634/17 455/435/17 407/109/17
f 455/435/17 14/107/17 407/109/17
f 721/631/17 723/634/17 113/540/17
f 721/631/17 722/633/17 723/634/17
f 722/633/17 161/433/17 723/634/17
f 201/632/17 260/542/17 4/801/17
f 201/632/17 721/631/17 260/542/17
f 721/631/17 113/540/17 260/542/17
f 720/629/3 409/802/3 115/803/3
f 720/629/3 456/428/3 409/802/3
f 456/428/3 11/804/3 409/802/3
f 718/626/3 720/629/3 115/803/3
f 718/626/3 719/628/3 720/629/3
f 719/628/3 162/426/3 720/629/3
f 203/627/3 262/805/3 6/744/3
f 203/627/3 718/626/3 262/805/3
f 718/626/3 115/803/3 262/805/3
f 717/624/18 411/806/18 117/807/18
f 717/624/18 457/423/18 411/806/18
f 457/423/18 42/774/18 411/806/18
f 715/621/18 717/624/18 117/807/18
f 715/621/18 716/623/18 717/624/18
f 716/623/18 163/421/18 717/624/18
f 214/622/18 264/808/18 17/809/18
f 214/622/18 715/621/18 264/808/18
f 715/621/18 117/807/18 264/808/18
f 714/619/19 413/810/19 119/811/19
f 714/619/19 458/418/19 413/810/19
f 458/418/19 48/783/19 413/810/19
f 712/616/19 714/619/19 119/811/19
f 712/616/19 713/618/19 714/619/19
f 713/618/19 164/416/19 714/619/19
f 239/617/19 266/812/19 42/774/19
f 239/617/19 712/616/19 266/812/19
f 712/616/19 119/811/19 266/812/19
f 711/614/10 415/813/10 121/814/10
f 711/614/10 459/413/10 415/813/10
f 459/413/10 34/31/10 415/813/10
f 709/611/10 711/614/10 121/814/10
f 709/611/10 710/613/10 711/614/10
f 710/613/10 165/411/10 711/614/10
f 211/612/10 268/815/10 14/752/10
f 211/612/10 709/611/10 268/815/10
f 709/611/10 121/814/10 268/815/10
f 708/609/20 417/816/20 123/817/20
f 708/609/20 460/406/20 417/816/20
f 460/406/20 49/46/20 417/816/20
f 706/606/20 708/609/20 123/817/20
f 706/606/20 707/608/20 708/609/20
f 707/608/20 166/404/20 708/609/20
f 244/607/20 270/818/20 47/781/20
f 244/607/20 706/606/20 270/818/20
f 706/606/20 123/817/20 270/818/20
f 705/604/20 419/121/20 125/513/20
f 705/604/20 461/399/20 419/121/20
f 461/399/20 40/37/20 419/121/20
f 703/602/20 705/604/20 125/513/20
f 703/602/20 704/603/20 705/604/20
f 704/603/20 167/397/20 705/604/20
f 225/27/20 272/515/20 28/25/20
f 225/27/20 703/602/20 272/515/20
f 703/602/20 125/513/20 272/515/20
f 702/600/21 421/819/21 127/820/21
f 702/600/21 462/392/21 421/819/21
f 462/392/21 50/786/21 421/819/21
f 700/597/21 702/600/21 127/820/21
f 700/597/21 701/599/21 702/600/21
f 701/599/21 168/390/21 702/600/21
f 227/598/21 274/821/21 30/76/21
f 227/598/21 700/597/21 274/821/21
f 700/597/21 127/820/21 274/821/21
f 699/595/22 423/822/22 129/823/22
f 699/595/22 463/385/22 423/822/22
f 463/385/22 28/25/22 423/822/22
f 697/592/22 699/595/22 129/823/22
f 697/592/22 698/594/22 699/595/22
f 698/594/22 169/383/22 699/595/22
f 205/593/22 276/824/22 8/825/22
f 205/593/22 697/592/22 276/824/22
f 697/592/22 129/823/22 276/824/22
f 696/590/7 425/288/7 131/287/7
f 696/590/7 464/378/7 425/288/7
f 464/378/7 24/112/7 425/288/7
f 694/587/7 696/590/7 131/287/7
f 694/587/7 695/589/7 696/590/7
f 695/589/7 170/376/7 696/590/7
f 202/588/7 278/173/7 5/65/7
f 202/588/7 694/587/7 278/173/7
f 694/587/7 131/287/7 278/173/7
f 693/585/23 427/826/23 133/345/23
f 693/585/23 465/372/23 427/826/23
f 465/372/23 36/769/23 427/826/23
f 691/582/23 693/585/23 133/345/23
f 691/582/23 692/584/23 693/585/23
f 692/584/23 171/370/23 693/585/23
f 220/583/23 280/827/23 23/761/23
f 220/583/23 691/582/23 280/827/23
f 691/582/23 133/345/23 280/827/23
f 690/580/18 429/828/18 135/829/18
f 690/580/18 466/365/18 429/828/18
f 466/365/18 47/830/18 429/828/18
f 688/578/18 690/580/18 135/829/18
f 688/578/18 689/579/18 690/580/18
f 689/579/18 172/363/18 690/580/18
f 240/42/18 282/831/18 43/40/18
f 240/42/18 688/578/18 282/831/18
f 688/578/18 135/829/18 282/831/18
f 687/576/19 431/225/19 137/224/19
f 687/576/19 467/358/19 431/225/19
f 467/358/19 44/777/19 431/225/19
f 685/574/19 687/576/19 137/224/19
f 685/574/19 686/575/19 687/576/19
f 686/575/19 173/356/19 687/576/19
f 234/36/19 284/189/19 37/34/19
f 234/36/19 685/574/19 284/189/19
f 685/574/19 137/224/19 284/189/19
f 684/572/10 433/246/10 139/245/10
f 684/572/10 468/351/10 433/246/10
f 468/351/10 38/772/10 433/246/10
f 682/569/10 684/572/10 139/245/10
f 682/569/10 683/571/10 684/572/10
f 683/571/10 174/349/10 684/572/10
f 233/570/10 286/182/10 36/127/10
f 233/570/10 682/569/10 286/182/10
f 682/569/10 139/245/10 286/182/10
f 681/568/24 435/134/24 141/486/24
f 681/568/24 469/344/24 435/134/24
f 469/344/24 37/34/24 435/134/24
f 679/565/24 681/568/24 141/486/24
f 679/565/24 680/567/24 681/568/24
f 680/567/24 175/342/24 681/568/24
f 223/566/24 288/488/24 26/100/24
f 223/566/24 679/565/24 288/488/24
f 679/565/24 141/486/24 288/488/24
f 678/563/20 437/212/20 143/211/20
f 678/563/20 470/337/20 437/212/20
f 470/337/20 43/40/20 437/212/20
f 676/561/20 678/563/20 143/211/20
f 676/561/20 677/562/20 678/563/20
f 677/562/20 176/335/20 678/563/20
f 228/30/20 290/191/20 31/28/20
f 228/30/20 676/561/20 290/191/20
f 676/561/20 143/211/20 290/191/20
f 675/559/21 439/232/21 145/231/21
f 675/559/21 471/330/21 439/232/21
f 471/330/21 32/130/21 439/232/21
f 673/556/21 675/559/21 145/231/21
f 673/556/21 674/558/21 675/559/21
f 674/558/21 177/328/21 675/559/21
f 224/557/21 292/187/21 27/186/21
f 224/557/21 673/556/21 292/187/21
f 673/556/21 145/231/21 292/187/21
f 672/554/7 441/832/7 147/833/7
f 672/554/7 472/323/7 441/832/7
f 472/323/7 27/186/7 441/832/7
f 670/551/7 672/554/7 147/833/7
f 670/551/7 671/553/7 672/554/7
f 671/553/7 178/321/7 672/554/7
f 221/552/7 294/834/7 24/835/7
f 221/552/7 670/551/7 294/834/7
f 670/551/7 147/833/7 294/834/7
f 669/549/22 443/836/22 149/837/22
f 669/549/22 473/316/22 443/836/22
f 473/316/22 51/838/22 443/836/22
f 667/546/22 669/549/22 149/837/22
f 667/546/22 668/548/22 669/549/22
f 668/548/22 179/314/22 669/549/22
f 229/547/22 296/839/22 32/130/22
f 229/547/22 667/546/22 296/839/22
f 667/546/22 149/837/22 296/839/22
f 666/544/23 277/840/23 130/550/23
f 666/544/23 474/309/23 277/840/23
f 474/309/23 22/19/23 277/840/23
f 664/541/23 666/544/23 130/550/23
f 664/541/23 665/543/23 666/544/23
f 665/543/23 180/307/23 666/544/23
f 260/542/23 424/841/23 4/801/23
f 260/542/23 664/541/23 424/841/23
f 664/541/23 130/550/23 424/841/23
f 663/539/16 256/842/16 109/843/16
f 663/539/16 475/302/16 256/842/16
f 475/302/16 11/844/16 256/842/16
f 661/536/16 663/539/16 109/843/16
f 661/536/16 662/538/16 663/539/16
f 662/538/16 181/300/16 663/539/16
f 257/537/16 403/845/16 20/846/16
f 257/537/16 661/536/16 403/845/16
f 661/536/16 109/843/16 403/845/16
f 660/534/25 347/847/25 53/848/25
f 660/534/25 298/533/25 347/847/25
f 298/533/25 1/849/25 347/847/25
f 658/529/25 660/534/25 53/848/25
f 658/529/25 659/531/25 660/534/25
f 659/531/25 151/532/25 660/534/25
f 331/530/25 200/850/25 3/168/25
f 331/530/25 658/529/25 200/850/25
f 658/529/25 53/848/25 200/850/25
f 657/527/25 297/295/25 150/294/25
f 657/527/25 397/526/25 297/295/25
f 397/526/25 12/851/25 297/295/25
f 655/522/25 657/527/25 150/294/25
f 655/522/25 656/524/25 657/527/25
f 656/524/25 103/525/25 657/527/25
f 333/523/25 444/171/25 2/142/25
f 333/523/25 655/522/25 444/171/25
f 655/522/25 150/294/25 444/171/25
f 654/520/16 255/451/16 108/450/16
f 654/520/16 481/268/16 255/451/16
f 481/268/16 21/758/16 255/451/16
f 652/518/16 654/520/16 108/450/16
f 652/518/16 653/519/16 654/520/16
f 653/519/16 187/266/16 654/520/16
f 249/470/16 402/147/16 10/7/16
f 249/470/16 652/518/16 402/147/16
f 652/518/16 108/450/16 402/147/16
f 651/517/26 276/824/26 129/823/26
f 651/517/26 482/262/26 276/824/26
f 482/262/26 8/825/26 276/824/26
f 649/514/26 651/517/26 129/823/26
f 649/514/26 650/516/26 651/517/26
f 650/516/26 188/260/26 651/517/26
f 272/515/26 423/822/26 28/25/26
f 272/515/26 649/514/26 423/822/26
f 649/514/26 129/823/26 423/822/26
f 648/512/27 448/126/27 154/503/27
f 648/512/27 483/256/27 448/126/27
f 483/256/27 19/16/27 448/126/27
f 646/509/27 648/512/27 154/503/27
f 646/509/27 647/511/27 648/512/27
f 647/511/27 189/254/27 648/512/27
f 447/510/27 301/505/27 48/783/27
f 447/510/27 646/509/27 301/505/27
f 646/509/27 154/503/27 301/505/27
f 645/507/27 266/812/27 119/811/27
f 645/507/27 484/250/27 266/812/27
f 484/250/27 42/774/27 266/812/27
f 643/504/27 645/507/27 119/811/27
f 643/504/27 644/506/27 645/507/27
f 644/506/27 190/248/27 645/507/27
f 301/505/27 413/810/27 48/783/27
f 301/505/27 643/504/27 413/810/27
f 643/504/27 119/811/27 413/810/27
f 642/502/23 293/326/23 146/325/23
f 642/502/23 485/243/23 293/326/23
f 485/243/23 25/22/23 293/326/23
f 640/499/23 642/502/23 146/325/23
f 640/499/23 641/501/23 642/502/23
f 641/501/23 191/241/23 642/502/23
f 280/500/23 440/165/23 23/103/23
f 280/500/23 640/499/23 440/165/23
f 640/499/23 146/325/23 440/165/23
f 639/497/25 449/852/25 155/853/25
f 639/497/25 443/496/25 449/852/25
f 443/496/25 51/854/25 449/852/25
f 637/492/25 639/497/25 155/853/25
f 637/492/25 638/494/25 639/497/25
f 638/494/25 149/495/25 639/497/25
f 340/493/25 302/855/25 1/142/25
f 340/493/25 637/492/25 302/855/25
f 637/492/25 155/853/25 302/855/25
f 636/490/28 291/333/28 144/332/28
f 636/490/28 488/222/28 291/333/28
f 488/222/28 33/97/28 291/333/28
f 634/487/28 636/490/28 144/332/28
f 634/487/28 635/489/28 636/490/28
f 635/489/28 194/220/28 636/490/28
f 288/488/28 438/164/28 26/100/28
f 288/488/28 634/487/28 438/164/28
f 634/487/28 144/332/28 438/164/28
f 633/485/28 274/821/28 127/820/28
f 633/485/28 489/216/28 274/821/28
f 489/216/28 30/76/28 274/821/28
f 631/483/28 633/485/28 127/820/28
f 631/483/28 632/484/28 633/485/28
f 632/484/28 195/214/28 633/485/28
f 269/409/28 421/819/28 50/786/28
f 269/409/28 631/483/28 421/819/28
f 631/483/28 127/820/28 421/819/28
f 630/482/26 270/856/26 123/857/26
f 630/482/26 490/209/26 270/856/26
f 490/209/26 47/830/26 270/856/26
f 628/480/26 630/482/26 123/857/26
f 628/480/26 629/481/26 630/482/26
f 629/481/26 196/207/26 630/482/26
f 295/319/26 417/858/26 49/859/26
f 295/319/26 628/480/26 417/858/26
f 628/480/26 123/857/26 417/858/26
f 627/479/27 285/860/27 138/861/27
f 627/479/27 491/202/27 285/860/27
f 491/202/27 39/90/27 285/860/27
f 625/476/27 627/479/27 138/861/27
f 625/476/27 626/478/27 627/479/27
f 626/478/27 197/200/27 627/479/27
f 300/477/27 432/862/27 35/863/27
f 300/477/27 625/476/27 432/862/27
f 625/476/27 138/861/27 432/862/27
f 624/474/25 302/864/25 155/865/25
f 624/474/25 492/196/25 302/864/25
f 492/196/25 1/849/25 302/864/25
f 622/472/25 624/474/25 155/865/25
f 622/472/25 623/473/25 624/474/25
f 623/473/25 198/194/25 624/474/25
f 299/282/25 449/866/25 51/788/25
f 299/282/25 622/472/25 449/866/25
f 622/472/25 155/865/25 449/866/25
f 621/471/3 207/9/3 60/729/3
f 621/471/3 249/470/3 207/9/3
f 249/470/3 10/7/3 207/9/3
f 619/466/3 621/471/3 60/729/3
f 619/466/3 620/468/3 621/471/3
f 620/468/3 102/469/3 621/471/3
f 450/467/3 354/731/3 12/749/3
f 450/467/3 619/466/3 354/731/3
f 619/466/3 60/729/3 354/731/3
f 618/464/15 213/15/15 66/719/15
f 618/464/15 251/463/15 213/15/15
f 251/463/15 16/13/15 213/15/15
f 616/459/15 618/464/15 66/719/15
f 616/459/15 617/461/15 618/464/15
f 617/461/15 104/462/15 618/464/15
f 451/460/15 360/721/15 18/754/15
f 451/460/15 616/459/15 360/721/15
f 616/459/15 66/719/15 360/721/15
f 615/457/6 216/18/6 69/712/6
f 615/457/6 253/181/6 216/18/6
f 253/181/6 19/16/6 216/18/6
f 613/454/6 615/457/6 69/712/6
f 613/454/6 614/456/6 615/457/6
f 614/456/6 106/252/6 615/457/6
f 452/455/6 363/714/6 21/758/6
f 452/455/6 613/454/6 363/714/6
f 613/454/6 69/712/6 363/714/6
f 612/452/16 218/757/16 71/756/16
f 612/452/16 255/451/16 218/757/16
f 255/451/16 21/758/16 218/757/16
f 610/447/16 612/452/16 71/756/16
f 610/447/16 611/449/16 612/452/16
f 611/449/16 108/450/16 612/452/16
f 453/448/16 365/755/16 20/535/16
f 453/448/16 610/447/16 365/755/16
f 610/447/16 71/756/16 365/755/16
f 609/445/6 217/717/6 70/716/6
f 609/445/6 257/444/6 217/717/6
f 257/444/6 20/535/6 217/717/6
f 607/441/6 609/445/6 70/716/6
f 607/441/6 608/443/6 609/445/6
f 608/443/6 110/111/6 609/445/6
f 454/442/6 364/17/6 19/16/6
f 454/442/6 607/441/6 364/17/6
f 607/441/6 70/716/6 364/17/6
f 606/439/17 212/867/17 65/868/17
f 606/439/17 259/438/17 212/867/17
f 259/438/17 15/869/17 212/867/17
f 604/434/17 606/439/17 65/868/17
f 604/434/17 605/436/17 606/439/17
f 605/436/17 112/437/17 606/439/17
f 455/435/17 359/870/17 14/107/17
f 455/435/17 604/434/17 359/870/17
f 604/434/17 65/868/17 359/870/17
f 603/432/3 209/871/3 62/872/3
f 603/432/3 261/431/3 209/871/3
f 261/431/3 12/851/3 209/871/3
f 601/427/3 603/432/3 62/872/3
f 601/427/3 602/429/3 603/432/3
f 602/429/3 114/430/3 603/432/3
f 456/428/3 356/873/3 11/804/3
f 456/428/3 601/427/3 356/873/3
f 601/427/3 62/872/3 356/873/3
f 600/425/18 237/39/18 90/675/18
f 600/425/18 263/179/18 237/39/18
f 263/179/18 40/37/18 237/39/18
f 598/422/18 600/425/18 90/675/18
f 598/422/18 599/424/18 600/425/18
f 599/424/18 116/264/18 600/425/18
f 457/423/18 384/677/18 42/774/18
f 457/423/18 598/422/18 384/677/18
f 598/422/18 90/675/18 384/677/18
f 597/420/19 243/45/19 96/665/19
f 597/420/19 265/190/19 243/45/19
f 265/190/19 46/43/19 243/45/19
f 595/417/19 597/420/19 96/665/19
f 595/417/19 596/419/19 597/420/19
f 596/419/19 118/218/19 597/420/19
f 458/418/19 390/667/19 48/783/19
f 458/418/19 595/417/19 390/667/19
f 595/417/19 96/665/19 390/667/19
f 594/415/10 232/692/10 85/691/10
f 594/415/10 267/180/10 232/692/10
f 267/180/10 35/122/10 232/692/10
f 592/412/10 594/415/10 85/691/10
f 592/412/10 593/414/10 594/415/10
f 593/414/10 120/258/10 594/415/10
f 459/413/10 379/32/10 34/31/10
f 459/413/10 592/412/10 379/32/10
f 592/412/10 85/691/10 379/32/10
f 591/410/20 247/663/20 100/662/20
f 591/410/20 269/409/20 247/663/20
f 269/409/20 50/786/20 247/663/20
f 589/405/20 591/410/20 100/662/20
f 589/405/20 590/407/20 591/410/20
f 590/407/20 122/408/20 591/410/20
f 460/406/20 394/47/20 49/46/20
f 460/406/20 589/405/20 394/47/20
f 589/405/20 100/662/20 394/47/20
f 588/403/20 238/680/20 91/679/20
f 588/403/20 271/402/20 238/680/20
f 271/402/20 41/71/20 238/680/20
f 586/398/20 588/403/20 91/679/20
f 586/398/20 587/400/20 588/403/20
f 587/400/20 124/401/20 588/403/20
f 461/399/20 385/38/20 40/37/20
f 461/399/20 586/398/20 385/38/20
f 586/398/20 91/679/20 385/38/20
f 585/396/21 248/787/21 101/785/21
f 585/396/21 273/395/21 248/787/21
f 273/395/21 51/788/21 248/787/21
f 583/391/21 585/396/21 101/785/21
f 583/391/21 584/393/21 585/396/21
f 584/393/21 126/394/21 585/396/21
f 462/392/21 395/784/21 50/786/21
f 462/392/21 583/391/21 395/784/21
f 583/391/21 101/785/21 395/784/21
f 582/389/22 226/700/22 79/699/22
f 582/389/22 275/388/22 226/700/22
f 275/388/22 29/79/22 226/700/22
f 580/384/22 582/389/22 79/699/22
f 580/384/22 581/386/22 582/389/22
f 581/386/22 128/387/22 582/389/22
f 463/385/22 373/26/22 28/25/22
f 463/385/22 580/384/22 373/26/22
f 580/384/22 79/699/22 373/26/22
f 579/382/7 219/21/7 72/707/7
f 579/382/7 277/381/7 219/21/7
f 277/381/7 22/19/7 219/21/7
f 577/377/7 579/382/7 72/707/7
f 577/377/7 578/379/7 579/382/7
f 578/379/7 130/380/7 579/382/7
f 464/378/7 366/709/7 24/112/7
f 464/378/7 577/377/7 366/709/7
f 577/377/7 72/707/7 366/709/7
f 576/375/23 231/33/23 84/687/23
f 576/375/23 279/374/23 231/33/23
f 279/374/23 34/31/23 231/33/23
f 574/371/23 576/375/23 84/687/23
f 574/371/23 575/373/23 576/375/23
f 575/373/23 132/346/23 576/375/23
f 465/372/23 378/689/23 36/769/23
f 465/372/23 574/371/23 378/689/23
f 574/371/23 84/687/23 378/689/23
f 573/369/18 245/874/18 98/875/18
f 573/369/18 281/368/18 245/874/18
f 281/368/18 48/876/18 245/874/18
f 571/364/18 573/369/18 98/875/18
f 571/364/18 572/366/18 573/369/18
f 572/366/18 134/367/18 573/369/18
f 466/365/18 392/877/18 47/830/18
f 466/365/18 571/364/18 392/877/18
f 571/364/18 98/875/18 392/877/18
f 570/362/19 242/778/19 95/776/19
f 570/362/19 283/361/19 242/778/19
f 283/361/19 45/87/19 242/778/19
f 568/357/19 570/362/19 95/776/19
f 568/357/19 569/359/19 570/362/19
f 569/359/19 136/360/19 570/362/19
f 467/358/19 389/775/19 44/777/19
f 467/358/19 568/357/19 389/775/19
f 568/357/19 95/776/19 389/775/19
f 567/355/10 236/773/10 89/771/10
f 567/355/10 285/354/10 236/773/10
f 285/354/10 39/90/10 236/773/10
f 565/350/10 567/355/10 89/771/10
f 565/350/10 566/352/10 567/355/10
f 566/352/10 138/353/10 567/355/10
f 468/351/10 383/770/10 38/772/10
f 468/351/10 565/350/10 383/770/10
f 565/350/10 89/771/10 383/770/10
f 564/348/24 235/685/24 88/684/24
f 564/348/24 287/347/24 235/685/24
f 287/347/24 38/772/24 235/685/24
f 562/343/24 564/348/24 88/684/24
f 562/343/24 563/345/24 564/348/24
f 563/345/24 140/346/24 564/348/24
f 469/344/24 382/35/24 37/34/24
f 469/344/24 562/343/24 382/35/24
f 562/343/24 88/684/24 382/35/24
f 561/341/20 241/673/20 94/672/20
f 561/341/20 289/340/20 241/673/20
f 289/340/20 44/777/20 241/673/20
f 559/336/20 561/341/20 94/672/20
f 559/336/20 560/338/20 561/341/20
f 560/338/20 142/339/20 561/341/20
f 470/337/20 388/41/20 43/40/20
f 470/337/20 559/336/20 388/41/20
f 559/336/20 94/672/20 388/41/20
f 558/334/21 230/765/21 83/764/21
f 558/334/21 291/333/21 230/765/21
f 291/333/21 33/97/21 230/765/21
f 556/329/21 558/334/21 83/764/21
f 556/329/21 557/331/21 558/334/21
f 557/331/21 144/332/21 558/334/21
f 471/330/21 377/763/21 32/130/21
f 471/330/21 556/329/21 377/763/21
f 556/329/21 83/764/21 377/763/21
f 555/327/7 222/24/7 75/702/7
f 555/327/7 293/326/7 222/24/7
f 293/326/7 25/22/7 222/24/7
f 553/322/7 555/327/7 75/702/7
f 553/322/7 554/324/7 555/327/7
f 554/324/7 146/325/7 555/327/7
f 472/323/7 369/704/7 27/186/7
f 472/323/7 553/322/7 369/704/7
f 553/322/7 75/702/7 369/704/7
f 552/320/22 246/878/22 99/879/22
f 552/320/22 295/319/22 246/878/22
f 295/319/22 49/859/22 246/878/22
f 550/315/22 552/320/22 99/879/22
f 550/315/22 551/317/22 552/320/22
f 551/317/22 148/318/22 552/320/22
f 473/316/22 393/880/22 51/838/22
f 473/316/22 550/315/22 393/880/22
f 550/315/22 99/879/22 393/880/22
f 549/313/23 279/374/23 132/346/23
f 549/313/23 415/312/23 279/374/23
f 415/312/23 34/31/23 279/374/23
f 547/308/23 549/313/23 132/346/23
f 547/308/23 548/310/23 549/313/23
f 548/310/23 121/311/23 549/313/23
f 474/309/23 426/158/23 22/19/23
f 474/309/23 547/308/23 426/158/23
f 547/308/23 132/346/23 426/158/23
f 546/306/16 262/881/16 115/882/16
f 546/306/16 406/305/16 262/881/16
f 406/305/16 6/883/16 262/881/16
f 544/301/16 546/306/16 115/882/16
f 544/301/16 545/303/16 546/306/16
f 545/303/16 112/304/16 546/306/16
f 475/302/16 409/884/16 11/844/16
f 475/302/16 544/301/16 409/884/16
f 544/301/16 115/882/16 409/884/16
f 543/299/25 477/172/25 183/290/25
f 543/299/25 346/193/25 477/172/25
f 346/193/25 2/142/25 477/172/25
f 541/297/25 543/299/25 183/290/25
f 541/297/25 542/298/25 543/299/25
f 542/298/25 52/198/25 543/299/25
f 476/174/25 330/292/25 5/65/25
f 476/174/25 541/297/25 330/292/25
f 541/297/25 183/290/25 330/292/25
f 540/296/25 261/431/25 114/430/25
f 540/296/25 297/295/25 261/431/25
f 297/295/25 12/851/25 261/431/25
f 538/291/25 540/296/25 114/430/25
f 538/291/25 539/293/25 540/296/25
f 539/293/25 150/294/25 540/296/25
f 330/292/25 408/150/25 5/65/25
f 330/292/25 538/291/25 408/150/25
f 538/291/25 114/430/25 408/150/25
f 537/289/25 478/114/25 184/528/25
f 537/289/25 425/288/25 478/114/25
f 425/288/25 24/112/25 478/114/25
f 535/285/25 537/289/25 184/528/25
f 535/285/25 536/286/25 537/289/25
f 536/286/25 131/287/25 537/289/25
f 329/170/25 331/530/25 3/168/25
f 329/170/25 535/285/25 331/530/25
f 535/285/25 184/528/25 331/530/25
f 534/283/25 273/395/25 126/394/25
f 534/283/25 299/282/25 273/395/25
f 299/282/25 51/788/25 273/395/25
f 532/279/25 534/283/25 126/394/25
f 532/279/25 533/280/25 534/283/25
f 533/280/25 152/281/25 534/283/25
f 479/177/25 420/155/25 29/79/25
f 479/177/25 532/279/25 420/155/25
f 532/279/25 126/394/25 420/155/25
f 531/278/25 480/117/25 186/521/25
f 531/278/25 422/277/25 480/117/25
f 422/277/25 7/115/25 480/117/25
f 529/274/25 531/278/25 186/521/25
f 529/274/25 530/275/25 531/278/25
f 530/275/25 128/276/25 531/278/25
f 332/175/25 333/523/25 2/142/25
f 332/175/25 529/274/25 333/523/25
f 529/274/25 186/521/25 333/523/25
f 528/272/16 254/794/16 107/793/16
f 528/272/16 399/271/16 254/794/16
f 399/271/16 18/754/16 254/794/16
f 526/267/16 528/272/16 107/793/16
f 526/267/16 527/269/16 528/272/16
f 527/269/16 105/270/16 528/272/16
f 481/268/16 401/792/16 21/758/16
f 481/268/16 526/267/16 401/792/16
f 526/267/16 107/793/16 401/792/16
f 525/265/26 251/885/26 104/886/26
f 525/265/26 410/151/26 251/885/26
f 410/151/26 16/68/26 251/885/26
f 523/261/26 525/265/26 104/886/26
f 523/261/26 524/263/26 525/265/26
f 524/263/26 116/264/26 525/265/26
f 482/262/26 398/887/26 8/825/26
f 482/262/26 523/261/26 398/887/26
f 523/261/26 104/886/26 398/887/26
f 522/259/27 258/800/27 111/799/27
f 522/259/27 414/153/27 258/800/27
f 414/153/27 13/10/27 258/800/27
f 520/255/27 522/259/27 111/799/27
f 520/255/27 521/257/27 522/259/27
f 521/257/27 120/258/27 522/259/27
f 483/256/27 405/798/27 19/16/27
f 483/256/27 520/255/27 405/798/27
f 520/255/27 111/799/27 405/798/27
f 519/253/27 264/888/27 117/889/27
f 519/253/27 400/146/27 264/888/27
f 400/146/27 17/55/27 264/888/27
f 517/249/27 519/253/27 117/889/27
f 517/249/27 518/251/27 519/253/27
f 518/251/27 106/252/27 519/253/27
f 484/250/27 411/890/27 42/774/27
f 484/250/27 517/249/27 411/890/27
f 517/249/27 117/889/27 411/890/27
f 516/247/23 287/347/23 140/346/23
f 516/247/23 433/246/23 287/347/23
f 433/246/23 38/772/23 287/347/23
f 514/242/23 516/247/23 140/346/23
f 514/242/23 515/244/23 516/247/23
f 515/244/23 139/245/23 516/247/23
f 485/243/23 434/162/23 25/22/23
f 485/243/23 514/242/23 434/162/23
f 514/242/23 140/346/23 434/162/23
f 513/240/25 486/188/25 192/227/25
f 513/240/25 441/239/25 486/188/25
f 441/239/25 27/186/25 486/188/25
f 511/235/25 513/240/25 192/227/25
f 511/235/25 512/237/25 513/240/25
f 512/237/25 147/238/25 513/240/25
f 298/236/25 339/229/25 1/142/25
f 298/236/25 511/235/25 339/229/25
f 511/235/25 192/227/25 339/229/25
f 510/233/25 487/132/25 193/491/25
f 510/233/25 439/232/25 487/132/25
f 439/232/25 32/130/25 487/132/25
f 508/228/25 510/233/25 193/491/25
f 508/228/25 509/230/25 510/233/25
f 509/230/25 145/231/25 510/233/25
f 339/229/25 340/493/25 1/142/25
f 339/229/25 508/228/25 340/493/25
f 508/228/25 193/491/25 340/493/25
f 507/226/28 289/340/28 142/339/28
f 507/226/28 431/225/28 289/340/28
f 431/225/28 44/777/28 289/340/28
f 505/221/28 507/226/28 142/339/28
f 505/221/28 506/223/28 507/226/28
f 506/223/28 137/224/28 507/226/28
f 488/222/28 436/163/28 33/97/28
f 488/222/28 505/221/28 436/163/28
f 505/221/28 142/339/28 436/163/28
f 504/219/28 271/402/28 124/401/28
f 504/219/28 412/152/28 271/402/28
f 412/152/28 41/71/28 271/402/28
f 502/215/28 504/219/28 124/401/28
f 502/215/28 503/217/28 504/219/28
f 503/217/28 118/218/28 504/219/28
f 489/216/28 418/154/28 30/76/28
f 489/216/28 502/215/28 418/154/28
f 502/215/28 124/401/28 418/154/28
f 501/213/26 282/831/26 135/829/26
f 501/213/26 437/212/26 282/831/26
f 437/212/26 43/40/26 282/831/26
f 499/208/26 501/213/26 135/829/26
f 499/208/26 500/210/26 501/213/26
f 500/210/26 143/211/26 501/213/26
f 490/209/26 429/828/26 47/830/26
f 490/209/26 499/208/26 429/828/26
f 499/208/26 135/829/26 429/828/26
f 498/206/27 283/361/27 136/360/27
f 498/206/27 428/205/27 283/361/27
f 428/205/27 45/87/27 283/361/27
f 496/201/27 498/206/27 136/360/27
f 496/201/27 497/203/27 498/206/27
f 497/203/27 134/204/27 498/206/27
f 491/202/27 430/160/27 39/90/27
f 491/202/27 496/201/27 430/160/27
f 496/201/27 136/360/27 430/160/27
f 495/199/25 200/850/25 53/848/25
f 495/199/25 199/169/25 200/850/25
f 199/169/25 3/168/25 200/850/25
f 493/195/25 495/199/25 53/848/25
f 493/195/25 494/197/25 495/199/25
f 494/197/25 52/198/25 495/199/25
f 492/196/25 347/847/25 1/849/25
f 492/196/25 493/195/25 347/847/25
f 493/195/25 53/848/25 347/847/25
f 345/143/25 494/197/25 198/194/25
f 345/143/25 346/193/25 494/197/25
f 346/193/25 52/198/25 494/197/25
f 344/140/27 497/203/27 197/200/27
f 344/140/27 281/192/27 497/203/27
f 281/192/27 134/204/27 497/203/27
f 343/137/26 500/210/26 196/207/26
f 343/137/26 290/191/26 500/210/26
f 290/191/26 143/211/26 500/210/26
f 342/135/28 503/217/28 195/214/28
f 342/135/28 265/190/28 503/217/28
f 265/190/28 118/218/28 503/217/28
f 341/133/28 506/223/28 194/220/28
f 341/133/28 284/189/28 506/223/28
f 284/189/28 137/224/28 506/223/28
f 486/188/25 509/230/25 192/227/25
f 486/188/25 292/187/25 509/230/25
f 292/187/25 145/231/25 509/230/25
f 445/185/25 512/237/25 151/234/25
f 445/185/25 294/184/25 512/237/25
f 294/184/25 147/238/25 512/237/25
f 338/128/23 515/244/23 191/241/23
f 338/128/23 286/182/23 515/244/23
f 286/182/23 139/245/23 515/244/23
f 337/125/27 518/251/27 190/248/27
f 337/125/27 253/181/27 518/251/27
f 253/181/27 106/252/27 518/251/27
f 336/123/27 521/257/27 189/254/27
f 336/123/27 267/180/27 521/257/27
f 267/180/27 120/258/27 521/257/27
f 335/120/26 524/263/26 188/260/26
f 335/120/26 263/179/26 524/263/26
f 263/179/26 116/264/26 524/263/26
f 334/118/16 527/269/16 187/266/16
f 334/118/16 252/178/16 527/269/16
f 252/178/16 105/270/16 527/269/16
f 479/177/25 530/275/25 185/273/25
f 479/177/25 275/176/25 530/275/25
f 275/176/25 128/276/25 530/275/25
f 332/175/25 533/280/25 185/273/25
f 332/175/25 446/144/25 533/280/25
f 446/144/25 152/281/25 533/280/25
f 476/174/25 536/286/25 182/284/25
f 476/174/25 278/173/25 536/286/25
f 278/173/25 131/287/25 536/286/25
f 477/172/25 539/293/25 183/290/25
f 477/172/25 444/171/25 539/293/25
f 444/171/25 150/294/25 539/293/25
f 329/170/25 542/298/25 182/284/25
f 329/170/25 199/169/25 542/298/25
f 199/169/25 52/198/25 542/298/25
f 328/110/16 545/303/16 181/300/16
f 328/110/16 259/167/16 545/303/16
f 259/167/16 112/304/16 545/303/16
f 327/108/23 548/310/23 180/307/23
f 327/108/23 268/166/23 548/310/23
f 268/166/23 121/311/23 548/310/23
f 326/106/22 551/317/22 179/314/22
f 326/106/22 442/138/22 551/317/22
f 442/138/22 148/318/22 551/317/22
f 325/104/7 554/324/7 178/321/7
f 325/104/7 440/165/7 554/324/7
f 440/165/7 146/325/7 554/324/7
f 324/101/21 557/331/21 177/328/21
f 324/101/21 438/164/21 557/331/21
f 438/164/21 144/332/21 557/331/21
f 323/98/20 560/338/20 176/335/20
f 323/98/20 436/163/20 560/338/20
f 436/163/20 142/339/20 560/338/20
f 322/96/24 563/345/24 175/342/24
f 322/96/24 434/162/24 563/345/24
f 434/162/24 140/346/24 563/345/24
f 321/94/10 566/352/10 174/349/10
f 321/94/10 432/161/10 566/352/10
f 432/161/10 138/353/10 566/352/10
f 320/91/19 569/359/19 173/356/19
f 320/91/19 430/160/19 569/359/19
f 430/160/19 136/360/19 569/359/19
f 319/88/18 572/366/18 172/363/18
f 319/88/18 428/159/18 572/366/18
f 428/159/18 134/367/18 572/366/18
f 318/86/23 575/373/23 171/370/23
f 318/86/23 426/158/23 575/373/23
f 426/158/23 132/346/23 575/373/23
f 317/85/7 578/379/7 170/376/7
f 317/85/7 424/157/7 578/379/7
f 424/157/7 130/380/7 578/379/7
f 316/83/22 581/386/22 169/383/22
f 316/83/22 422/156/22 581/386/22
f 422/156/22 128/387/22 581/386/22
f 315/80/21 584/393/21 168/390/21
f 315/80/21 420/155/21 584/393/21
f 420/155/21 126/394/21 584/393/21
f 314/77/20 587/400/20 167/397/20
f 314/77/20 418/154/20 587/400/20
f 418/154/20 124/401/20 587/400/20
f 313/75/20 590/407/20 166/404/20
f 313/75/20 416/136/20 590/407/20
f 416/136/20 122/408/20 590/407/20
f 312/74/10 593/414/10 165/411/10
f 312/74/10 414/153/10 593/414/10
f 414/153/10 120/258/10 593/414/10
f 311/72/19 596/419/19 164/416/19
f 311/72/19 412/152/19 596/419/19
f 412/152/19 118/218/19 596/419/19
f 310/69/18 599/424/18 163/421/18
f 310/69/18 410/151/18 599/424/18
f 410/151/18 116/264/18 599/424/18
f 309/66/3 602/429/3 162/426/3
f 309/66/3 408/150/3 602/429/3
f 408/150/3 114/430/3 602/429/3
f 308/63/17 605/436/17 161/433/17
f 308/63/17 406/149/17 605/436/17
f 406/149/17 112/437/17 605/436/17
f 307/60/6 608/443/6 160/440/6
f 307/60/6 404/148/6 608/443/6
f 404/148/6 110/111/6 608/443/6
f 306/58/16 611/449/16 159/446/16
f 306/58/16 402/147/16 611/449/16
f 402/147/16 108/450/16 611/449/16
f 305/56/6 614/456/6 158/453/6
f 305/56/6 400/146/6 614/456/6
f 400/146/6 106/252/6 614/456/6
f 304/53/15 617/461/15 157/458/15
f 304/53/15 398/145/15 617/461/15
f 398/145/15 104/462/15 617/461/15
f 303/50/3 620/468/3 156/465/3
f 303/50/3 396/119/3 620/468/3
f 396/119/3 102/469/3 620/468/3
f 446/144/25 623/473/25 152/281/25
f 446/144/25 345/143/25 623/473/25
f 345/143/25 198/194/25 623/473/25
f 447/141/27 626/478/27 153/475/27
f 447/141/27 344/140/27 626/478/27
f 344/140/27 197/200/27 626/478/27
f 442/138/26 629/481/26 148/318/26
f 442/138/26 343/137/26 629/481/26
f 343/137/26 196/207/26 629/481/26
f 416/136/28 632/484/28 122/408/28
f 416/136/28 342/135/28 632/484/28
f 342/135/28 195/214/28 632/484/28
f 435/134/28 635/489/28 141/486/28
f 435/134/28 341/133/28 635/489/28
f 341/133/28 194/220/28 635/489/28
f 487/132/25 638/494/25 193/491/25
f 487/132/25 296/131/25 638/494/25
f 296/131/25 149/495/25 638/494/25
f 427/129/23 641/501/23 133/498/23
f 427/129/23 338/128/23 641/501/23
f 338/128/23 191/241/23 641/501/23
f 448/126/27 644/506/27 154/503/27
f 448/126/27 337/125/27 644/506/27
f 337/125/27 190/248/27 644/506/27
f 300/124/27 647/511/27 153/508/27
f 300/124/27 336/123/27 647/511/27
f 336/123/27 189/254/27 647/511/27
f 419/121/26 650/516/26 125/513/26
f 419/121/26 335/120/26 650/516/26
f 335/120/26 188/260/26 650/516/26
f 396/119/16 653/519/16 102/469/16
f 396/119/16 334/118/16 653/519/16
f 334/118/16 187/266/16 653/519/16
f 480/117/25 656/524/25 186/521/25
f 480/117/25 250/116/25 656/524/25
f 250/116/25 103/525/25 656/524/25
f 478/114/25 659/531/25 184/528/25
f 478/114/25 445/113/25 659/531/25
f 445/113/25 151/532/25 659/531/25
f 404/111/16 662/538/16 110/535/16
f 404/111/16 328/110/16 662/538/16
f 328/110/16 181/300/16 662/538/16
f 407/109/23 665/543/23 113/540/23
f 407/109/23 327/108/23 665/543/23
f 327/108/23 180/307/23 665/543/23
f 376/29/22 668/548/22 82/545/22
f 376/29/22 326/106/22 668/548/22
f 326/106/22 179/314/22 668/548/22
f 368/105/7 671/553/7 74/550/7
f 368/105/7 325/104/7 671/553/7
f 325/104/7 178/321/7 671/553/7
f 371/102/21 674/558/21 77/555/21
f 371/102/21 324/101/21 674/558/21
f 324/101/21 177/328/21 674/558/21
f 375/99/20 677/562/20 81/560/20
f 375/99/20 323/98/20 677/562/20
f 323/98/20 176/335/20 677/562/20
f 370/23/24 680/567/24 76/564/24
f 370/23/24 322/96/24 680/567/24
f 322/96/24 175/342/24 680/567/24
f 380/95/10 683/571/10 86/311/10
f 380/95/10 321/94/10 683/571/10
f 321/94/10 174/349/10 683/571/10
f 381/92/19 686/575/19 87/573/19
f 381/92/19 320/91/19 686/575/19
f 320/91/19 173/356/19 686/575/19
f 387/89/18 689/579/18 93/577/18
f 387/89/18 319/88/18 689/579/18
f 319/88/18 172/363/18 689/579/18
f 367/20/23 692/584/23 73/581/23
f 367/20/23 318/86/23 692/584/23
f 318/86/23 171/370/23 692/584/23
f 349/2/7 695/589/7 55/586/7
f 349/2/7 317/85/7 695/589/7
f 317/85/7 170/376/7 695/589/7
f 352/84/22 698/594/22 58/591/22
f 352/84/22 316/83/22 698/594/22
f 316/83/22 169/383/22 698/594/22
f 374/81/21 701/599/21 80/596/21
f 374/81/21 315/80/21 701/599/21
f 315/80/21 168/390/21 701/599/21
f 372/78/20 704/603/20 78/601/20
f 372/78/20 314/77/20 704/603/20
f 314/77/20 167/397/20 704/603/20
f 391/44/20 707/608/20 97/605/20
f 391/44/20 313/75/20 707/608/20
f 313/75/20 166/404/20 707/608/20
f 358/11/10 710/613/10 64/610/10
f 358/11/10 312/74/10 710/613/10
f 312/74/10 165/411/10 710/613/10
f 386/73/19 713/618/19 92/615/19
f 386/73/19 311/72/19 713/618/19
f 311/72/19 164/416/19 713/618/19
f 361/70/18 716/623/18 67/620/18
f 361/70/18 310/69/18 716/623/18
f 310/69/18 163/421/18 716/623/18
f 350/67/3 719/628/3 56/625/3
f 350/67/3 309/66/3 719/628/3
f 309/66/3 162/426/3 719/628/3
f 348/64/17 722/633/17 54/630/17
f 348/64/17 308/63/17 722/633/17
f 308/63/17 161/433/17 722/633/17
f 357/61/6 725/637/6 63/635/6
f 357/61/6 307/60/6 725/637/6
f 307/60/6 160/440/6 725/637/6
f 355/8/16 728/642/16 61/639/16
f 355/8/16 306/58/16 728/642/16
f 306/58/16 159/446/16 728/642/16
f 362/57/6 731/647/6 68/644/6
f 362/57/6 305/56/6 731/647/6
f 305/56/6 158/453/6 731/647/6
f 353/54/15 734/652/15 59/649/15
f 353/54/15 304/53/15 734/652/15
f 304/53/15 157/458/15 734/652/15
f 351/51/3 737/656/3 57/654/3
f 351/51/3 303/50/3 737/656/3
f 303/50/3 156/465/3 737/656/3
f 246/48/14 740/661/14 99/658/14
f 246/48/14 394/47/14 740/661/14
f 394/47/14 100/662/14 740/661/14
f 243/45/13 743/668/13 96/665/13
f 243/45/13 391/44/13 743/668/13
f 391/44/13 97/605/13 743/668/13
f 240/42/12 746/671/12 93/577/12
f 240/42/12 388/41/12 746/671/12
f 388/41/12 94/672/12 746/671/12
f 237/39/12 749/678/12 90/675/12
f 237/39/12 385/38/12 749/678/12
f 385/38/12 91/679/12 749/678/12
f 234/36/11 752/683/11 87/573/11
f 234/36/11 382/35/11 752/683/11
f 382/35/11 88/684/11 752/683/11
f 231/33/10 755/690/10 84/687/10
f 231/33/10 379/32/10 755/690/10
f 379/32/10 85/691/10 755/690/10
f 228/30/9 758/695/9 81/560/9
f 228/30/9 376/29/9 758/695/9
f 376/29/9 82/545/9 758/695/9
f 225/27/9 761/698/9 78/601/9
f 225/27/9 373/26/9 761/698/9
f 373/26/9 79/699/9 761/698/9
f 222/24/8 764/705/8 75/702/8
f 222/24/8 370/23/8 764/705/8
f 370/23/8 76/564/8 764/705/8
f 219/21/7 767/710/7 72/707/7
f 219/21/7 367/20/7 767/710/7
f 367/20/7 73/581/7 767/710/7
f 216/18/6 770/715/6 69/712/6
f 216/18/6 364/17/6 770/715/6
f 364/17/6 70/716/6 770/715/6
f 213/15/5 773/722/5 66/719/5
f 213/15/5 361/14/5 773/722/5
f 361/14/5 67/723/5 773/722/5
f 210/12/4 776/727/4 63/635/4
f 210/12/4 358/11/4 776/727/4
f 358/11/4 64/610/4 776/727/4
f 207/9/3 779/732/3 60/729/3
f 207/9/3 355/8/3 779/732/3
f 355/8/3 61/639/3 779/732/3
f 204/6/2 782/735/2 57/654/2
f 204/6/2 352/5/2 782/735/2
f 352/5/2 58/736/2 782/735/2
f 201/3/1 785/742/1 54/739/1
f 201/3/1 349/2/1 785/742/1
f 349/2/1 55/586/1 785/742/1
