# Blender 5.1.1
# www.blender.org
mtllib stretchedL.mtl
o Cube
v 2.000000 1.000000 0.000000
v 1.000000 2.000000 0.000000
v 1.333333 1.333333 0.000000
v 0.080000 0.000000 -0.080000
v 0.080000 0.160000 0.000000
v 0.000000 0.160000 -0.080000
v 0.080000 3.840000 0.000000
v 0.080000 4.000000 -0.080000
v 0.000000 3.840000 -0.080000
v 0.000000 2.160000 -0.080000
v 0.000000 1.840000 -0.080000
v 0.080000 2.000000 0.000000
v 0.080000 0.160000 -2.000000
v 0.080000 0.000000 -1.920000
v 0.000000 0.160000 -1.920000
v 0.080000 4.000000 -1.920000
v 0.080000 3.840000 -2.000000
v 0.000000 3.840000 -1.920000
v 0.080000 2.000000 -2.000000
v 0.000000 1.840000 -1.920000
v 0.000000 2.160000 -1.920000
v 1.920000 0.000000 -0.080000
v 2.080000 0.000000 -0.080000
v 2.000000 0.160000 0.000000
v 5.907085 0.000000 -0.080000
v 6.067085 0.160000 -0.080000
v 5.907085 0.160000 0.000000
v 1.920000 4.000000 -0.080000
v 1.920000 3.840000 0.000000
v 2.000000 3.840000 -0.080000
v 5.907085 2.000000 -0.080000
v 5.907085 1.840000 0.000000
v 6.067085 1.840000 -0.080000
v 1.920000 0.000000 -1.920000
v 2.000000 0.160000 -2.000000
v 2.080000 0.000000 -1.920000
v 6.067085 0.160000 -1.920000
v 5.907085 0.000000 -1.920000
v 5.907085 0.160000 -2.000000
v 1.920000 4.000000 -1.920000
v 2.000000 3.840000 -1.920000
v 1.920000 3.840000 -2.000000
v 5.907085 2.000000 -1.920000
v 6.067085 1.840000 -1.920000
v 5.907085 1.840000 -2.000000
v 2.000000 2.160000 -1.920000
v 2.080000 2.000000 -1.920000
v 1.920000 1.840000 -2.000000
v 2.080000 2.000000 -0.080000
v 2.000000 2.160000 -0.080000
v 1.920000 1.840000 0.000000
v 1.166667 1.666667 0.000000
v 1.666667 1.166667 0.000000
v 0.040000 0.080000 -0.080000
v 0.080000 0.080000 -0.040000
v 0.040000 0.160000 -0.040000
v 0.040000 3.840000 -0.040000
v 0.080000 3.920000 -0.040000
v 0.040000 3.920000 -0.080000
v 0.040000 2.080000 -0.040000
v 0.000000 2.000000 -0.080000
v 0.040000 1.920000 -0.040000
v 0.040000 0.160000 -1.960000
v 0.080000 0.080000 -1.960000
v 0.040000 0.080000 -1.920000
v 0.040000 3.920000 -1.920000
v 0.080000 3.920000 -1.960000
v 0.040000 3.840000 -1.960000
v 0.040000 2.080000 -1.960000
v 0.040000 1.920000 -1.960000
v 0.000000 2.000000 -1.920000
v 1.960000 0.080000 -0.040000
v 2.000000 0.000000 -0.080000
v 2.040000 0.080000 -0.040000
v 5.907085 0.080000 -0.040000
v 5.987085 0.080000 -0.080000
v 5.987085 0.160000 -0.040000
v 1.960000 3.920000 -0.080000
v 1.920000 3.920000 -0.040000
v 1.960000 3.840000 -0.040000
v 5.987085 1.920000 -0.080000
v 5.907085 1.920000 -0.040000
v 5.987085 1.840000 -0.040000
v 2.000000 0.000000 -1.920000
v 1.960000 0.080000 -1.960000
v 2.040000 0.080000 -1.960000
v 5.987085 0.160000 -1.960000
v 5.987085 0.080000 -1.920000
v 5.907085 0.080000 -1.960000
v 1.920000 3.920000 -1.960000
v 1.960000 3.920000 -1.920000
v 1.960000 3.840000 -1.960000
v 5.907085 1.920000 -1.960000
v 5.987085 1.920000 -1.920000
v 5.987085 1.840000 -1.960000
v 1.960000 2.000000 -1.960000
v 2.040000 2.080000 -1.920000
v 2.000000 1.920000 -1.960000
v 2.000000 1.920000 -0.040000
v 2.040000 2.080000 -0.080000
v 1.960000 2.000000 -0.040000
v 0.000000 3.000000 -0.080000
v 0.080000 2.920000 0.000000
v 0.080000 4.000000 -1.000000
v 0.000000 3.840000 -1.000000
v 0.080000 2.920000 -2.000000
v 0.000000 3.000000 -1.920000
v 0.000000 2.160000 -1.000000
v 0.000000 1.840000 -1.000000
v 0.000000 1.000000 -1.920000
v 0.080000 1.080000 -2.000000
v 0.000000 0.160000 -1.000000
v 0.080000 0.000000 -1.000000
v 0.080000 1.080000 0.000000
v 0.000000 1.000000 -0.080000
v 1.000000 4.000000 -1.920000
v 1.000000 3.840000 -2.000000
v 2.000000 3.000000 -1.920000
v 1.920000 2.840000 -2.000000
v 1.040000 0.160000 -2.000000
v 1.000000 0.000000 -1.920000
v 2.000000 2.160000 -1.000000
v 2.080000 2.000000 -1.000000
v 2.000000 3.840000 -1.000000
v 1.920000 4.000000 -1.000000
v 1.920000 2.840000 0.000000
v 2.000000 3.000000 -0.080000
v 1.000000 3.840000 0.000000
v 1.000000 4.000000 -0.080000
v 1.000000 0.000000 -0.080000
v 1.040000 0.160000 0.000000
v 1.920000 0.000000 -1.000000
v 2.080000 0.000000 -1.000000
v 3.907086 1.840000 -2.000000
v 4.067085 2.000000 -1.920000
v 5.907085 1.000000 -2.000000
v 6.067085 1.000000 -1.920000
v 3.987086 0.160000 -2.000000
v 4.067085 0.000000 -1.920000
v 5.907085 0.000000 -1.000000
v 6.067085 0.160000 -1.000000
v 6.067085 1.840000 -1.000000
v 5.907085 2.000000 -1.000000
v 6.067085 1.000000 -0.080000
v 5.907085 1.000000 0.000000
v 4.067085 0.000000 -0.080000
v 3.987086 0.160000 0.000000
v 4.067085 2.000000 -0.080000
v 3.907086 1.840000 0.000000
v 0.540000 2.000000 0.000000
v 2.000000 0.580000 0.000000
v 1.460000 1.920000 0.000000
v 1.960000 1.000000 -2.000000
v 1.000000 1.920000 -2.000000
v 1.960000 1.420000 0.000000
v 0.040000 2.920000 -0.040000
v 0.040000 3.920000 -1.000000
v 0.040000 3.000000 -1.960000
v 0.000000 2.000000 -1.000000
v 0.040000 1.080000 -1.960000
v 0.040000 0.080000 -1.000000
v 0.040000 1.000000 -0.040000
v 1.000000 3.920000 -1.960000
v 1.960000 2.840000 -1.960000
v 1.000000 0.080000 -1.960000
v 2.040000 2.080000 -1.000000
v 1.960000 3.920000 -1.000000
v 1.960000 3.000000 -0.040000
v 1.000000 3.920000 -0.040000
v 1.040000 0.080000 -0.040000
v 2.000000 0.000000 -1.000000
v 4.067085 1.920000 -1.960000
v 5.987085 1.000000 -1.960000
v 3.987086 0.080000 -1.960000
v 5.987085 0.080000 -1.000000
v 5.987085 1.920000 -1.000000
v 5.987085 1.000000 -0.040000
v 4.067085 0.080000 -0.040000
v 3.907086 1.920000 -0.040000
v 1.000000 0.000000 -1.000000
v 0.000000 1.000000 -1.000000
v 0.706667 0.746667 0.000000
v 0.540000 1.080000 0.000000
v 1.666667 0.746667 0.000000
v 1.460000 2.920000 0.000000
v 0.540000 2.920000 0.000000
v 0.000000 3.000000 -1.000000
v 1.000000 4.000000 -1.000000
v 1.040000 1.080000 -2.000000
v 1.000000 2.920000 -2.000000
v 4.067085 0.000000 -1.000000
v 3.987086 0.580000 0.000000
v 3.987086 1.420000 0.000000
v 6.067085 1.000000 -1.000000
v 2.000000 3.000000 -1.000000
v 4.067085 2.000000 -1.000000
v 3.907086 1.000000 -2.000000
v 1.500000 1.500000 0.000000
v 1.250000 1.500000 0.000000
v 1.500000 1.250000 0.000000
v 0.060000 0.040000 -0.080000
v 0.080000 0.120000 -0.020000
v 0.020000 0.160000 -0.060000
v 0.060000 3.840000 -0.020000
v 0.080000 3.960000 -0.060000
v 0.020000 3.880000 -0.080000
v 0.020000 2.120000 -0.060000
v 0.000000 1.920000 -0.080000
v 0.060000 1.960000 -0.020000
v 0.060000 0.160000 -1.980000
v 0.080000 0.040000 -1.940000
v 0.020000 0.120000 -1.920000
v 0.060000 3.960000 -1.920000
v 0.080000 3.880000 -1.980000
v 0.020000 3.840000 -1.940000
v 0.060000 2.040000 -1.980000
v 0.020000 1.880000 -1.940000
v 0.000000 2.080000 -1.920000
v 1.940000 0.040000 -0.060000
v 2.040000 0.000000 -0.080000
v 2.020000 0.120000 -0.020000
v 5.907085 0.040000 -0.060000
v 6.027085 0.120000 -0.080000
v 5.947085 0.160000 -0.020000
v 1.940000 3.960000 -0.080000
v 1.920000 3.880000 -0.020000
v 1.980000 3.840000 -0.060000
v 5.947085 1.960000 -0.080000
v 5.907085 1.880000 -0.020000
v 6.027085 1.840000 -0.060000
v 1.960000 0.000000 -1.920000
v 1.980000 0.120000 -1.980000
v 2.060000 0.040000 -1.940000
v 6.027085 0.160000 -1.940000
v 5.947085 0.040000 -1.920000
v 5.907085 0.120000 -1.980000
v 1.920000 3.960000 -1.940000
v 1.980000 3.880000 -1.920000
v 1.940000 3.840000 -1.980000
v 5.907085 1.960000 -1.940000
v 6.027085 1.880000 -1.920000
v 5.947085 1.840000 -1.980000
v 1.980000 2.080000 -1.940000
v 2.060000 2.040000 -1.920000
v 1.960000 1.880000 -1.980000
v 2.040000 1.960000 -0.060000
v 2.020000 2.120000 -0.080000
v 1.940000 1.920000 -0.020000
v 0.000000 2.580000 -0.080000
v 0.080000 3.380000 0.000000
v 0.080000 4.000000 -1.460000
v 0.000000 3.840000 -0.540000
v 0.080000 2.460000 -2.000000
v 0.000000 3.420000 -1.920000
v 0.000000 2.160000 -1.460000
v 0.000000 1.840000 -0.540000
v 0.000000 1.420000 -1.920000
v 0.080000 0.620000 -2.000000
v 0.000000 0.160000 -1.460000
v 0.080000 0.000000 -0.540000
v 0.080000 1.540000 0.000000
v 0.000000 0.580000 -0.080000
v 1.460000 4.000000 -1.920000
v 0.540000 3.840000 -2.000000
v 2.000000 2.580000 -1.920000
v 1.920000 3.340000 -2.000000
v 1.520000 0.160000 -2.000000
v 0.540000 0.000000 -1.920000
v 2.000000 2.160000 -0.540000
v 2.080000 2.000000 -1.460000
v 2.000000 3.840000 -1.460000
v 1.920000 4.000000 -0.540000
v 1.920000 2.340000 0.000000
v 2.000000 3.420000 -0.080000
v 1.460000 3.840000 0.000000
v 0.540000 4.000000 -0.080000
v 1.460000 0.000000 -0.080000
v 0.560000 0.160000 0.000000
v 1.920000 0.000000 -1.460000
v 2.080000 0.000000 -0.540000
v 2.907086 1.840000 -2.000000
v 4.987085 2.000000 -1.920000
v 5.907085 1.420000 -2.000000
v 6.067085 0.580000 -1.920000
v 4.947085 0.160000 -2.000000
v 3.147085 0.000000 -1.920000
v 5.907085 0.000000 -1.460000
v 6.067085 0.160000 -0.540000
v 6.067085 1.840000 -1.460000
v 5.907085 2.000000 -0.540000
v 6.067085 1.420000 -0.080000
v 5.907085 0.580000 0.000000
v 4.987085 0.000000 -0.080000
v 3.027086 0.160000 0.000000
v 3.147085 2.000000 -0.080000
v 4.907085 1.840000 0.000000
v 0.310000 2.000000 0.000000
v 2.000000 0.790000 0.000000
v 1.690000 1.880000 0.000000
v 1.980000 0.580000 -2.000000
v 1.460000 1.880000 -2.000000
v 1.980000 1.210000 0.000000
v 0.020000 3.380000 -0.060000
v 0.060000 3.960000 -0.540000
v 0.060000 3.420000 -1.980000
v 0.000000 2.080000 -0.540000
v 0.020000 0.620000 -1.940000
v 0.020000 0.120000 -0.540000
v 0.060000 0.580000 -0.020000
v 0.540000 3.960000 -1.940000
v 1.980000 3.340000 -1.940000
v 0.540000 0.120000 -1.980000
v 2.020000 2.120000 -1.460000
v 1.980000 3.880000 -0.540000
v 1.940000 3.420000 -0.020000
v 0.540000 3.880000 -0.020000
v 0.560000 0.040000 -0.060000
v 1.960000 0.000000 -0.540000
v 4.987085 1.880000 -1.980000
v 5.947085 0.580000 -1.980000
v 3.027086 0.120000 -1.980000
v 5.947085 0.040000 -0.540000
v 6.027085 1.880000 -0.540000
v 6.027085 0.580000 -0.060000
v 3.147085 0.040000 -0.060000
v 4.907085 1.960000 -0.060000
v 0.540000 0.000000 -1.460000
v 0.000000 0.580000 -1.460000
v 1.020000 1.040000 0.000000
v 0.310000 0.620000 0.000000
v 1.500000 1.040000 0.000000
v 1.230000 2.460000 0.000000
v 0.770000 2.460000 0.000000
v 0.000000 3.420000 -0.540000
v 1.460000 4.000000 -1.460000
v 1.520000 0.620000 -2.000000
v 0.540000 2.460000 -2.000000
v 3.147085 0.000000 -1.460000
v 3.027086 0.790000 0.000000
v 3.027086 1.210000 0.000000
v 6.067085 0.580000 -1.460000
v 2.000000 2.580000 -1.460000
v 4.987085 2.000000 -0.540000
v 2.907086 1.420000 -2.000000
v 1.250000 1.750000 0.000000
v 1.083333 1.833333 0.000000
v 1.833333 1.083333 0.000000
v 0.020000 0.120000 -0.080000
v 0.080000 0.040000 -0.060000
v 0.060000 0.160000 -0.020000
v 0.020000 3.840000 -0.060000
v 0.080000 3.880000 -0.020000
v 0.060000 3.960000 -0.080000
v 0.060000 2.040000 -0.020000
v 0.000000 2.080000 -0.080000
v 0.020000 1.880000 -0.060000
v 0.020000 0.160000 -1.940000
v 0.080000 0.120000 -1.980000
v 0.060000 0.040000 -1.920000
v 0.020000 3.880000 -1.920000
v 0.080000 3.960000 -1.940000
v 0.060000 3.840000 -1.980000
v 0.020000 2.120000 -1.940000
v 0.060000 1.960000 -1.980000
v 0.000000 1.920000 -1.920000
v 1.980000 0.120000 -0.020000
v 1.960000 0.000000 -0.080000
v 2.060000 0.040000 -0.060000
v 5.907085 0.120000 -0.020000
v 5.947085 0.040000 -0.080000
v 6.027085 0.160000 -0.060000
v 1.980000 3.880000 -0.080000
v 1.920000 3.960000 -0.060000
v 1.940000 3.840000 -0.020000
v 6.027085 1.880000 -0.080000
v 5.907085 1.960000 -0.060000
v 5.947085 1.840000 -0.020000
v 2.040000 0.000000 -1.920000
v 1.940000 0.040000 -1.940000
v 2.020000 0.120000 -1.980000
v 5.947085 0.160000 -1.980000
v 6.027085 0.120000 -1.920000
v 5.907085 0.040000 -1.940000
v 1.920000 3.880000 -1.980000
v 1.940000 3.960000 -1.920000
v 1.980000 3.840000 -1.940000
v 5.907085 1.880000 -1.980000
v 5.947085 1.960000 -1.920000
v 6.027085 1.840000 -1.940000
v 1.940000 1.920000 -1.980000
v 2.020000 2.120000 -1.920000
v 2.040000 1.960000 -1.940000
v 1.960000 1.880000 -0.020000
v 2.060000 2.040000 -0.080000
v 1.980000 2.080000 -0.060000
v 0.000000 3.420000 -0.080000
v 0.080000 2.460000 0.000000
v 0.080000 4.000000 -0.540000
v 0.000000 3.840000 -1.460000
v 0.080000 3.380000 -2.000000
v 0.000000 2.580000 -1.920000
v 0.000000 2.160000 -0.540000
v 0.000000 1.840000 -1.460000
v 0.000000 0.580000 -1.920000
v 0.080000 1.540000 -2.000000
v 0.000000 0.160000 -0.540000
v 0.080000 0.000000 -1.460000
v 0.080000 0.620000 0.000000
v 0.000000 1.420000 -0.080000
v 0.540000 4.000000 -1.920000
v 1.460000 3.840000 -2.000000
v 2.000000 3.420000 -1.920000
v 1.920000 2.340000 -2.000000
v 0.560000 0.160000 -2.000000
v 1.460000 0.000000 -1.920000
v 2.000000 2.160000 -1.460000
v 2.080000 2.000000 -0.540000
v 2.000000 3.840000 -0.540000
v 1.920000 4.000000 -1.460000
v 1.920000 3.340000 0.000000
v 2.000000 2.580000 -0.080000
v 0.540000 3.840000 0.000000
v 1.460000 4.000000 -0.080000
v 0.540000 0.000000 -0.080000
v 1.520000 0.160000 0.000000
v 1.920000 0.000000 -0.540000
v 2.080000 0.000000 -1.460000
v 4.907085 1.840000 -2.000000
v 3.147085 2.000000 -1.920000
v 5.907085 0.580000 -2.000000
v 6.067085 1.420000 -1.920000
v 3.027086 0.160000 -2.000000
v 4.987085 0.000000 -1.920000
v 5.907085 0.000000 -0.540000
v 6.067085 0.160000 -1.460000
v 6.067085 1.840000 -0.540000
v 5.907085 2.000000 -1.460000
v 6.067085 0.580000 -0.080000
v 5.907085 1.420000 0.000000
v 3.147085 0.000000 -0.080000
v 4.947085 0.160000 0.000000
v 4.987085 2.000000 -0.080000
v 2.907086 1.840000 0.000000
v 0.770000 2.000000 0.000000
v 2.000000 0.370000 0.000000
v 1.230000 1.960000 0.000000
v 1.940000 1.420000 -2.000000
v 0.540000 1.960000 -2.000000
v 1.940000 1.630000 0.000000
v 0.060000 2.460000 -0.020000
v 0.020000 3.880000 -1.460000
v 0.020000 2.580000 -1.940000
v 0.000000 1.920000 -1.460000
v 0.060000 1.540000 -1.980000
v 0.060000 0.040000 -1.460000
v 0.020000 1.420000 -0.060000
v 1.460000 3.880000 -1.980000
v 1.940000 2.340000 -1.980000
v 1.460000 0.040000 -1.940000
v 2.060000 2.040000 -0.540000
v 1.940000 3.960000 -1.460000
v 1.980000 2.580000 -0.060000
v 1.460000 3.960000 -0.060000
v 1.520000 0.120000 -0.020000
v 2.040000 0.000000 -1.460000
v 3.147085 1.960000 -1.940000
v 6.027085 1.420000 -1.940000
v 4.947085 0.040000 -1.940000
v 6.027085 0.120000 -1.460000
v 5.947085 1.960000 -1.460000
v 5.947085 1.420000 -0.020000
v 4.987085 0.120000 -0.020000
v 2.907086 1.880000 -0.020000
v 1.460000 0.000000 -0.540000
v 0.000000 1.420000 -0.540000
v 0.393333 0.453333 0.000000
v 0.770000 1.540000 0.000000
v 1.833333 0.453333 0.000000
v 1.690000 3.380000 0.000000
v 0.310000 3.380000 0.000000
v 0.000000 2.580000 -1.460000
v 0.540000 4.000000 -0.540000
v 0.560000 1.540000 -2.000000
v 1.460000 3.380000 -2.000000
v 4.987085 0.000000 -0.540000
v 4.947085 0.370000 0.000000
v 4.947085 1.630000 0.000000
v 6.067085 1.420000 -0.540000
v 2.000000 3.420000 -0.540000
v 3.147085 2.000000 -1.460000
v 4.907085 0.580000 -2.000000
v 1.750000 1.250000 0.000000
v 1.583333 1.333333 0.000000
v 1.333333 1.583333 0.000000
v 1.416667 1.416667 0.000000
v 4.907085 1.000000 -2.000000
v 3.907086 1.420000 -2.000000
v 4.907085 1.420000 -2.000000
v 4.067085 2.000000 -1.460000
v 4.987085 2.000000 -1.000000
v 4.987085 2.000000 -1.460000
v 2.000000 3.420000 -1.000000
v 2.000000 3.000000 -1.460000
v 2.000000 3.420000 -1.460000
v 6.067085 1.420000 -1.000000
v 6.067085 1.000000 -1.460000
v 6.067085 1.420000 -1.460000
v 3.987086 1.000000 0.000000
v 4.947085 0.790000 0.000000
v 4.947085 1.210000 0.000000
v 3.027086 0.580000 0.000000
v 3.027086 0.370000 0.000000
v 3.987086 0.370000 0.000000
v 4.987085 0.000000 -1.000000
v 4.067085 0.000000 -1.460000
v 4.987085 0.000000 -1.460000
v 1.000000 3.380000 -2.000000
v 0.540000 2.920000 -2.000000
v 0.540000 3.380000 -2.000000
v 0.560000 1.080000 -2.000000
v 1.040000 0.620000 -2.000000
v 0.560000 0.620000 -2.000000
v 0.540000 4.000000 -1.000000
v 1.000000 4.000000 -1.460000
v 0.540000 4.000000 -1.460000
v 0.000000 3.000000 -1.460000
v 0.000000 3.420000 -1.000000
v 0.000000 3.420000 -1.460000
v 1.000000 2.920000 0.000000
v 1.230000 3.380000 0.000000
v 0.770000 3.380000 0.000000
v 1.690000 2.880000 0.000000
v 1.460000 2.420000 0.000000
v 1.690000 2.380000 0.000000
v 1.186667 0.746667 0.000000
v 0.873333 0.453333 0.000000
v 1.353333 0.453333 0.000000
v 0.310000 1.080000 0.000000
v 0.540000 1.540000 0.000000
v 0.310000 1.540000 0.000000
v 0.623333 0.913333 0.000000
v 0.936667 1.206667 0.000000
v 0.853333 1.373333 0.000000
v 0.000000 1.000000 -0.540000
v 0.000000 0.580000 -1.000000
v 0.000000 0.580000 -0.540000
v 1.460000 0.000000 -1.000000
v 1.000000 0.000000 -1.460000
v 1.460000 0.000000 -1.460000
v 2.987086 1.920000 -0.040000
v 3.987086 1.960000 -0.060000
v 3.067086 1.960000 -0.060000
v 4.987085 0.080000 -0.040000
v 4.067085 0.040000 -0.060000
v 4.987085 0.040000 -0.060000
v 5.987085 1.420000 -0.040000
v 6.027085 1.000000 -0.060000
v 6.027085 1.420000 -0.060000
v 5.987085 1.920000 -1.460000
v 6.027085 1.880000 -1.000000
v 6.027085 1.880000 -1.460000
v 5.987085 0.080000 -1.460000
v 5.947085 0.040000 -1.000000
v 5.947085 0.040000 -1.460000
v 4.947085 0.080000 -1.960000
v 3.987086 0.120000 -1.980000
v 4.947085 0.120000 -1.980000
v 5.987085 1.420000 -1.960000
v 5.947085 1.000000 -1.980000
v 5.947085 1.420000 -1.980000
v 3.067086 1.920000 -1.960000
v 3.987086 1.880000 -1.980000
v 2.987086 1.880000 -1.980000
v 2.000000 0.000000 -1.460000
v 1.960000 0.000000 -1.000000
v 1.960000 0.000000 -1.460000
v 1.500000 0.080000 -0.040000
v 1.020000 0.040000 -0.060000
v 1.480000 0.040000 -0.060000
v 1.460000 3.920000 -0.040000
v 1.000000 3.880000 -0.020000
v 1.460000 3.880000 -0.020000
v 1.960000 2.500000 -0.040000
v 1.940000 2.920000 -0.020000
v 1.940000 2.420000 -0.020000
v 1.960000 3.920000 -1.460000
v 1.980000 3.880000 -1.000000
v 1.980000 3.880000 -1.460000
v 2.040000 2.080000 -0.540000
v 2.020000 2.120000 -1.000000
v 2.020000 2.120000 -0.540000
v 1.480000 0.080000 -1.960000
v 1.020000 0.120000 -1.980000
v 1.500000 0.120000 -1.980000
v 1.960000 2.420000 -1.960000
v 1.980000 2.920000 -1.940000
v 1.980000 2.500000 -1.940000
v 1.460000 3.920000 -1.960000
v 1.000000 3.960000 -1.940000
v 1.460000 3.960000 -1.940000
v 0.040000 1.460000 -0.040000
v 0.060000 1.040000 -0.020000
v 0.060000 1.500000 -0.020000
v 0.040000 0.080000 -1.460000
v 0.020000 0.120000 -1.000000
v 0.020000 0.120000 -1.460000
v 0.040000 1.500000 -1.960000
v 0.020000 1.040000 -1.940000
v 0.020000 1.460000 -1.940000
v 0.000000 2.000000 -1.460000
v 0.000000 2.080000 -1.000000
v 0.000000 2.080000 -1.460000
v 0.040000 2.540000 -1.960000
v 0.060000 2.960000 -1.980000
v 0.060000 2.500000 -1.980000
v 0.040000 3.920000 -1.460000
v 0.060000 3.960000 -1.000000
v 0.060000 3.960000 -1.460000
v 0.040000 2.500000 -0.040000
v 0.020000 2.960000 -0.060000
v 0.020000 2.540000 -0.060000
v 1.710000 1.670000 0.000000
v 1.480000 1.710000 0.000000
v 1.730000 1.460000 0.000000
v 2.987086 0.580000 -2.000000
v 2.947086 1.000000 -2.000000
v 3.947086 0.580000 -2.000000
v 3.147085 2.000000 -0.540000
v 4.067085 2.000000 -0.540000
v 3.147085 2.000000 -1.000000
v 2.000000 2.580000 -0.540000
v 2.000000 2.580000 -1.000000
v 2.000000 3.000000 -0.540000
v 6.067085 0.580000 -0.540000
v 6.067085 0.580000 -1.000000
v 6.067085 1.000000 -0.540000
v 2.987086 1.420000 0.000000
v 3.947086 1.630000 0.000000
v 2.947086 1.630000 0.000000
v 3.147085 0.000000 -0.540000
v 3.147085 0.000000 -1.000000
v 4.067085 0.000000 -0.540000
v 1.460000 2.380000 -2.000000
v 1.000000 2.420000 -2.000000
v 1.460000 2.880000 -2.000000
v 1.480000 1.460000 -2.000000
v 1.500000 1.040000 -2.000000
v 1.020000 1.500000 -2.000000
v 1.460000 4.000000 -0.540000
v 1.460000 4.000000 -1.000000
v 1.000000 4.000000 -0.540000
v 0.000000 2.580000 -0.540000
v 0.000000 3.000000 -0.540000
v 0.000000 2.580000 -1.000000
v 0.540000 2.460000 0.000000
v 0.310000 2.920000 0.000000
v 0.310000 2.460000 0.000000
v 1.666667 0.956667 0.000000
v 1.833333 0.663333 0.000000
v 1.833333 0.873333 0.000000
v 0.000000 1.420000 -1.460000
v 0.000000 1.000000 -1.460000
v 0.000000 1.420000 -1.000000
v 0.540000 0.000000 -0.540000
v 0.540000 0.000000 -1.000000
v 1.000000 0.000000 -0.540000
v 4.907085 1.880000 -0.020000
v 4.907085 1.920000 -0.040000
v 3.907086 1.880000 -0.020000
v 3.067086 0.120000 -0.020000
v 3.107085 0.080000 -0.040000
v 4.027085 0.120000 -0.020000
v 5.947085 0.580000 -0.020000
v 5.987085 0.580000 -0.040000
v 5.947085 1.000000 -0.020000
v 5.947085 1.960000 -0.540000
v 5.987085 1.920000 -0.540000
v 5.947085 1.960000 -1.000000
v 6.027085 0.120000 -0.540000
v 5.987085 0.080000 -0.540000
v 6.027085 0.120000 -1.000000
v 3.107085 0.040000 -1.940000
v 3.067086 0.080000 -1.960000
v 4.027085 0.040000 -1.940000
v 6.027085 0.580000 -1.940000
v 5.987085 0.580000 -1.960000
v 6.027085 1.000000 -1.940000
v 4.987085 1.960000 -1.940000
v 4.987085 1.920000 -1.960000
v 4.067085 1.960000 -1.940000
v 2.040000 0.000000 -0.540000
v 2.000000 0.000000 -0.540000
v 2.040000 0.000000 -1.000000
v 0.560000 0.120000 -0.020000
v 0.560000 0.080000 -0.040000
v 1.040000 0.120000 -0.020000
v 0.540000 3.960000 -0.060000
v 0.540000 3.920000 -0.040000
v 1.000000 3.960000 -0.060000
v 1.980000 3.420000 -0.060000
v 1.960000 3.420000 -0.040000
v 1.980000 3.000000 -0.060000
v 1.940000 3.960000 -0.540000
v 1.960000 3.920000 -0.540000
v 1.940000 3.960000 -1.000000
v 2.060000 2.040000 -1.460000
v 2.040000 2.080000 -1.460000
v 2.060000 2.040000 -1.000000
v 0.540000 0.040000 -1.940000
v 0.540000 0.080000 -1.960000
v 1.000000 0.040000 -1.940000
v 1.940000 3.340000 -1.980000
v 1.960000 3.340000 -1.960000
v 1.940000 2.840000 -1.980000
v 0.540000 3.880000 -1.980000
v 0.540000 3.920000 -1.960000
v 1.000000 3.880000 -1.980000
v 0.020000 0.580000 -0.060000
v 0.040000 0.580000 -0.040000
v 0.020000 1.000000 -0.060000
v 0.060000 0.040000 -0.540000
v 0.040000 0.080000 -0.540000
v 0.060000 0.040000 -1.000000
v 0.060000 0.620000 -1.980000
v 0.040000 0.620000 -1.960000
v 0.060000 1.080000 -1.980000
v 0.000000 1.920000 -0.540000
v 0.000000 2.000000 -0.540000
v 0.000000 1.920000 -1.000000
v 0.020000 3.420000 -1.940000
v 0.040000 3.420000 -1.960000
v 0.020000 3.000000 -1.940000
v 0.020000 3.880000 -0.540000
v 0.040000 3.920000 -0.540000
v 0.020000 3.880000 -1.000000
v 0.060000 3.380000 -0.020000
v 0.040000 3.380000 -0.040000
v 0.060000 2.920000 -0.020000
v 1.980000 1.960000 -0.040000
v 2.020000 2.000000 -0.060000
v 2.000000 2.040000 -0.060000
v 1.980000 1.960000 -1.960000
v 2.000000 2.040000 -1.940000
v 2.020000 2.000000 -1.940000
v 5.947085 1.880000 -1.960000
v 5.947085 1.920000 -1.940000
v 5.987085 1.880000 -1.940000
v 1.940000 3.880000 -1.960000
v 1.940000 3.920000 -1.940000
v 1.960000 3.880000 -1.940000
v 5.947085 0.120000 -1.960000
v 5.987085 0.120000 -1.940000
v 5.947085 0.080000 -1.940000
v 2.020000 0.040000 -1.940000
v 1.980000 0.040000 -1.940000
v 2.000000 0.080000 -1.960000
v 5.987085 1.880000 -0.060000
v 5.947085 1.920000 -0.060000
v 5.947085 1.880000 -0.040000
v 1.960000 3.880000 -0.060000
v 1.940000 3.920000 -0.060000
v 1.940000 3.880000 -0.040000
v 5.947085 0.120000 -0.040000
v 5.947085 0.080000 -0.060000
v 5.987085 0.120000 -0.060000
v 2.000000 0.080000 -0.040000
v 1.980000 0.040000 -0.060000
v 2.020000 0.040000 -0.060000
v 0.020000 2.040000 -1.940000
v 0.040000 2.000000 -1.960000
v 0.020000 1.960000 -1.940000
v 0.040000 3.880000 -1.940000
v 0.060000 3.920000 -1.940000
v 0.060000 3.880000 -1.960000
v 0.040000 0.120000 -1.940000
v 0.060000 0.120000 -1.960000
v 0.060000 0.080000 -1.940000
v 0.040000 2.000000 -0.040000
v 0.020000 2.040000 -0.060000
v 0.020000 1.960000 -0.060000
v 0.040000 3.880000 -0.060000
v 0.060000 3.880000 -0.040000
v 0.060000 3.920000 -0.060000
v 0.040000 0.120000 -0.060000
v 0.060000 0.080000 -0.060000
v 0.060000 0.120000 -0.040000
vn -0.6667 -0.3333 0.6667
vn -0.6667 0.3333 0.6667
vn -0.7071 -0.0000 0.7071
vn -0.6667 -0.3333 -0.6667
vn -0.6667 0.3333 -0.6667
vn -0.7071 -0.0000 -0.7071
vn -0.0000 -0.4472 0.8944
vn 0.4082 -0.4082 0.8165
vn 0.6667 0.3333 0.6667
vn 0.4082 0.4082 0.8165
vn -0.0000 -0.4472 -0.8944
vn 0.4083 -0.4082 -0.8165
vn 0.6667 0.3333 -0.6667
vn 0.4082 0.4082 -0.8165
vn 0.3123 0.1562 -0.9370
vn 0.3123 0.1562 0.9370
vn -0.8944 0.4472 -0.0000
vn -1.0000 -0.0000 -0.0000
vn -0.8944 -0.4472 -0.0000
vn -0.0000 0.4472 -0.8944
vn 0.7071 -0.0000 -0.7071
vn 0.8944 0.4472 -0.0000
vn 0.7071 -0.0000 0.7071
vn -0.0000 0.4472 0.8944
vn -0.0000 -1.0000 -0.0000
vn 0.4472 -0.0000 -0.8944
vn 0.7071 -0.7071 -0.0000
vn 0.7071 0.7071 -0.0000
vn 0.4472 -0.0000 0.8944
vn -0.0000 -0.0000 1.0000
vn -0.0000 1.0000 -0.0000
vn -0.0000 -0.0000 -1.0000
vn 1.0000 -0.0000 -0.0000
vn 0.4082 -0.4082 -0.8165
vt 0.375000 0.990000
vt 0.377500 0.990000
vt 0.377500 0.992500
vt 0.615000 0.000000
vt 0.617500 0.002500
vt 0.615000 0.002500
vt 0.510000 0.010000
vt 0.507500 0.010000
vt 0.507500 0.007500
vt 0.385000 0.260000
vt 0.382500 0.260000
vt 0.385833 0.256667
vt 0.625000 0.240000
vt 0.622500 0.244167
vt 0.622500 0.240000
vt 0.500000 0.258000
vt 0.499167 0.254333
vt 0.502500 0.253500
vt 0.370000 0.750000
vt 0.371250 0.748750
vt 0.373750 0.750000
vt 0.370000 0.740000
vt 0.375000 0.740000
vt 0.373125 0.743125
vt 0.632500 0.740000
vt 0.629375 0.743750
vt 0.628125 0.740000
vt 0.628750 0.740000
vt 0.624375 0.743125
vt 0.622813 0.740000
vt 0.370000 0.500000
vt 0.373750 0.500000
vt 0.371250 0.501250
vt 0.390000 0.510000
vt 0.385000 0.510000
vt 0.388125 0.506875
vt 0.632500 0.510000
vt 0.628125 0.510000
vt 0.629375 0.506250
vt 0.628750 0.510000
vt 0.622813 0.510000
vt 0.624375 0.506875
vt 0.510000 0.510000
vt 0.507500 0.510000
vt 0.505625 0.505625
vt 0.500000 0.740000
vt 0.502500 0.740000
vt 0.498125 0.744375
vt 0.615000 0.010000
vt 0.586250 0.007500
vt 0.615000 0.007500
vt 0.625000 0.010000
vt 0.622500 0.067500
vt 0.622500 0.010000
vt 0.615000 0.256667
vt 0.588750 0.252500
vt 0.615000 0.252500
vt 0.506667 0.068333
vt 0.388333 0.246667
vt 0.416250 0.249500
vt 0.387500 0.250000
vt 0.125000 0.740000
vt 0.127500 0.682500
vt 0.127500 0.740000
vt 0.385000 0.990000
vt 0.411250 0.992500
vt 0.385000 0.992500
vt 0.865000 0.510000
vt 0.803750 0.506250
vt 0.865000 0.507500
vt 0.615000 0.510000
vt 0.584375 0.505625
vt 0.616250 0.506250
vt 0.381250 0.320000
vt 0.507500 0.567500
vt 0.615000 0.740000
vt 0.619375 0.682500
vt 0.619375 0.740000
vt 0.620000 0.755000
vt 0.592500 0.751250
vt 0.618750 0.751250
vt 0.865000 0.750000
vt 0.806875 0.747500
vt 0.865000 0.747500
vt 0.377500 0.930000
vt 0.371250 0.688750
vt 0.611250 0.497500
vt 0.644688 0.500625
vt 0.615625 0.500625
vt 0.382500 0.497500
vt 0.438125 0.500625
vt 0.384375 0.500625
vt 0.250000 0.500000
vt 0.280000 0.502500
vt 0.251250 0.502500
vt 0.375000 0.682500
vt 0.605000 0.740000
vt 0.610938 0.682500
vt 0.610938 0.740000
vt 0.390000 0.740000
vt 0.445312 0.743125
vt 0.388125 0.743125
vt 0.255000 0.740000
vt 0.286875 0.743125
vt 0.253750 0.742500
vt 0.659063 0.742500
vt 0.135000 0.510000
vt 0.193750 0.570000
vt 0.135000 0.567500
vt 0.442500 0.187500
vt 0.442500 0.245000
vt 0.385000 0.750000
vt 0.398125 0.750000
vt 0.403333 0.770833
vt 0.615000 0.990000
vt 0.586250 0.990000
vt 0.586250 0.961250
vt 0.588750 0.067500
vt 0.588750 0.010000
vt 0.690625 0.567500
vt 0.632500 0.567500
vt 0.385000 0.500000
vt 0.413750 0.439500
vt 0.411875 0.498125
vt 0.530000 0.317250
vt 0.498125 0.316625
vt 0.255000 0.510000
vt 0.283750 0.567500
vt 0.255000 0.567500
vt 0.611250 0.752500
vt 0.609687 0.784375
vt 0.583437 0.783125
vt 0.443750 0.567500
vt 0.390000 0.567500
vt 0.536250 0.567500
vt 0.510000 0.567500
vt 0.657813 0.682500
vt 0.657813 0.740000
vt 0.605000 0.370000
vt 0.549375 0.401875
vt 0.552500 0.371250
vt 0.500000 0.875000
vt 0.484375 0.843750
vt 0.498125 0.845625
vt 0.625000 0.067500
vt 0.586250 0.257000
vt 0.510000 0.067500
vt 0.415417 0.245833
vt 0.125000 0.682500
vt 0.413750 0.990000
vt 0.806875 0.510000
vt 0.588750 0.510000
vt 0.385000 0.320000
vt 0.615000 0.682500
vt 0.588125 0.755625
vt 0.803750 0.751250
vt 0.373750 0.930000
vt 0.370000 0.687500
vt 0.645938 0.498125
vt 0.439687 0.497500
vt 0.283125 0.499375
vt 0.370000 0.682500
vt 0.605000 0.682500
vt 0.443750 0.740000
vt 0.283750 0.740000
vt 0.193750 0.507500
vt 0.390000 0.187500
vt 0.458333 0.833333
vt 0.468750 0.843750
vt 0.440000 0.872500
vt 0.500000 0.903750
vt 0.471250 0.903750
vt 0.385000 0.930000
vt 0.403333 0.950833
vt 0.530000 0.845000
vt 0.618750 0.813750
vt 0.590000 0.785000
vt 0.615000 0.067500
vt 0.690625 0.510000
vt 0.385000 0.440000
vt 0.528750 0.257667
vt 0.283750 0.510000
vt 0.395000 0.875000
vt 0.391875 0.844375
vt 0.421250 0.875000
vt 0.382500 0.752500
vt 0.439687 0.752500
vt 0.411875 0.783125
vt 0.443750 0.510000
vt 0.536250 0.510000
vt 0.628750 0.682500
vt 0.606563 0.401875
vt 0.489583 0.864583
vt 0.468750 0.812500
vt 0.458333 0.802083
vt 0.453125 0.781250
vt 0.473958 0.833333
vt 0.479167 0.854167
vt 0.463542 0.822917
vt 0.493750 0.433750
vt 0.495313 0.465625
vt 0.438125 0.465625
vt 0.550938 0.433750
vt 0.608125 0.433750
vt 0.609688 0.465625
vt 0.552500 0.465625
vt 0.686875 0.625000
vt 0.686875 0.567500
vt 0.715938 0.567500
vt 0.657813 0.625000
vt 0.628750 0.625000
vt 0.628750 0.567500
vt 0.657813 0.567500
vt 0.562500 0.625000
vt 0.588750 0.625000
vt 0.588750 0.682500
vt 0.562500 0.567500
vt 0.562500 0.510000
vt 0.588750 0.567500
vt 0.497500 0.625000
vt 0.551250 0.625000
vt 0.551250 0.682500
vt 0.497500 0.567500
vt 0.497500 0.510000
vt 0.551250 0.510000
vt 0.551250 0.567500
vt 0.441250 0.813750
vt 0.498437 0.813750
vt 0.470625 0.844375
vt 0.469063 0.783125
vt 0.496875 0.752500
vt 0.554062 0.752500
vt 0.526250 0.783125
vt 0.447500 0.875000
vt 0.444375 0.844375
vt 0.473750 0.875000
vt 0.418125 0.844375
vt 0.388750 0.813750
vt 0.385625 0.783125
vt 0.415000 0.813750
vt 0.312500 0.625000
vt 0.341250 0.625000
vt 0.341250 0.682500
vt 0.312500 0.567500
vt 0.312500 0.510000
vt 0.341250 0.510000
vt 0.341250 0.567500
vt 0.560000 0.376500
vt 0.588750 0.376167
vt 0.590000 0.435750
vt 0.558750 0.316917
vt 0.557500 0.257333
vt 0.587500 0.316583
vt 0.442500 0.379000
vt 0.442500 0.319000
vt 0.471250 0.318500
vt 0.413750 0.379500
vt 0.385000 0.380000
vt 0.413750 0.319500
vt 0.748750 0.625000
vt 0.806875 0.625000
vt 0.806875 0.682500
vt 0.748750 0.567500
vt 0.748750 0.510000
vt 0.806875 0.567500
vt 0.562500 0.125000
vt 0.562500 0.182500
vt 0.536250 0.182500
vt 0.588750 0.125000
vt 0.615000 0.125000
vt 0.615000 0.182500
vt 0.588750 0.182500
vt 0.560000 0.815000
vt 0.558750 0.873750
vt 0.588750 0.843750
vt 0.617500 0.872500
vt 0.616250 0.931250
vt 0.587500 0.902500
vt 0.558125 0.785625
vt 0.528125 0.815625
vt 0.496250 0.816250
vt 0.494375 0.786875
vt 0.526250 0.786250
vt 0.421667 0.911667
vt 0.421667 0.851667
vt 0.403333 0.890833
vt 0.385000 0.870000
vt 0.385000 0.810000
vt 0.403333 0.830833
vt 0.442500 0.932500
vt 0.442500 0.961250
vt 0.413750 0.961250
vt 0.471250 0.932500
vt 0.500000 0.932500
vt 0.500000 0.961250
vt 0.471250 0.961250
vt 0.432083 0.922083
vt 0.450417 0.882917
vt 0.460833 0.893333
vt 0.496667 0.128333
vt 0.498333 0.069167
vt 0.550833 0.069167
vt 0.444167 0.128333
vt 0.391667 0.128333
vt 0.393333 0.069167
vt 0.445833 0.069167
vt 0.252500 0.630000
vt 0.311250 0.627500
vt 0.311250 0.690000
vt 0.252500 0.567500
vt 0.252500 0.505000
vt 0.311250 0.502500
vt 0.311250 0.565000
vt 0.689375 0.745000
vt 0.718438 0.745000
vt 0.719688 0.747500
vt 0.688125 0.742500
vt 0.686875 0.740000
vt 0.715938 0.740000
vt 0.717188 0.742500
vt 0.318750 0.746250
vt 0.347500 0.746250
vt 0.350625 0.749375
vt 0.315625 0.743125
vt 0.312500 0.740000
vt 0.341250 0.740000
vt 0.344375 0.743125
vt 0.500625 0.746250
vt 0.554375 0.746250
vt 0.555938 0.749375
vt 0.499063 0.743125
vt 0.497500 0.740000
vt 0.551250 0.740000
vt 0.552812 0.743125
vt 0.616875 0.625000
vt 0.616875 0.567500
vt 0.622813 0.567500
vt 0.610938 0.625000
vt 0.605000 0.625000
vt 0.605000 0.567500
vt 0.610938 0.567500
vt 0.380000 0.625000
vt 0.380000 0.567500
vt 0.385000 0.567500
vt 0.375000 0.625000
vt 0.370000 0.625000
vt 0.370000 0.567500
vt 0.375000 0.567500
vt 0.310000 0.505000
vt 0.343125 0.504375
vt 0.340000 0.507500
vt 0.313125 0.501875
vt 0.316250 0.498750
vt 0.349375 0.498125
vt 0.346250 0.501250
vt 0.493750 0.503750
vt 0.550938 0.503750
vt 0.549375 0.506875
vt 0.495313 0.500625
vt 0.496875 0.497500
vt 0.554063 0.497500
vt 0.552500 0.500625
vt 0.678125 0.503750
vt 0.712813 0.504375
vt 0.711563 0.506875
vt 0.679375 0.501250
vt 0.680625 0.498750
vt 0.715312 0.499375
vt 0.714063 0.501875
vt 0.372500 0.627500
vt 0.372500 0.565000
vt 0.373750 0.566250
vt 0.371250 0.626250
vt 0.370000 0.562500
vt 0.371250 0.563750
vt 0.380000 0.870000
vt 0.378750 0.810000
vt 0.382500 0.810000
vt 0.376250 0.870000
vt 0.372500 0.870000
vt 0.371250 0.810000
vt 0.375000 0.810000
vt 0.748750 0.745000
vt 0.687500 0.746250
vt 0.690625 0.742500
vt 0.745625 0.748750
vt 0.742500 0.752500
vt 0.681250 0.753750
vt 0.684375 0.750000
vt 0.565000 0.747500
vt 0.533125 0.748125
vt 0.537500 0.743750
vt 0.560625 0.751875
vt 0.556250 0.756250
vt 0.524375 0.756875
vt 0.528750 0.752500
vt 0.623750 0.625000
vt 0.623750 0.567500
vt 0.628125 0.567500
vt 0.619375 0.625000
vt 0.615000 0.625000
vt 0.615000 0.567500
vt 0.619375 0.567500
vt 0.505000 0.625000
vt 0.505000 0.682500
vt 0.502500 0.682500
vt 0.507500 0.625000
vt 0.510000 0.625000
vt 0.510000 0.682500
vt 0.507500 0.682500
vt 0.377500 0.380000
vt 0.377500 0.440000
vt 0.373750 0.440000
vt 0.381250 0.380000
vt 0.381250 0.440000
vt 0.553750 0.501250
vt 0.527500 0.501250
vt 0.523125 0.496875
vt 0.558125 0.505625
vt 0.531875 0.505625
vt 0.742500 0.502500
vt 0.684375 0.502500
vt 0.681250 0.498750
vt 0.745625 0.506250
vt 0.687500 0.506250
vt 0.437500 0.995000
vt 0.466250 0.995000
vt 0.463750 0.997500
vt 0.440000 0.992500
vt 0.442500 0.990000
vt 0.471250 0.990000
vt 0.468750 0.992500
vt 0.130000 0.625000
vt 0.130000 0.567500
vt 0.132500 0.567500
vt 0.127500 0.625000
vt 0.125000 0.625000
vt 0.125000 0.567500
vt 0.127500 0.567500
vt 0.444167 0.252333
vt 0.471250 0.251500
vt 0.472083 0.255167
vt 0.443333 0.248667
vt 0.469583 0.244167
vt 0.470417 0.247833
vt 0.503333 0.126667
vt 0.503333 0.184167
vt 0.500000 0.185000
vt 0.506667 0.125833
vt 0.510000 0.125000
vt 0.510000 0.182500
vt 0.506667 0.183333
vt 0.562500 0.248333
vt 0.533750 0.248667
vt 0.536250 0.244167
vt 0.560000 0.252833
vt 0.531250 0.253167
vt 0.620000 0.125000
vt 0.620000 0.182500
vt 0.617500 0.182500
vt 0.622500 0.125000
vt 0.625000 0.125000
vt 0.625000 0.182500
vt 0.622500 0.182500
vt 0.557500 0.005000
vt 0.531250 0.005000
vt 0.528750 0.002500
vt 0.560000 0.007500
vt 0.562500 0.010000
vt 0.536250 0.010000
vt 0.533750 0.007500
vt 0.480625 0.785000
vt 0.482500 0.814375
vt 0.466875 0.783125
vt 0.500000 0.372500
vt 0.444375 0.404375
vt 0.447500 0.373750
vt 0.496875 0.403125
vt 0.441250 0.435000
vt 0.715938 0.682500
vt 0.686875 0.682500
vt 0.715938 0.625000
vt 0.536250 0.682500
vt 0.536250 0.625000
vt 0.562500 0.682500
vt 0.390000 0.625000
vt 0.443750 0.682500
vt 0.390000 0.682500
vt 0.443750 0.625000
vt 0.497500 0.682500
vt 0.555625 0.813750
vt 0.554062 0.845625
vt 0.527812 0.844375
vt 0.581875 0.815000
vt 0.608125 0.816250
vt 0.606562 0.848125
vt 0.580312 0.846875
vt 0.255000 0.625000
vt 0.283750 0.682500
vt 0.255000 0.682500
vt 0.283750 0.625000
vt 0.312500 0.682500
vt 0.496250 0.375250
vt 0.526250 0.434500
vt 0.494375 0.433875
vt 0.528125 0.375875
vt 0.558125 0.435125
vt 0.438750 0.496250
vt 0.467500 0.435750
vt 0.465625 0.494375
vt 0.440625 0.437625
vt 0.469375 0.377125
vt 0.632500 0.625000
vt 0.690625 0.682500
vt 0.632500 0.682500
vt 0.690625 0.625000
vt 0.748750 0.682500
vt 0.536250 0.067500
vt 0.562500 0.067500
vt 0.536250 0.125000
vt 0.557500 0.932500
vt 0.528750 0.932500
vt 0.528750 0.903750
vt 0.557500 0.961250
vt 0.557500 0.990000
vt 0.528750 0.990000
vt 0.528750 0.961250
vt 0.421667 0.791667
vt 0.434792 0.791667
vt 0.440000 0.812500
vt 0.416458 0.770833
vt 0.411250 0.750000
vt 0.424375 0.750000
vt 0.429583 0.770833
vt 0.496667 0.243333
vt 0.550833 0.184167
vt 0.550833 0.241667
vt 0.496667 0.185833
vt 0.550833 0.126667
vt 0.135000 0.625000
vt 0.193750 0.685000
vt 0.135000 0.682500
vt 0.193750 0.627500
vt 0.252500 0.687500
vt 0.620000 0.746250
vt 0.650312 0.748750
vt 0.615625 0.749375
vt 0.654688 0.745625
vt 0.685000 0.748125
vt 0.252500 0.745000
vt 0.284375 0.748125
vt 0.251250 0.747500
vt 0.285625 0.745625
vt 0.317500 0.748750
vt 0.386250 0.746250
vt 0.441562 0.749375
vt 0.384375 0.749375
vt 0.443438 0.746250
vt 0.498750 0.749375
vt 0.616875 0.740000
vt 0.622813 0.682500
vt 0.616875 0.682500
vt 0.622813 0.625000
vt 0.380000 0.740000
vt 0.385000 0.682500
vt 0.385000 0.740000
vt 0.380000 0.682500
vt 0.385000 0.625000
vt 0.282500 0.507500
vt 0.253750 0.507500
vt 0.281250 0.505000
vt 0.311250 0.507500
vt 0.386250 0.503750
vt 0.441875 0.506875
vt 0.440000 0.503750
vt 0.495625 0.506875
vt 0.620000 0.503750
vt 0.653438 0.506875
vt 0.649063 0.503750
vt 0.682500 0.506875
vt 0.372500 0.747500
vt 0.373750 0.686250
vt 0.373750 0.746250
vt 0.372500 0.687500
vt 0.373750 0.626250
vt 0.380000 0.990000
vt 0.382500 0.930000
vt 0.382500 0.990000
vt 0.380000 0.930000
vt 0.382500 0.870000
vt 0.865000 0.745000
vt 0.806875 0.742500
vt 0.865000 0.742500
vt 0.806875 0.745000
vt 0.748750 0.742500
vt 0.617500 0.747500
vt 0.590000 0.743750
vt 0.616250 0.743750
vt 0.591250 0.747500
vt 0.563750 0.743750
vt 0.623750 0.740000
vt 0.628125 0.682500
vt 0.623750 0.682500
vt 0.628125 0.625000
vt 0.505000 0.510000
vt 0.502500 0.567500
vt 0.502500 0.510000
vt 0.505000 0.567500
vt 0.502500 0.625000
vt 0.380000 0.260000
vt 0.376250 0.320000
vt 0.377500 0.260000
vt 0.378750 0.320000
vt 0.375000 0.380000
vt 0.617500 0.502500
vt 0.586875 0.498125
vt 0.618750 0.498750
vt 0.585625 0.501875
vt 0.555000 0.497500
vt 0.865000 0.505000
vt 0.803750 0.501250
vt 0.865000 0.502500
vt 0.803750 0.503750
vt 0.742500 0.500000
vt 0.385000 0.995000
vt 0.411250 0.997500
vt 0.385000 0.997500
vt 0.411250 0.995000
vt 0.437500 0.997500
vt 0.130000 0.740000
vt 0.132500 0.682500
vt 0.132500 0.740000
vt 0.130000 0.682500
vt 0.132500 0.625000
vt 0.386667 0.253333
vt 0.414583 0.256167
vt 0.415417 0.252833
vt 0.443333 0.255667
vt 0.505000 0.010000
vt 0.501667 0.068333
vt 0.502500 0.010000
vt 0.504167 0.068333
vt 0.500833 0.126667
vt 0.615000 0.248333
vt 0.588750 0.244167
vt 0.615000 0.244167
vt 0.588750 0.248333
vt 0.562500 0.244167
vt 0.620000 0.010000
vt 0.617500 0.067500
vt 0.617500 0.010000
vt 0.620000 0.067500
vt 0.617500 0.125000
vt 0.615000 0.005000
vt 0.586250 0.002500
vt 0.586250 0.005000
vt 0.557500 0.002500
vt 0.496250 0.748750
vt 0.498750 0.748750
vt 0.494375 0.753125
vt 0.500625 0.744375
vt 0.505000 0.740000
vt 0.507500 0.740000
vt 0.503125 0.744375
vt 0.501250 0.501250
vt 0.498750 0.501250
vt 0.496875 0.496875
vt 0.503125 0.505625
vt 0.500625 0.505625
vt 0.614063 0.503750
vt 0.618438 0.506875
vt 0.616875 0.510000
vt 0.610938 0.510000
vt 0.612500 0.506875
vt 0.626250 0.502500
vt 0.621875 0.502500
vt 0.623125 0.498750
vt 0.625000 0.506250
vt 0.623750 0.510000
vt 0.619375 0.510000
vt 0.620625 0.506250
vt 0.381250 0.503750
vt 0.383125 0.506875
vt 0.380000 0.510000
vt 0.375000 0.510000
vt 0.378125 0.506875
vt 0.372500 0.502500
vt 0.376250 0.502500
vt 0.373750 0.503750
vt 0.375000 0.501250
vt 0.377500 0.500000
vt 0.381250 0.500000
vt 0.378750 0.501250
vt 0.612500 0.743125
vt 0.618438 0.743125
vt 0.614062 0.746250
vt 0.620625 0.743750
vt 0.625000 0.743750
vt 0.626250 0.747500
vt 0.623125 0.751250
vt 0.621875 0.747500
vt 0.376250 0.746250
vt 0.381250 0.746250
vt 0.379375 0.749375
vt 0.378125 0.743125
vt 0.383125 0.743125
vt 0.377500 0.750000
vt 0.378750 0.748750
vt 0.381250 0.750000
vt 0.375000 0.748750
vt 0.376250 0.747500
vt 0.505000 0.249000
vt 0.504167 0.245333
vt 0.507500 0.244500
vt 0.501667 0.249833
vt 0.498333 0.250667
vt 0.497500 0.247000
vt 0.500833 0.246167
vt 0.620000 0.240000
vt 0.617500 0.244167
vt 0.617500 0.240000
vt 0.620000 0.244167
vt 0.620000 0.248333
vt 0.617500 0.252500
vt 0.617500 0.248333
vt 0.384167 0.253333
vt 0.383333 0.256667
vt 0.380833 0.256667
vt 0.505000 0.005000
vt 0.502500 0.005000
vt 0.502500 0.002500
vt 0.505000 0.007500
vt 0.502500 0.007500
vt 0.617500 0.007500
vt 0.617500 0.005000
vt 0.620000 0.005000
vt 0.622500 0.007500
vt 0.620000 0.007500
vt 0.380000 0.995000
vt 0.382500 0.995000
vt 0.382500 0.997500
vt 0.380000 0.992500
vt 0.382500 0.992500
vt 0.385000 1.000000
vt 0.500000 0.007500
vt 0.500000 0.005000
vt 0.500000 0.010000
vt 0.500000 0.002500
vt 0.500000 0.000000
vt 0.378333 0.256667
vt 0.381667 0.253333
vt 0.375000 0.260000
vt 0.385000 0.250000
vt 0.615000 0.240000
vt 0.500000 0.242500
vt 0.503333 0.241667
vt 0.506667 0.240833
vt 0.510000 0.240000
vt 0.377500 0.746250
vt 0.380000 0.747500
vt 0.375000 0.745000
vt 0.382500 0.748750
vt 0.609687 0.749375
vt 0.608125 0.746250
vt 0.606562 0.743125
vt 0.382500 0.501250
vt 0.380000 0.502500
vt 0.377500 0.503750
vt 0.375000 0.505000
vt 0.373125 0.506875
vt 0.376250 0.503750
vt 0.370000 0.510000
vt 0.379375 0.500625
vt 0.620000 0.495000
vt 0.606563 0.506875
vt 0.608125 0.503750
vt 0.605000 0.510000
vt 0.609688 0.500625
vt 0.498125 0.505625
vt 0.496250 0.501250
vt 0.500000 0.510000
vt 0.494375 0.496875
vt 0.492500 0.492500
vt 0.505625 0.744375
vt 0.501250 0.748750
vt 0.510000 0.740000
vt 0.496875 0.753125
vt 0.492500 0.757500
vt 0.528750 0.000000
vt 0.557500 0.000000
vt 0.586250 0.000000
vt 0.536250 0.240000
vt 0.562500 0.240000
vt 0.588750 0.240000
vt 0.497500 0.185000
vt 0.498333 0.126667
vt 0.499167 0.068333
vt 0.471250 0.258500
vt 0.442500 0.259000
vt 0.413750 0.259500
vt 0.135000 0.740000
vt 0.463750 1.000000
vt 0.437500 1.000000
vt 0.490000 1.000000
vt 0.411250 1.000000
vt 0.681250 0.496250
vt 0.742500 0.497500
vt 0.803750 0.498750
vt 0.865000 0.500000
vt 0.524375 0.493125
vt 0.556250 0.493750
vt 0.588125 0.494375
vt 0.371250 0.440000
vt 0.372500 0.380000
vt 0.373750 0.320000
vt 0.500000 0.682500
vt 0.500000 0.625000
vt 0.500000 0.567500
vt 0.536250 0.740000
vt 0.562500 0.740000
vt 0.588750 0.740000
vt 0.690625 0.740000
vt 0.748750 0.740000
vt 0.806875 0.740000
vt 0.865000 0.740000
vt 0.375000 0.565000
vt 0.375000 0.685000
vt 0.715938 0.510000
vt 0.686875 0.510000
vt 0.745000 0.510000
vt 0.657813 0.510000
vt 0.349375 0.751875
vt 0.316250 0.751250
vt 0.283125 0.750625
vt 0.250000 0.750000
vt 0.715312 0.750625
vt 0.680625 0.751250
vt 0.750000 0.750000
vt 0.645937 0.751875
vt 0.311250 0.747500
vt 0.193750 0.742500
vt 0.605000 0.067500
vt 0.605000 0.125000
vt 0.605000 0.010000
vt 0.605000 0.182500
vt 0.605000 0.240000
vt 0.442708 0.770833
vt 0.447917 0.791667
vt 0.437500 0.750000
vt 0.453125 0.812500
vt 0.500000 0.990000
vt 0.578750 0.878750
vt 0.552500 0.877500
vt 0.605000 0.880000
vt 0.526250 0.876250
vt 0.745000 0.567500
vt 0.745000 0.625000
vt 0.745000 0.682500
vt 0.745000 0.740000
vt 0.385625 0.466875
vt 0.388750 0.436250
vt 0.391875 0.405625
vt 0.395000 0.375000
vt 0.451250 0.751875
vt 0.465000 0.753750
vt 0.478750 0.755625
vt 0.127500 0.510000
vt 0.130000 0.510000
vt 0.125000 0.510000
vt 0.132500 0.510000
vt 0.497500 0.992500
vt 0.495000 0.995000
vt 0.492500 0.997500
vt 0.748750 0.502500
vt 0.747500 0.505000
vt 0.750000 0.500000
vt 0.746250 0.507500
vt 0.746250 0.742500
vt 0.747500 0.745000
vt 0.748750 0.747500
vt 0.447500 0.010000
vt 0.500000 0.010000
vt 0.395000 0.010000
vt 0.552500 0.010000
vt 0.865000 0.567500
vt 0.865000 0.625000
vt 0.865000 0.682500
vt 0.616250 0.316250
vt 0.617500 0.375833
vt 0.618750 0.435417
s 0
usemtl 
f 4/1/1 349/2/1 201/3/1
f 7/4/2 352/5/2 204/6/2
f 10/7/3 355/8/3 207/9/3
f 13/10/4 358/11/4 210/12/4
f 16/13/5 361/14/5 213/15/5
f 19/16/6 364/17/6 216/18/6
f 22/19/7 367/20/7 219/21/7
f 25/22/8 370/23/8 222/24/8
f 28/25/9 373/26/9 225/27/9
f 31/28/10 376/29/10 228/30/10
f 34/31/11 379/32/11 231/33/11
f 37/34/12 382/35/12 234/36/12
f 40/37/13 385/38/13 237/39/13
f 43/40/14 388/41/14 240/42/14
f 46/43/15 391/44/15 243/45/15
f 49/46/16 394/47/16 246/48/16
f 9/49/3 303/50/3 351/51/3
f 8/52/17 304/53/17 353/54/17
f 17/55/6 305/56/6 362/57/6
f 10/7/18 306/58/18 355/8/18
f 15/59/6 307/60/6 357/61/6
f 6/62/19 308/63/19 348/64/19
f 5/65/3 309/66/3 350/67/3
f 16/68/20 310/69/20 361/70/20
f 41/71/21 311/72/21 386/73/21
f 13/10/11 312/74/11 358/11/11
f 46/43/22 313/75/22 391/44/22
f 30/76/22 314/77/22 372/78/22
f 29/79/23 315/80/23 374/81/23
f 7/82/24 316/83/24 352/84/24
f 4/1/7 317/85/7 349/2/7
f 22/19/25 318/86/25 367/20/25
f 45/87/20 319/88/20 387/89/20
f 39/90/26 320/91/26 381/92/26
f 35/93/11 321/94/11 380/95/11
f 25/22/27 322/96/27 370/23/27
f 33/97/28 323/98/28 375/99/28
f 26/100/29 324/101/29 371/102/29
f 23/103/7 325/104/7 368/105/7
f 31/28/24 326/106/24 376/29/24
f 14/107/25 327/108/25 407/109/25
f 15/59/18 328/110/18 404/111/18
f 24/112/30 445/113/30 478/114/30
f 7/115/30 250/116/30 480/117/30
f 9/49/18 334/118/18 396/119/18
f 40/37/31 335/120/31 419/121/31
f 35/122/32 336/123/32 300/124/32
f 19/16/32 337/125/32 448/126/32
f 36/127/25 338/128/25 427/129/25
f 32/130/30 296/131/30 487/132/30
f 37/34/33 341/133/33 435/134/33
f 46/43/33 342/135/33 416/136/33
f 31/28/31 343/137/31 442/138/31
f 48/139/32 344/140/32 447/141/32
f 2/142/30 345/143/30 446/144/30
f 9/49/3 396/119/3 303/50/3
f 8/52/17 398/145/17 304/53/17
f 17/55/6 400/146/6 305/56/6
f 10/7/18 402/147/18 306/58/18
f 15/59/6 404/148/6 307/60/6
f 6/62/19 406/149/19 308/63/19
f 5/65/3 408/150/3 309/66/3
f 16/68/20 410/151/20 310/69/20
f 41/71/21 412/152/21 311/72/21
f 13/10/11 414/153/11 312/74/11
f 46/43/22 416/136/22 313/75/22
f 30/76/22 418/154/22 314/77/22
f 29/79/23 420/155/23 315/80/23
f 7/82/24 422/156/24 316/83/24
f 4/1/7 424/157/7 317/85/7
f 22/19/25 426/158/25 318/86/25
f 45/87/20 428/159/20 319/88/20
f 39/90/26 430/160/26 320/91/26
f 35/93/11 432/161/11 321/94/11
f 25/22/27 434/162/27 322/96/27
f 33/97/28 436/163/28 323/98/28
f 26/100/29 438/164/29 324/101/29
f 23/103/7 440/165/7 325/104/7
f 31/28/24 442/138/24 326/106/24
f 14/107/25 268/166/25 327/108/25
f 15/59/18 259/167/18 328/110/18
f 3/168/30 199/169/30 329/170/30
f 2/142/30 444/171/30 477/172/30
f 5/65/30 278/173/30 476/174/30
f 2/142/30 446/144/30 332/175/30
f 29/79/30 275/176/30 479/177/30
f 9/49/18 252/178/18 334/118/18
f 40/37/31 263/179/31 335/120/31
f 35/122/32 267/180/32 336/123/32
f 19/16/32 253/181/32 337/125/32
f 36/127/25 286/182/25 338/128/25
f 24/183/30 294/184/30 445/185/30
f 27/186/30 292/187/30 486/188/30
f 37/34/33 284/189/33 341/133/33
f 46/43/33 265/190/33 342/135/33
f 31/28/31 290/191/31 343/137/31
f 48/139/32 281/192/32 344/140/32
f 2/142/30 346/193/30 345/143/30
f 198/194/30 493/195/30 492/196/30
f 198/194/30 494/197/30 493/195/30
f 52/198/30 199/169/30 495/199/30
f 197/200/32 496/201/32 491/202/32
f 197/200/32 497/203/32 496/201/32
f 134/204/32 428/205/32 498/206/32
f 196/207/31 499/208/31 490/209/31
f 196/207/31 500/210/31 499/208/31
f 143/211/31 437/212/31 501/213/31
f 195/214/33 502/215/33 489/216/33
f 195/214/33 503/217/33 502/215/33
f 118/218/33 412/152/33 504/219/33
f 194/220/33 505/221/33 488/222/33
f 194/220/33 506/223/33 505/221/33
f 137/224/33 431/225/33 507/226/33
f 192/227/30 508/228/30 339/229/30
f 192/227/30 509/230/30 508/228/30
f 145/231/30 439/232/30 510/233/30
f 151/234/30 511/235/30 298/236/30
f 151/234/30 512/237/30 511/235/30
f 147/238/30 441/239/30 513/240/30
f 191/241/25 514/242/25 485/243/25
f 191/241/25 515/244/25 514/242/25
f 139/245/25 433/246/25 516/247/25
f 190/248/32 517/249/32 484/250/32
f 190/248/32 518/251/32 517/249/32
f 106/252/32 400/146/32 519/253/32
f 189/254/32 520/255/32 483/256/32
f 189/254/32 521/257/32 520/255/32
f 120/258/32 414/153/32 522/259/32
f 188/260/31 523/261/31 482/262/31
f 188/260/31 524/263/31 523/261/31
f 116/264/31 410/151/31 525/265/31
f 187/266/18 526/267/18 481/268/18
f 187/266/18 527/269/18 526/267/18
f 105/270/18 399/271/18 528/272/18
f 185/273/30 529/274/30 332/175/30
f 185/273/30 530/275/30 529/274/30
f 128/276/30 422/277/30 531/278/30
f 185/273/30 532/279/30 479/177/30
f 185/273/30 533/280/30 532/279/30
f 152/281/30 299/282/30 534/283/30
f 182/284/30 535/285/30 329/170/30
f 182/284/30 536/286/30 535/285/30
f 131/287/30 425/288/30 537/289/30
f 183/290/30 538/291/30 330/292/30
f 183/290/30 539/293/30 538/291/30
f 150/294/30 297/295/30 540/296/30
f 182/284/30 541/297/30 476/174/30
f 182/284/30 542/298/30 541/297/30
f 52/198/30 346/193/30 543/299/30
f 181/300/18 544/301/18 475/302/18
f 181/300/18 545/303/18 544/301/18
f 112/304/18 406/305/18 546/306/18
f 180/307/25 547/308/25 474/309/25
f 180/307/25 548/310/25 547/308/25
f 121/311/25 415/312/25 549/313/25
f 179/314/24 550/315/24 473/316/24
f 179/314/24 551/317/24 550/315/24
f 148/318/24 295/319/24 552/320/24
f 178/321/7 553/322/7 472/323/7
f 178/321/7 554/324/7 553/322/7
f 146/325/7 293/326/7 555/327/7
f 177/328/29 556/329/29 471/330/29
f 177/328/29 557/331/29 556/329/29
f 144/332/29 291/333/29 558/334/29
f 176/335/28 559/336/28 470/337/28
f 176/335/28 560/338/28 559/336/28
f 142/339/28 289/340/28 561/341/28
f 175/342/27 562/343/27 469/344/27
f 175/342/27 563/345/27 562/343/27
f 140/346/27 287/347/27 564/348/27
f 174/349/11 565/350/11 468/351/11
f 174/349/11 566/352/11 565/350/11
f 138/353/11 285/354/11 567/355/11
f 173/356/26 568/357/26 467/358/26
f 173/356/26 569/359/26 568/357/26
f 136/360/26 283/361/26 570/362/26
f 172/363/20 571/364/20 466/365/20
f 172/363/20 572/366/20 571/364/20
f 134/367/20 281/368/20 573/369/20
f 171/370/25 574/371/25 465/372/25
f 171/370/25 575/373/25 574/371/25
f 132/346/25 279/374/25 576/375/25
f 170/376/7 577/377/7 464/378/7
f 170/376/7 578/379/7 577/377/7
f 130/380/7 277/381/7 579/382/7
f 169/383/24 580/384/24 463/385/24
f 169/383/24 581/386/24 580/384/24
f 128/387/24 275/388/24 582/389/24
f 168/390/23 583/391/23 462/392/23
f 168/390/23 584/393/23 583/391/23
f 126/394/23 273/395/23 585/396/23
f 167/397/22 586/398/22 461/399/22
f 167/397/22 587/400/22 586/398/22
f 124/401/22 271/402/22 588/403/22
f 166/404/22 589/405/22 460/406/22
f 166/404/22 590/407/22 589/405/22
f 122/408/22 269/409/22 591/410/22
f 165/411/11 592/412/11 459/413/11
f 165/411/11 593/414/11 592/412/11
f 120/258/11 267/180/11 594/415/11
f 164/416/21 595/417/21 458/418/21
f 164/416/21 596/419/21 595/417/21
f 118/218/21 265/190/21 597/420/21
f 163/421/20 598/422/20 457/423/20
f 163/421/20 599/424/20 598/422/20
f 116/264/20 263/179/20 600/425/20
f 162/426/3 601/427/3 456/428/3
f 162/426/3 602/429/3 601/427/3
f 114/430/3 261/431/3 603/432/3
f 161/433/19 604/434/19 455/435/19
f 161/433/19 605/436/19 604/434/19
f 112/437/19 259/438/19 606/439/19
f 160/440/6 607/441/6 454/442/6
f 160/440/6 608/443/6 607/441/6
f 110/111/6 257/444/6 609/445/6
f 159/446/18 610/447/18 453/448/18
f 159/446/18 611/449/18 610/447/18
f 108/450/18 255/451/18 612/452/18
f 158/453/6 613/454/6 452/455/6
f 158/453/6 614/456/6 613/454/6
f 106/252/6 253/181/6 615/457/6
f 157/458/17 616/459/17 451/460/17
f 157/458/17 617/461/17 616/459/17
f 104/462/17 251/463/17 618/464/17
f 156/465/3 619/466/3 450/467/3
f 156/465/3 620/468/3 619/466/3
f 102/469/3 249/470/3 621/471/3
f 152/281/30 622/472/30 299/282/30
f 152/281/30 623/473/30 622/472/30
f 198/194/30 492/196/30 624/474/30
f 153/475/32 625/476/32 300/477/32
f 153/475/32 626/478/32 625/476/32
f 197/200/32 491/202/32 627/479/32
f 148/318/31 628/480/31 295/319/31
f 148/318/31 629/481/31 628/480/31
f 196/207/31 490/209/31 630/482/31
f 122/408/33 631/483/33 269/409/33
f 122/408/33 632/484/33 631/483/33
f 195/214/33 489/216/33 633/485/33
f 141/486/33 634/487/33 288/488/33
f 141/486/33 635/489/33 634/487/33
f 194/220/33 488/222/33 636/490/33
f 193/491/30 637/492/30 340/493/30
f 193/491/30 638/494/30 637/492/30
f 149/495/30 443/496/30 639/497/30
f 133/498/25 640/499/25 280/500/25
f 133/498/25 641/501/25 640/499/25
f 191/241/25 485/243/25 642/502/25
f 154/503/32 643/504/32 301/505/32
f 154/503/32 644/506/32 643/504/32
f 190/248/32 484/250/32 645/507/32
f 153/508/32 646/509/32 447/510/32
f 153/508/32 647/511/32 646/509/32
f 189/254/32 483/256/32 648/512/32
f 125/513/31 649/514/31 272/515/31
f 125/513/31 650/516/31 649/514/31
f 188/260/31 482/262/31 651/517/31
f 102/469/18 652/518/18 249/470/18
f 102/469/18 653/519/18 652/518/18
f 187/266/18 481/268/18 654/520/18
f 186/521/30 655/522/30 333/523/30
f 186/521/30 656/524/30 655/522/30
f 103/525/30 397/526/30 657/527/30
f 184/528/30 658/529/30 331/530/30
f 184/528/30 659/531/30 658/529/30
f 151/532/30 298/533/30 660/534/30
f 110/535/18 661/536/18 257/537/18
f 110/535/18 662/538/18 661/536/18
f 181/300/18 475/302/18 663/539/18
f 113/540/25 664/541/25 260/542/25
f 113/540/25 665/543/25 664/541/25
f 180/307/25 474/309/25 666/544/25
f 82/545/24 667/546/24 229/547/24
f 82/545/24 668/548/24 667/546/24
f 179/314/24 473/316/24 669/549/24
f 74/550/7 670/551/7 221/552/7
f 74/550/7 671/553/7 670/551/7
f 178/321/7 472/323/7 672/554/7
f 77/555/29 673/556/29 224/557/29
f 77/555/29 674/558/29 673/556/29
f 177/328/29 471/330/29 675/559/29
f 81/560/28 676/561/28 228/30/28
f 81/560/28 677/562/28 676/561/28
f 176/335/28 470/337/28 678/563/28
f 76/564/27 679/565/27 223/566/27
f 76/564/27 680/567/27 679/565/27
f 175/342/27 469/344/27 681/568/27
f 86/311/11 682/569/11 233/570/11
f 86/311/11 683/571/11 682/569/11
f 174/349/11 468/351/11 684/572/11
f 87/573/26 685/574/26 234/36/26
f 87/573/26 686/575/26 685/574/26
f 173/356/26 467/358/26 687/576/26
f 93/577/20 688/578/20 240/42/20
f 93/577/20 689/579/20 688/578/20
f 172/363/20 466/365/20 690/580/20
f 73/581/25 691/582/25 220/583/25
f 73/581/25 692/584/25 691/582/25
f 171/370/25 465/372/25 693/585/25
f 55/586/7 694/587/7 202/588/7
f 55/586/7 695/589/7 694/587/7
f 170/376/7 464/378/7 696/590/7
f 58/591/24 697/592/24 205/593/24
f 58/591/24 698/594/24 697/592/24
f 169/383/24 463/385/24 699/595/24
f 80/596/23 700/597/23 227/598/23
f 80/596/23 701/599/23 700/597/23
f 168/390/23 462/392/23 702/600/23
f 78/601/22 703/602/22 225/27/22
f 78/601/22 704/603/22 703/602/22
f 167/397/22 461/399/22 705/604/22
f 97/605/22 706/606/22 244/607/22
f 97/605/22 707/608/22 706/606/22
f 166/404/22 460/406/22 708/609/22
f 64/610/11 709/611/11 211/612/11
f 64/610/11 710/613/11 709/611/11
f 165/411/11 459/413/11 711/614/11
f 92/615/21 712/616/21 239/617/21
f 92/615/21 713/618/21 712/616/21
f 164/416/21 458/418/21 714/619/21
f 67/620/20 715/621/20 214/622/20
f 67/620/20 716/623/20 715/621/20
f 163/421/20 457/423/20 717/624/20
f 56/625/3 718/626/3 203/627/3
f 56/625/3 719/628/3 718/626/3
f 162/426/3 456/428/3 720/629/3
f 54/630/19 721/631/19 201/632/19
f 54/630/19 722/633/19 721/631/19
f 161/433/19 455/435/19 723/634/19
f 63/635/6 724/636/6 210/12/6
f 63/635/6 725/637/6 724/636/6
f 160/440/6 454/442/6 726/638/6
f 61/639/18 727/640/18 208/641/18
f 61/639/18 728/642/18 727/640/18
f 159/446/18 453/448/18 729/643/18
f 68/644/6 730/645/6 215/646/6
f 68/644/6 731/647/6 730/645/6
f 158/453/6 452/455/6 732/648/6
f 59/649/17 733/650/17 206/651/17
f 59/649/17 734/652/17 733/650/17
f 157/458/17 451/460/17 735/653/17
f 57/654/3 736/655/3 204/6/3
f 57/654/3 737/656/3 736/655/3
f 156/465/3 450/467/3 738/657/3
f 99/658/16 739/659/16 393/660/16
f 99/658/16 740/661/16 739/659/16
f 100/662/16 247/663/16 741/664/16
f 96/665/15 742/666/15 390/667/15
f 96/665/15 743/668/15 742/666/15
f 97/605/15 244/607/15 744/669/15
f 93/577/14 745/670/14 387/89/14
f 93/577/14 746/671/14 745/670/14
f 94/672/14 241/673/14 747/674/14
f 90/675/13 748/676/13 384/677/13
f 90/675/13 749/678/13 748/676/13
f 91/679/13 238/680/13 750/681/13
f 87/573/34 751/682/34 381/92/34
f 87/573/34 752/683/34 751/682/34
f 88/684/34 235/685/34 753/686/34
f 84/687/11 754/688/11 378/689/11
f 84/687/11 755/690/11 754/688/11
f 85/691/11 232/692/11 756/693/11
f 81/560/10 757/694/10 375/99/10
f 81/560/10 758/695/10 757/694/10
f 82/545/10 229/547/10 759/696/10
f 78/601/9 760/697/9 372/78/9
f 78/601/9 761/698/9 760/697/9
f 79/699/9 226/700/9 762/701/9
f 75/702/8 763/703/8 369/704/8
f 75/702/8 764/705/8 763/703/8
f 76/564/8 223/566/8 765/706/8
f 72/707/7 766/708/7 366/709/7
f 72/707/7 767/710/7 766/708/7
f 73/581/7 220/583/7 768/711/7
f 69/712/6 769/713/6 363/714/6
f 69/712/6 770/715/6 769/713/6
f 70/716/6 217/717/6 771/718/6
f 66/719/5 772/720/5 360/721/5
f 66/719/5 773/722/5 772/720/5
f 67/723/5 214/724/5 774/725/5
f 63/635/4 775/726/4 357/61/4
f 63/635/4 776/727/4 775/726/4
f 64/610/4 211/612/4 777/728/4
f 60/729/3 778/730/3 354/731/3
f 60/729/3 779/732/3 778/730/3
f 61/639/3 208/641/3 780/733/3
f 57/654/2 781/734/2 351/51/2
f 57/654/2 782/735/2 781/734/2
f 58/736/2 205/737/2 783/738/2
f 54/739/1 784/740/1 348/741/1
f 54/739/1 785/742/1 784/740/1
f 55/586/1 202/588/1 786/743/1
f 786/743/1 350/67/1 56/625/1
f 786/743/1 202/588/1 350/67/1
f 202/588/1 5/65/1 350/67/1
f 784/740/1 786/743/1 56/625/1
f 784/740/1 785/742/1 786/743/1
f 785/742/1 55/586/1 786/743/1
f 348/741/1 203/627/1 6/744/1
f 348/741/1 784/740/1 203/627/1
f 784/740/1 56/625/1 203/627/1
f 783/738/2 353/54/2 59/649/2
f 783/738/2 205/737/2 353/54/2
f 205/737/2 8/52/2 353/54/2
f 781/734/2 783/738/2 59/649/2
f 781/734/2 782/735/2 783/738/2
f 782/735/2 58/736/2 783/738/2
f 351/51/2 206/651/2 9/49/2
f 351/51/2 781/734/2 206/651/2
f 781/734/2 59/649/2 206/651/2
f 780/733/3 356/745/3 62/746/3
f 780/733/3 208/641/3 356/745/3
f 208/641/3 11/747/3 356/745/3
f 778/730/3 780/733/3 62/746/3
f 778/730/3 779/732/3 780/733/3
f 779/732/3 61/639/3 780/733/3
f 354/731/3 209/748/3 12/749/3
f 354/731/3 778/730/3 209/748/3
f 778/730/3 62/746/3 209/748/3
f 777/728/4 359/750/4 65/751/4
f 777/728/4 211/612/4 359/750/4
f 211/612/4 14/752/4 359/750/4
f 775/726/4 777/728/4 65/751/4
f 775/726/4 776/727/4 777/728/4
f 776/727/4 64/610/4 777/728/4
f 357/61/4 212/753/4 15/59/4
f 357/61/4 775/726/4 212/753/4
f 775/726/4 65/751/4 212/753/4
f 774/725/5 362/57/5 68/644/5
f 774/725/5 214/724/5 362/57/5
f 214/724/5 17/55/5 362/57/5
f 772/720/5 774/725/5 68/644/5
f 772/720/5 773/722/5 774/725/5
f 773/722/5 67/723/5 774/725/5
f 360/721/5 215/646/5 18/754/5
f 360/721/5 772/720/5 215/646/5
f 772/720/5 68/644/5 215/646/5
f 771/718/6 365/755/6 71/756/6
f 771/718/6 217/717/6 365/755/6
f 217/717/6 20/535/6 365/755/6
f 769/713/6 771/718/6 71/756/6
f 769/713/6 770/715/6 771/718/6
f 770/715/6 70/716/6 771/718/6
f 363/714/6 218/757/6 21/758/6
f 363/714/6 769/713/6 218/757/6
f 769/713/6 71/756/6 218/757/6
f 768/711/7 368/759/7 74/760/7
f 768/711/7 220/583/7 368/759/7
f 220/583/7 23/761/7 368/759/7
f 766/708/7 768/711/7 74/760/7
f 766/708/7 767/710/7 768/711/7
f 767/710/7 73/581/7 768/711/7
f 366/709/7 221/762/7 24/112/7
f 366/709/7 766/708/7 221/762/7
f 766/708/7 74/760/7 221/762/7
f 765/706/8 371/102/8 77/555/8
f 765/706/8 223/566/8 371/102/8
f 223/566/8 26/100/8 371/102/8
f 763/703/8 765/706/8 77/555/8
f 763/703/8 764/705/8 765/706/8
f 764/705/8 76/564/8 765/706/8
f 369/704/8 224/557/8 27/186/8
f 369/704/8 763/703/8 224/557/8
f 763/703/8 77/555/8 224/557/8
f 762/701/9 374/81/9 80/596/9
f 762/701/9 226/700/9 374/81/9
f 226/700/9 29/79/9 374/81/9
f 760/697/9 762/701/9 80/596/9
f 760/697/9 761/698/9 762/701/9
f 761/698/9 79/699/9 762/701/9
f 372/78/9 227/598/9 30/76/9
f 372/78/9 760/697/9 227/598/9
f 760/697/9 80/596/9 227/598/9
f 759/696/10 377/763/10 83/764/10
f 759/696/10 229/547/10 377/763/10
f 229/547/10 32/130/10 377/763/10
f 757/694/10 759/696/10 83/764/10
f 757/694/10 758/695/10 759/696/10
f 758/695/10 82/545/10 759/696/10
f 375/99/10 230/765/10 33/97/10
f 375/99/10 757/694/10 230/765/10
f 757/694/10 83/764/10 230/765/10
f 756/693/11 380/766/11 86/767/11
f 756/693/11 232/692/11 380/766/11
f 232/692/11 35/122/11 380/766/11
f 754/688/11 756/693/11 86/767/11
f 754/688/11 755/690/11 756/693/11
f 755/690/11 85/691/11 756/693/11
f 378/689/11 233/768/11 36/769/11
f 378/689/11 754/688/11 233/768/11
f 754/688/11 86/767/11 233/768/11
f 753/686/34 383/770/34 89/771/34
f 753/686/34 235/685/34 383/770/34
f 235/685/12 38/772/12 383/770/12
f 751/682/34 753/686/34 89/771/34
f 751/682/34 752/683/34 753/686/34
f 752/683/34 88/684/34 753/686/34
f 381/92/34 236/773/34 39/90/34
f 381/92/34 751/682/34 236/773/34
f 751/682/34 89/771/34 236/773/34
f 750/681/13 386/73/13 92/615/13
f 750/681/13 238/680/13 386/73/13
f 238/680/13 41/71/13 386/73/13
f 748/676/13 750/681/13 92/615/13
f 748/676/13 749/678/13 750/681/13
f 749/678/13 91/679/13 750/681/13
f 384/677/13 239/617/13 42/774/13
f 384/677/13 748/676/13 239/617/13
f 748/676/13 92/615/13 239/617/13
f 747/674/14 389/775/14 95/776/14
f 747/674/14 241/673/14 389/775/14
f 241/673/14 44/777/14 389/775/14
f 745/670/14 747/674/14 95/776/14
f 745/670/14 746/671/14 747/674/14
f 746/671/14 94/672/14 747/674/14
f 387/89/14 242/778/14 45/87/14
f 387/89/14 745/670/14 242/778/14
f 745/670/14 95/776/14 242/778/14
f 744/669/15 392/779/15 98/780/15
f 744/669/15 244/607/15 392/779/15
f 244/607/15 47/781/15 392/779/15
f 742/666/15 744/669/15 98/780/15
f 742/666/15 743/668/15 744/669/15
f 743/668/15 97/605/15 744/669/15
f 390/667/15 245/782/15 48/783/15
f 390/667/15 742/666/15 245/782/15
f 742/666/15 98/780/15 245/782/15
f 741/664/16 395/784/16 101/785/16
f 741/664/16 247/663/16 395/784/16
f 247/663/16 50/786/16 395/784/16
f 739/659/16 741/664/16 101/785/16
f 739/659/16 740/661/16 741/664/16
f 740/661/16 100/662/16 741/664/16
f 393/660/16 248/787/16 51/788/16
f 393/660/16 739/659/16 248/787/16
f 739/659/16 101/785/16 248/787/16
f 738/657/3 397/789/3 103/790/3
f 738/657/3 450/467/3 397/789/3
f 450/467/3 12/749/3 397/789/3
f 736/655/3 738/657/3 103/790/3
f 736/655/3 737/656/3 738/657/3
f 737/656/3 156/465/3 738/657/3
f 204/6/3 250/791/3 7/4/3
f 204/6/3 736/655/3 250/791/3
f 736/655/3 103/790/3 250/791/3
f 735/653/17 399/271/17 105/270/17
f 735/653/17 451/460/17 399/271/17
f 451/460/17 18/754/17 399/271/17
f 733/650/17 735/653/17 105/270/17
f 733/650/17 734/652/17 735/653/17
f 734/652/17 157/458/17 735/653/17
f 206/651/17 252/178/17 9/49/17
f 206/651/17 733/650/17 252/178/17
f 733/650/17 105/270/17 252/178/17
f 732/648/6 401/792/6 107/793/6
f 732/648/6 452/455/6 401/792/6
f 452/455/6 21/758/6 401/792/6
f 730/645/6 732/648/6 107/793/6
f 730/645/6 731/647/6 732/648/6
f 731/647/6 158/453/6 732/648/6
f 215/646/6 254/794/6 18/754/6
f 215/646/6 730/645/6 254/794/6
f 730/645/6 107/793/6 254/794/6
f 729/643/18 403/795/18 109/796/18
f 729/643/18 453/448/18 403/795/18
f 453/448/18 20/535/18 403/795/18
f 727/640/18 729/643/18 109/796/18
f 727/640/18 728/642/18 729/643/18
f 728/642/18 159/446/18 729/643/18
f 208/641/18 256/797/18 11/747/18
f 208/641/18 727/640/18 256/797/18
f 727/640/18 109/796/18 256/797/18
f 726/638/6 405/798/6 111/799/6
f 726/638/6 454/442/6 405/798/6
f 454/442/6 19/16/6 405/798/6
f 724/636/6 726/638/6 111/799/6
f 724/636/6 725/637/6 726/638/6
f 725/637/6 160/440/6 726/638/6
f 210/12/6 258/800/6 13/10/6
f 210/12/6 724/636/6 258/800/6
f 724/636/6 111/799/6 258/800/6
f 723/634/19 407/109/19 113/540/19
f 723/634/19 455/435/19 407/109/19
f 455/435/19 14/107/19 407/109/19
f 721/631/19 723/634/19 113/540/19
f 721/631/19 722/633/19 723/634/19
f 722/633/19 161/433/19 723/634/19
f 201/632/19 260/542/19 4/801/19
f 201/632/19 721/631/19 260/542/19
f 721/631/19 113/540/19 260/542/19
f 720/629/3 409/802/3 115/803/3
f 720/629/3 456/428/3 409/802/3
f 456/428/3 11/804/3 409/802/3
f 718/626/3 720/629/3 115/803/3
f 718/626/3 719/628/3 720/629/3
f 719/628/3 162/426/3 720/629/3
f 203/627/3 262/805/3 6/744/3
f 203/627/3 718/626/3 262/805/3
f 718/626/3 115/803/3 262/805/3
f 717/624/20 411/806/20 117/807/20
f 717/624/20 457/423/20 411/806/20
f 457/423/20 42/774/20 411/806/20
f 715/621/20 717/624/20 117/807/20
f 715/621/20 716/623/20 717/624/20
f 716/623/20 163/421/20 717/624/20
f 214/622/20 264/808/20 17/809/20
f 214/622/20 715/621/20 264/808/20
f 715/621/20 117/807/20 264/808/20
f 714/619/21 413/810/21 119/811/21
f 714/619/21 458/418/21 413/810/21
f 458/418/21 48/783/21 413/810/21
f 712/616/21 714/619/21 119/811/21
f 712/616/21 713/618/21 714/619/21
f 713/618/21 164/416/21 714/619/21
f 239/617/21 266/812/21 42/774/21
f 239/617/21 712/616/21 266/812/21
f 712/616/21 119/811/21 266/812/21
f 711/614/11 415/813/11 121/814/11
f 711/614/11 459/413/11 415/813/11
f 459/413/11 34/31/11 415/813/11
f 709/611/11 711/614/11 121/814/11
f 709/611/11 710/613/11 711/614/11
f 710/613/11 165/411/11 711/614/11
f 211/612/11 268/815/11 14/752/11
f 211/612/11 709/611/11 268/815/11
f 709/611/11 121/814/11 268/815/11
f 708/609/22 417/816/22 123/817/22
f 708/609/22 460/406/22 417/816/22
f 460/406/22 49/46/22 417/816/22
f 706/606/22 708/609/22 123/817/22
f 706/606/22 707/608/22 708/609/22
f 707/608/22 166/404/22 708/609/22
f 244/607/22 270/818/22 47/781/22
f 244/607/22 706/606/22 270/818/22
f 706/606/22 123/817/22 270/818/22
f 705/604/22 419/121/22 125/513/22
f 705/604/22 461/399/22 419/121/22
f 461/399/22 40/37/22 419/121/22
f 703/602/22 705/604/22 125/513/22
f 703/602/22 704/603/22 705/604/22
f 704/603/22 167/397/22 705/604/22
f 225/27/22 272/515/22 28/25/22
f 225/27/22 703/602/22 272/515/22
f 703/602/22 125/513/22 272/515/22
f 702/600/23 421/819/23 127/820/23
f 702/600/23 462/392/23 421/819/23
f 462/392/23 50/786/23 421/819/23
f 700/597/23 702/600/23 127/820/23
f 700/597/23 701/599/23 702/600/23
f 701/599/23 168/390/23 702/600/23
f 227/598/23 274/821/23 30/76/23
f 227/598/23 700/597/23 274/821/23
f 700/597/23 127/820/23 274/821/23
f 699/595/24 423/822/24 129/823/24
f 699/595/24 463/385/24 423/822/24
f 463/385/24 28/25/24 423/822/24
f 697/592/24 699/595/24 129/823/24
f 697/592/24 698/594/24 699/595/24
f 698/594/24 169/383/24 699/595/24
f 205/593/24 276/824/24 8/825/24
f 205/593/24 697/592/24 276/824/24
f 697/592/24 129/823/24 276/824/24
f 696/590/7 425/288/7 131/287/7
f 696/590/7 464/378/7 425/288/7
f 464/378/7 24/112/7 425/288/7
f 694/587/7 696/590/7 131/287/7
f 694/587/7 695/589/7 696/590/7
f 695/589/7 170/376/7 696/590/7
f 202/588/7 278/173/7 5/65/7
f 202/588/7 694/587/7 278/173/7
f 694/587/7 131/287/7 278/173/7
f 693/585/25 427/826/25 133/345/25
f 693/585/25 465/372/25 427/826/25
f 465/372/25 36/769/25 427/826/25
f 691/582/25 693/585/25 133/345/25
f 691/582/25 692/584/25 693/585/25
f 692/584/25 171/370/25 693/585/25
f 220/583/25 280/827/25 23/761/25
f 220/583/25 691/582/25 280/827/25
f 691/582/25 133/345/25 280/827/25
f 690/580/20 429/828/20 135/829/20
f 690/580/20 466/365/20 429/828/20
f 466/365/20 47/830/20 429/828/20
f 688/578/20 690/580/20 135/829/20
f 688/578/20 689/579/20 690/580/20
f 689/579/20 172/363/20 690/580/20
f 240/42/20 282/831/20 43/40/20
f 240/42/20 688/578/20 282/831/20
f 688/578/20 135/829/20 282/831/20
f 687/576/26 431/225/26 137/224/26
f 687/576/26 467/358/26 431/225/26
f 467/358/26 44/777/26 431/225/26
f 685/574/26 687/576/26 137/224/26
f 685/574/26 686/575/26 687/576/26
f 686/575/26 173/356/26 687/576/26
f 234/36/26 284/189/26 37/34/26
f 234/36/26 685/574/26 284/189/26
f 685/574/26 137/224/26 284/189/26
f 684/572/11 433/246/11 139/245/11
f 684/572/11 468/351/11 433/246/11
f 468/351/11 38/772/11 433/246/11
f 682/569/11 684/572/11 139/245/11
f 682/569/11 683/571/11 684/572/11
f 683/571/11 174/349/11 684/572/11
f 233/570/11 286/182/11 36/127/11
f 233/570/11 682/569/11 286/182/11
f 682/569/11 139/245/11 286/182/11
f 681/568/27 435/134/27 141/486/27
f 681/568/27 469/344/27 435/134/27
f 469/344/27 37/34/27 435/134/27
f 679/565/27 681/568/27 141/486/27
f 679/565/27 680/567/27 681/568/27
f 680/567/27 175/342/27 681/568/27
f 223/566/27 288/488/27 26/100/27
f 223/566/27 679/565/27 288/488/27
f 679/565/27 141/486/27 288/488/27
f 678/563/28 437/212/28 143/211/28
f 678/563/28 470/337/28 437/212/28
f 470/337/28 43/40/28 437/212/28
f 676/561/28 678/563/28 143/211/28
f 676/561/28 677/562/28 678/563/28
f 677/562/28 176/335/28 678/563/28
f 228/30/28 290/191/28 31/28/28
f 228/30/28 676/561/28 290/191/28
f 676/561/28 143/211/28 290/191/28
f 675/559/29 439/232/29 145/231/29
f 675/559/29 471/330/29 439/232/29
f 471/330/29 32/130/29 439/232/29
f 673/556/29 675/559/29 145/231/29
f 673/556/29 674/558/29 675/559/29
f 674/558/29 177/328/29 675/559/29
f 224/557/29 292/187/29 27/186/29
f 224/557/29 673/556/29 292/187/29
f 673/556/29 145/231/29 292/187/29
f 672/554/7 441/832/7 147/833/7
f 672/554/7 472/323/7 441/832/7
f 472/323/7 27/186/7 441/832/7
f 670/551/7 672/554/7 147/833/7
f 670/551/7 671/553/7 672/554/7
f 671/553/7 178/321/7 672/554/7
f 221/552/7 294/834/7 24/835/7
f 221/552/7 670/551/7 294/834/7
f 670/551/7 147/833/7 294/834/7
f 669/549/24 443/836/24 149/837/24
f 669/549/24 473/316/24 443/836/24
f 473/316/24 51/838/24 443/836/24
f 667/546/24 669/549/24 149/837/24
f 667/546/24 668/548/24 669/549/24
f 668/548/24 179/314/24 669/549/24
f 229/547/24 296/839/24 32/130/24
f 229/547/24 667/546/24 296/839/24
f 667/546/24 149/837/24 296/839/24
f 666/544/25 277/840/25 130/550/25
f 666/544/25 474/309/25 277/840/25
f 474/309/25 22/19/25 277/840/25
f 664/541/25 666/544/25 130/550/25
f 664/541/25 665/543/25 666/544/25
f 665/543/25 180/307/25 666/544/25
f 260/542/25 424/841/25 4/801/25
f 260/542/25 664/541/25 424/841/25
f 664/541/25 130/550/25 424/841/25
f 663/539/18 256/842/18 109/843/18
f 663/539/18 475/302/18 256/842/18
f 475/302/18 11/844/18 256/842/18
f 661/536/18 663/539/18 109/843/18
f 661/536/18 662/538/18 663/539/18
f 662/538/18 181/300/18 663/539/18
f 257/537/18 403/845/18 20/846/18
f 257/537/18 661/536/18 403/845/18
f 661/536/18 109/843/18 403/845/18
f 660/534/30 347/847/30 53/848/30
f 660/534/30 298/533/30 347/847/30
f 298/533/30 1/849/30 347/847/30
f 658/529/30 660/534/30 53/848/30
f 658/529/30 659/531/30 660/534/30
f 659/531/30 151/532/30 660/534/30
f 331/530/30 200/850/30 3/168/30
f 331/530/30 658/529/30 200/850/30
f 658/529/30 53/848/30 200/850/30
f 657/527/30 297/295/30 150/294/30
f 657/527/30 397/526/30 297/295/30
f 397/526/30 12/851/30 297/295/30
f 655/522/30 657/527/30 150/294/30
f 655/522/30 656/524/30 657/527/30
f 656/524/30 103/525/30 657/527/30
f 333/523/30 444/171/30 2/142/30
f 333/523/30 655/522/30 444/171/30
f 655/522/30 150/294/30 444/171/30
f 654/520/18 255/451/18 108/450/18
f 654/520/18 481/268/18 255/451/18
f 481/268/18 21/758/18 255/451/18
f 652/518/18 654/520/18 108/450/18
f 652/518/18 653/519/18 654/520/18
f 653/519/18 187/266/18 654/520/18
f 249/470/18 402/147/18 10/7/18
f 249/470/18 652/518/18 402/147/18
f 652/518/18 108/450/18 402/147/18
f 651/517/31 276/824/31 129/823/31
f 651/517/31 482/262/31 276/824/31
f 482/262/31 8/825/31 276/824/31
f 649/514/31 651/517/31 129/823/31
f 649/514/31 650/516/31 651/517/31
f 650/516/31 188/260/31 651/517/31
f 272/515/31 423/822/31 28/25/31
f 272/515/31 649/514/31 423/822/31
f 649/514/31 129/823/31 423/822/31
f 648/512/32 448/126/32 154/503/32
f 648/512/32 483/256/32 448/126/32
f 483/256/32 19/16/32 448/126/32
f 646/509/32 648/512/32 154/503/32
f 646/509/32 647/511/32 648/512/32
f 647/511/32 189/254/32 648/512/32
f 447/510/32 301/505/32 48/783/32
f 447/510/32 646/509/32 301/505/32
f 646/509/32 154/503/32 301/505/32
f 645/507/32 266/812/32 119/811/32
f 645/507/32 484/250/32 266/812/32
f 484/250/32 42/774/32 266/812/32
f 643/504/32 645/507/32 119/811/32
f 643/504/32 644/506/32 645/507/32
f 644/506/32 190/248/32 645/507/32
f 301/505/32 413/810/32 48/783/32
f 301/505/32 643/504/32 413/810/32
f 643/504/32 119/811/32 413/810/32
f 642/502/25 293/326/25 146/325/25
f 642/502/25 485/243/25 293/326/25
f 485/243/25 25/22/25 293/326/25
f 640/499/25 642/502/25 146/325/25
f 640/499/25 641/501/25 642/502/25
f 641/501/25 191/241/25 642/502/25
f 280/500/25 440/165/25 23/103/25
f 280/500/25 640/499/25 440/165/25
f 640/499/25 146/325/25 440/165/25
f 639/497/30 449/852/30 155/853/30
f 639/497/30 443/496/30 449/852/30
f 443/496/30 51/854/30 449/852/30
f 637/492/30 639/497/30 155/853/30
f 637/492/30 638/494/30 639/497/30
f 638/494/30 149/495/30 639/497/30
f 340/493/30 302/855/30 1/142/30
f 340/493/30 637/492/30 302/855/30
f 637/492/30 155/853/30 302/855/30
f 636/490/33 291/333/33 144/332/33
f 636/490/33 488/222/33 291/333/33
f 488/222/33 33/97/33 291/333/33
f 634/487/33 636/490/33 144/332/33
f 634/487/33 635/489/33 636/490/33
f 635/489/33 194/220/33 636/490/33
f 288/488/33 438/164/33 26/100/33
f 288/488/33 634/487/33 438/164/33
f 634/487/33 144/332/33 438/164/33
f 633/485/33 274/821/33 127/820/33
f 633/485/33 489/216/33 274/821/33
f 489/216/33 30/76/33 274/821/33
f 631/483/33 633/485/33 127/820/33
f 631/483/33 632/484/33 633/485/33
f 632/484/33 195/214/33 633/485/33
f 269/409/33 421/819/33 50/786/33
f 269/409/33 631/483/33 421/819/33
f 631/483/33 127/820/33 421/819/33
f 630/482/31 270/856/31 123/857/31
f 630/482/31 490/209/31 270/856/31
f 490/209/31 47/830/31 270/856/31
f 628/480/31 630/482/31 123/857/31
f 628/480/31 629/481/31 630/482/31
f 629/481/31 196/207/31 630/482/31
f 295/319/31 417/858/31 49/859/31
f 295/319/31 628/480/31 417/858/31
f 628/480/31 123/857/31 417/858/31
f 627/479/32 285/860/32 138/861/32
f 627/479/32 491/202/32 285/860/32
f 491/202/32 39/90/32 285/860/32
f 625/476/32 627/479/32 138/861/32
f 625/476/32 626/478/32 627/479/32
f 626/478/32 197/200/32 627/479/32
f 300/477/32 432/862/32 35/863/32
f 300/477/32 625/476/32 432/862/32
f 625/476/32 138/861/32 432/862/32
f 624/474/30 302/864/30 155/865/30
f 624/474/30 492/196/30 302/864/30
f 492/196/30 1/849/30 302/864/30
f 622/472/30 624/474/30 155/865/30
f 622/472/30 623/473/30 624/474/30
f 623/473/30 198/194/30 624/474/30
f 299/282/30 449/866/30 51/788/30
f 299/282/30 622/472/30 449/866/30
f 622/472/30 155/865/30 449/866/30
f 621/471/3 207/9/3 60/729/3
f 621/471/3 249/470/3 207/9/3
f 249/470/3 10/7/3 207/9/3
f 619/466/3 621/471/3 60/729/3
f 619/466/3 620/468/3 621/471/3
f 620/468/3 102/469/3 621/471/3
f 450/467/3 354/731/3 12/749/3
f 450/467/3 619/466/3 354/731/3
f 619/466/3 60/729/3 354/731/3
f 618/464/17 213/15/17 66/719/17
f 618/464/17 251/463/17 213/15/17
f 251/463/17 16/13/17 213/15/17
f 616/459/17 618/464/17 66/719/17
f 616/459/17 617/461/17 618/464/17
f 617/461/17 104/462/17 618/464/17
f 451/460/17 360/721/17 18/754/17
f 451/460/17 616/459/17 360/721/17
f 616/459/17 66/719/17 360/721/17
f 615/457/6 216/18/6 69/712/6
f 615/457/6 253/181/6 216/18/6
f 253/181/6 19/16/6 216/18/6
f 613/454/6 615/457/6 69/712/6
f 613/454/6 614/456/6 615/457/6
f 614/456/6 106/252/6 615/457/6
f 452/455/6 363/714/6 21/758/6
f 452/455/6 613/454/6 363/714/6
f 613/454/6 69/712/6 363/714/6
f 612/452/18 218/757/18 71/756/18
f 612/452/18 255/451/18 218/757/18
f 255/451/18 21/758/18 218/757/18
f 610/447/18 612/452/18 71/756/18
f 610/447/18 611/449/18 612/452/18
f 611/449/18 108/450/18 612/452/18
f 453/448/18 365/755/18 20/535/18
f 453/448/18 610/447/18 365/755/18
f 610/447/18 71/756/18 365/755/18
f 609/445/6 217/717/6 70/716/6
f 609/445/6 257/444/6 217/717/6
f 257/444/6 20/535/6 217/717/6
f 607/441/6 609/445/6 70/716/6
f 607/441/6 608/443/6 609/445/6
f 608/443/6 110/111/6 609/445/6
f 454/442/6 364/17/6 19/16/6
f 454/442/6 607/441/6 364/17/6
f 607/441/6 70/716/6 364/17/6
f 606/439/19 212/867/19 65/868/19
f 606/439/19 259/438/19 212/867/19
f 259/438/19 15/869/19 212/867/19
f 604/434/19 606/439/19 65/868/19
f 604/434/19 605/436/19 606/439/19
f 605/436/19 112/437/19 606/439/19
f 455/435/19 359/870/19 14/107/19
f 455/435/19 604/434/19 359/870/19
f 604/434/19 65/868/19 359/870/19
f 603/432/3 209/871/3 62/872/3
f 603/432/3 261/431/3 209/871/3
f 261/431/3 12/851/3 209/871/3
f 601/427/3 603/432/3 62/872/3
f 601/427/3 602/429/3 603/432/3
f 602/429/3 114/430/3 603/432/3
f 456/428/3 356/873/3 11/804/3
f 456/428/3 601/427/3 356/873/3
f 601/427/3 62/872/3 356/873/3
f 600/425/20 237/39/20 90/675/20
f 600/425/20 263/179/20 237/39/20
f 263/179/20 40/37/20 237/39/20
f 598/422/20 600/425/20 90/675/20
f 598/422/20 599/424/20 600/425/20
f 599/424/20 116/264/20 600/425/20
f 457/423/20 384/677/20 42/774/20
f 457/423/20 598/422/20 384/677/20
f 598/422/20 90/675/20 384/677/20
f 597/420/21 243/45/21 96/665/21
f 597/420/21 265/190/21 243/45/21
f 265/190/21 46/43/21 243/45/21
f 595/417/21 597/420/21 96/665/21
f 595/417/21 596/419/21 597/420/21
f 596/419/21 118/218/21 597/420/21
f 458/418/21 390/667/21 48/783/21
f 458/418/21 595/417/21 390/667/21
f 595/417/21 96/665/21 390/667/21
f 594/415/11 232/692/11 85/691/11
f 594/415/11 267/180/11 232/692/11
f 267/180/11 35/122/11 232/692/11
f 592/412/11 594/415/11 85/691/11
f 592/412/11 593/414/11 594/415/11
f 593/414/11 120/258/11 594/415/11
f 459/413/11 379/32/11 34/31/11
f 459/413/11 592/412/11 379/32/11
f 592/412/11 85/691/11 379/32/11
f 591/410/22 247/663/22 100/662/22
f 591/410/22 269/409/22 247/663/22
f 269/409/22 50/786/22 247/663/22
f 589/405/22 591/410/22 100/662/22
f 589/405/22 590/407/22 591/410/22
f 590/407/22 122/408/22 591/410/22
f 460/406/22 394/47/22 49/46/22
f 460/406/22 589/405/22 394/47/22
f 589/405/22 100/662/22 394/47/22
f 588/403/22 238/680/22 91/679/22
f 588/403/22 271/402/22 238/680/22
f 271/402/22 41/71/22 238/680/22
f 586/398/22 588/403/22 91/679/22
f 586/398/22 587/400/22 588/403/22
f 587/400/22 124/401/22 588/403/22
f 461/399/22 385/38/22 40/37/22
f 461/399/22 586/398/22 385/38/22
f 586/398/22 91/679/22 385/38/22
f 585/396/23 248/787/23 101/785/23
f 585/396/23 273/395/23 248/787/23
f 273/395/23 51/788/23 248/787/23
f 583/391/23 585/396/23 101/785/23
f 583/391/23 584/393/23 585/396/23
f 584/393/23 126/394/23 585/396/23
f 462/392/23 395/784/23 50/786/23
f 462/392/23 583/391/23 395/784/23
f 583/391/23 101/785/23 395/784/23
f 582/389/24 226/700/24 79/699/24
f 582/389/24 275/388/24 226/700/24
f 275/388/24 29/79/24 226/700/24
f 580/384/24 582/389/24 79/699/24
f 580/384/24 581/386/24 582/389/24
f 581/386/24 128/387/24 582/389/24
f 463/385/24 373/26/24 28/25/24
f 463/385/24 580/384/24 373/26/24
f 580/384/24 79/699/24 373/26/24
f 579/382/7 219/21/7 72/707/7
f 579/382/7 277/381/7 219/21/7
f 277/381/7 22/19/7 219/21/7
f 577/377/7 579/382/7 72/707/7
f 577/377/7 578/379/7 579/382/7
f 578/379/7 130/380/7 579/382/7
f 464/378/7 366/709/7 24/112/7
f 464/378/7 577/377/7 366/709/7
f 577/377/7 72/707/7 366/709/7
f 576/375/25 231/33/25 84/687/25
f 576/375/25 279/374/25 231/33/25
f 279/374/25 34/31/25 231/33/25
f 574/371/25 576/375/25 84/687/25
f 574/371/25 575/373/25 576/375/25
f 575/373/25 132/346/25 576/375/25
f 465/372/25 378/689/25 36/769/25
f 465/372/25 574/371/25 378/689/25
f 574/371/25 84/687/25 378/689/25
f 573/369/20 245/874/20 98/875/20
f 573/369/20 281/368/20 245/874/20
f 281/368/20 48/876/20 245/874/20
f 571/364/20 573/369/20 98/875/20
f 571/364/20 572/366/20 573/369/20
f 572/366/20 134/367/20 573/369/20
f 466/365/20 392/877/20 47/830/20
f 466/365/20 571/364/20 392/877/20
f 571/364/20 98/875/20 392/877/20
f 570/362/26 242/778/26 95/776/26
f 570/362/26 283/361/26 242/778/26
f 283/361/26 45/87/26 242/778/26
f 568/357/26 570/362/26 95/776/26
f 568/357/26 569/359/26 570/362/26
f 569/359/26 136/360/26 570/362/26
f 467/358/26 389/775/26 44/777/26
f 467/358/26 568/357/26 389/775/26
f 568/357/26 95/776/26 389/775/26
f 567/355/11 236/773/11 89/771/11
f 567/355/11 285/354/11 236/773/11
f 285/354/11 39/90/11 236/773/11
f 565/350/11 567/355/11 89/771/11
f 565/350/11 566/352/11 567/355/11
f 566/352/11 138/353/11 567/355/11
f 468/351/11 383/770/11 38/772/11
f 468/351/11 565/350/11 383/770/11
f 565/350/11 89/771/11 383/770/11
f 564/348/27 235/685/27 88/684/27
f 564/348/27 287/347/27 235/685/27
f 287/347/27 38/772/27 235/685/27
f 562/343/27 564/348/27 88/684/27
f 562/343/27 563/345/27 564/348/27
f 563/345/27 140/346/27 564/348/27
f 469/344/27 382/35/27 37/34/27
f 469/344/27 562/343/27 382/35/27
f 562/343/27 88/684/27 382/35/27
f 561/341/28 241/673/28 94/672/28
f 561/341/28 289/340/28 241/673/28
f 289/340/28 44/777/28 241/673/28
f 559/336/28 561/341/28 94/672/28
f 559/336/28 560/338/28 561/341/28
f 560/338/28 142/339/28 561/341/28
f 470/337/28 388/41/28 43/40/28
f 470/337/28 559/336/28 388/41/28
f 559/336/28 94/672/28 388/41/28
f 558/334/29 230/765/29 83/764/29
f 558/334/29 291/333/29 230/765/29
f 291/333/29 33/97/29 230/765/29
f 556/329/29 558/334/29 83/764/29
f 556/329/29 557/331/29 558/334/29
f 557/331/29 144/332/29 558/334/29
f 471/330/29 377/763/29 32/130/29
f 471/330/29 556/329/29 377/763/29
f 556/329/29 83/764/29 377/763/29
f 555/327/7 222/24/7 75/702/7
f 555/327/7 293/326/7 222/24/7
f 293/326/7 25/22/7 222/24/7
f 553/322/7 555/327/7 75/702/7
f 553/322/7 554/324/7 555/327/7
f 554/324/7 146/325/7 555/327/7
f 472/323/7 369/704/7 27/186/7
f 472/323/7 553/322/7 369/704/7
f 553/322/7 75/702/7 369/704/7
f 552/320/24 246/878/24 99/879/24
f 552/320/24 295/319/24 246/878/24
f 295/319/24 49/859/24 246/878/24
f 550/315/24 552/320/24 99/879/24
f 550/315/24 551/317/24 552/320/24
f 551/317/24 148/318/24 552/320/24
f 473/316/24 393/880/24 51/838/24
f 473/316/24 550/315/24 393/880/24
f 550/315/24 99/879/24 393/880/24
f 549/313/25 279/374/25 132/346/25
f 549/313/25 415/312/25 279/374/25
f 415/312/25 34/31/25 279/374/25
f 547/308/25 549/313/25 132/346/25
f 547/308/25 548/310/25 549/313/25
f 548/310/25 121/311/25 549/313/25
f 474/309/25 426/158/25 22/19/25
f 474/309/25 547/308/25 426/158/25
f 547/308/25 132/346/25 426/158/25
f 546/306/18 262/881/18 115/882/18
f 546/306/18 406/305/18 262/881/18
f 406/305/18 6/883/18 262/881/18
f 544/301/18 546/306/18 115/882/18
f 544/301/18 545/303/18 546/306/18
f 545/303/18 112/304/18 546/306/18
f 475/302/18 409/884/18 11/844/18
f 475/302/18 544/301/18 409/884/18
f 544/301/18 115/882/18 409/884/18
f 543/299/30 477/172/30 183/290/30
f 543/299/30 346/193/30 477/172/30
f 346/193/30 2/142/30 477/172/30
f 541/297/30 543/299/30 183/290/30
f 541/297/30 542/298/30 543/299/30
f 542/298/30 52/198/30 543/299/30
f 476/174/30 330/292/30 5/65/30
f 476/174/30 541/297/30 330/292/30
f 541/297/30 183/290/30 330/292/30
f 540/296/30 261/431/30 114/430/30
f 540/296/30 297/295/30 261/431/30
f 297/295/30 12/851/30 261/431/30
f 538/291/30 540/296/30 114/430/30
f 538/291/30 539/293/30 540/296/30
f 539/293/30 150/294/30 540/296/30
f 330/292/30 408/150/30 5/65/30
f 330/292/30 538/291/30 408/150/30
f 538/291/30 114/430/30 408/150/30
f 537/289/30 478/114/30 184/528/30
f 537/289/30 425/288/30 478/114/30
f 425/288/30 24/112/30 478/114/30
f 535/285/30 537/289/30 184/528/30
f 535/285/30 536/286/30 537/289/30
f 536/286/30 131/287/30 537/289/30
f 329/170/30 331/530/30 3/168/30
f 329/170/30 535/285/30 331/530/30
f 535/285/30 184/528/30 331/530/30
f 534/283/30 273/395/30 126/394/30
f 534/283/30 299/282/30 273/395/30
f 299/282/30 51/788/30 273/395/30
f 532/279/30 534/283/30 126/394/30
f 532/279/30 533/280/30 534/283/30
f 533/280/30 152/281/30 534/283/30
f 479/177/30 420/155/30 29/79/30
f 479/177/30 532/279/30 420/155/30
f 532/279/30 126/394/30 420/155/30
f 531/278/30 480/117/30 186/521/30
f 531/278/30 422/277/30 480/117/30
f 422/277/30 7/115/30 480/117/30
f 529/274/30 531/278/30 186/521/30
f 529/274/30 530/275/30 531/278/30
f 530/275/30 128/276/30 531/278/30
f 332/175/30 333/523/30 2/142/30
f 332/175/30 529/274/30 333/523/30
f 529/274/30 186/521/30 333/523/30
f 528/272/18 254/794/18 107/793/18
f 528/272/18 399/271/18 254/794/18
f 399/271/18 18/754/18 254/794/18
f 526/267/18 528/272/18 107/793/18
f 526/267/18 527/269/18 528/272/18
f 527/269/18 105/270/18 528/272/18
f 481/268/18 401/792/18 21/758/18
f 481/268/18 526/267/18 401/792/18
f 526/267/18 107/793/18 401/792/18
f 525/265/31 251/885/31 104/886/31
f 525/265/31 410/151/31 251/885/31
f 410/151/31 16/68/31 251/885/31
f 523/261/31 525/265/31 104/886/31
f 523/261/31 524/263/31 525/265/31
f 524/263/31 116/264/31 525/265/31
f 482/262/31 398/887/31 8/825/31
f 482/262/31 523/261/31 398/887/31
f 523/261/31 104/886/31 398/887/31
f 522/259/32 258/800/32 111/799/32
f 522/259/32 414/153/32 258/800/32
f 414/153/32 13/10/32 258/800/32
f 520/255/32 522/259/32 111/799/32
f 520/255/32 521/257/32 522/259/32
f 521/257/32 120/258/32 522/259/32
f 483/256/32 405/798/32 19/16/32
f 483/256/32 520/255/32 405/798/32
f 520/255/32 111/799/32 405/798/32
f 519/253/32 264/888/32 117/889/32
f 519/253/32 400/146/32 264/888/32
f 400/146/32 17/55/32 264/888/32
f 517/249/32 519/253/32 117/889/32
f 517/249/32 518/251/32 519/253/32
f 518/251/32 106/252/32 519/253/32
f 484/250/32 411/890/32 42/774/32
f 484/250/32 517/249/32 411/890/32
f 517/249/32 117/889/32 411/890/32
f 516/247/25 287/347/25 140/346/25
f 516/247/25 433/246/25 287/347/25
f 433/246/25 38/772/25 287/347/25
f 514/242/25 516/247/25 140/346/25
f 514/242/25 515/244/25 516/247/25
f 515/244/25 139/245/25 516/247/25
f 485/243/25 434/162/25 25/22/25
f 485/243/25 514/242/25 434/162/25
f 514/242/25 140/346/25 434/162/25
f 513/240/30 486/188/30 192/227/30
f 513/240/30 441/239/30 486/188/30
f 441/239/30 27/186/30 486/188/30
f 511/235/30 513/240/30 192/227/30
f 511/235/30 512/237/30 513/240/30
f 512/237/30 147/238/30 513/240/30
f 298/236/30 339/229/30 1/142/30
f 298/236/30 511/235/30 339/229/30
f 511/235/30 192/227/30 339/229/30
f 510/233/30 487/132/30 193/491/30
f 510/233/30 439/232/30 487/132/30
f 439/232/30 32/130/30 487/132/30
f 508/228/30 510/233/30 193/491/30
f 508/228/30 509/230/30 510/233/30
f 509/230/30 145/231/30 510/233/30
f 339/229/30 340/493/30 1/142/30
f 339/229/30 508/228/30 340/493/30
f 508/228/30 193/491/30 340/493/30
f 507/226/33 289/340/33 142/339/33
f 507/226/33 431/225/33 289/340/33
f 431/225/33 44/777/33 289/340/33
f 505/221/33 507/226/33 142/339/33
f 505/221/33 506/223/33 507/226/33
f 506/223/33 137/224/33 507/226/33
f 488/222/33 436/163/33 33/97/33
f 488/222/33 505/221/33 436/163/33
f 505/221/33 142/339/33 436/163/33
f 504/219/33 271/402/33 124/401/33
f 504/219/33 412/152/33 271/402/33
f 412/152/33 41/71/33 271/402/33
f 502/215/33 504/219/33 124/401/33
f 502/215/33 503/217/33 504/219/33
f 503/217/33 118/218/33 504/219/33
f 489/216/33 418/154/33 30/76/33
f 489/216/33 502/215/33 418/154/33
f 502/215/33 124/401/33 418/154/33
f 501/213/31 282/831/31 135/829/31
f 501/213/31 437/212/31 282/831/31
f 437/212/31 43/40/31 282/831/31
f 499/208/31 501/213/31 135/829/31
f 499/208/31 500/210/31 501/213/31
f 500/210/31 143/211/31 501/213/31
f 490/209/31 429/828/31 47/830/31
f 490/209/31 499/208/31 429/828/31
f 499/208/31 135/829/31 429/828/31
f 498/206/32 283/361/32 136/360/32
f 498/206/32 428/205/32 283/361/32
f 428/205/32 45/87/32 283/361/32
f 496/201/32 498/206/32 136/360/32
f 496/201/32 497/203/32 498/206/32
f 497/203/32 134/204/32 498/206/32
f 491/202/32 430/160/32 39/90/32
f 491/202/32 496/201/32 430/160/32
f 496/201/32 136/360/32 430/160/32
f 495/199/30 200/850/30 53/848/30
f 495/199/30 199/169/30 200/850/30
f 199/169/30 3/168/30 200/850/30
f 493/195/30 495/199/30 53/848/30
f 493/195/30 494/197/30 495/199/30
f 494/197/30 52/198/30 495/199/30
f 492/196/30 347/847/30 1/849/30
f 492/196/30 493/195/30 347/847/30
f 493/195/30 53/848/30 347/847/30
f 345/143/30 494/197/30 198/194/30
f 345/143/30 346/193/30 494/197/30
f 346/193/30 52/198/30 494/197/30
f 344/140/32 497/203/32 197/200/32
f 344/140/32 281/192/32 497/203/32
f 281/192/32 134/204/32 497/203/32
f 343/137/31 500/210/31 196/207/31
f 343/137/31 290/191/31 500/210/31
f 290/191/31 143/211/31 500/210/31
f 342/135/33 503/217/33 195/214/33
f 342/135/33 265/190/33 503/217/33
f 265/190/33 118/218/33 503/217/33
f 341/133/33 506/223/33 194/220/33
f 341/133/33 284/189/33 506/223/33
f 284/189/33 137/224/33 506/223/33
f 486/188/30 509/230/30 192/227/30
f 486/188/30 292/187/30 509/230/30
f 292/187/30 145/231/30 509/230/30
f 445/185/30 512/237/30 151/234/30
f 445/185/30 294/184/30 512/237/30
f 294/184/30 147/238/30 512/237/30
f 338/128/25 515/244/25 191/241/25
f 338/128/25 286/182/25 515/244/25
f 286/182/25 139/245/25 515/244/25
f 337/125/32 518/251/32 190/248/32
f 337/125/32 253/181/32 518/251/32
f 253/181/32 106/252/32 518/251/32
f 336/123/32 521/257/32 189/254/32
f 336/123/32 267/180/32 521/257/32
f 267/180/32 120/258/32 521/257/32
f 335/120/31 524/263/31 188/260/31
f 335/120/31 263/179/31 524/263/31
f 263/179/31 116/264/31 524/263/31
f 334/118/18 527/269/18 187/266/18
f 334/118/18 252/178/18 527/269/18
f 252/178/18 105/270/18 527/269/18
f 479/177/30 530/275/30 185/273/30
f 479/177/30 275/176/30 530/275/30
f 275/176/30 128/276/30 530/275/30
f 332/175/30 533/280/30 185/273/30
f 332/175/30 446/144/30 533/280/30
f 446/144/30 152/281/30 533/280/30
f 476/174/30 536/286/30 182/284/30
f 476/174/30 278/173/30 536/286/30
f 278/173/30 131/287/30 536/286/30
f 477/172/30 539/293/30 183/290/30
f 477/172/30 444/171/30 539/293/30
f 444/171/30 150/294/30 539/293/30
f 329/170/30 542/298/30 182/284/30
f 329/170/30 199/169/30 542/298/30
f 199/169/30 52/198/30 542/298/30
f 328/110/18 545/303/18 181/300/18
f 328/110/18 259/167/18 545/303/18
f 259/167/18 112/304/18 545/303/18
f 327/108/25 548/310/25 180/307/25
f 327/108/25 268/166/25 548/310/25
f 268/166/25 121/311/25 548/310/25
f 326/106/24 551/317/24 179/314/24
f 326/106/24 442/138/24 551/317/24
f 442/138/24 148/318/24 551/317/24
f 325/104/7 554/324/7 178/321/7
f 325/104/7 440/165/7 554/324/7
f 440/165/7 146/325/7 554/324/7
f 324/101/29 557/331/29 177/328/29
f 324/101/29 438/164/29 557/331/29
f 438/164/29 144/332/29 557/331/29
f 323/98/28 560/338/28 176/335/28
f 323/98/28 436/163/28 560/338/28
f 436/163/28 142/339/28 560/338/28
f 322/96/27 563/345/27 175/342/27
f 322/96/27 434/162/27 563/345/27
f 434/162/27 140/346/27 563/345/27
f 321/94/11 566/352/11 174/349/11
f 321/94/11 432/161/11 566/352/11
f 432/161/11 138/353/11 566/352/11
f 320/91/26 569/359/26 173/356/26
f 320/91/26 430/160/26 569/359/26
f 430/160/26 136/360/26 569/359/26
f 319/88/20 572/366/20 172/363/20
f 319/88/20 428/159/20 572/366/20
f 428/159/20 134/367/20 572/366/20
f 318/86/25 575/373/25 171/370/25
f 318/86/25 426/158/25 575/373/25
f 426/158/25 132/346/25 575/373/25
f 317/85/7 578/379/7 170/376/7
f 317/85/7 424/157/7 578/379/7
f 424/157/7 130/380/7 578/379/7
f 316/83/24 581/386/24 169/383/24
f 316/83/24 422/156/24 581/386/24
f 422/156/24 128/387/24 581/386/24
f 315/80/23 584/393/23 168/390/23
f 315/80/23 420/155/23 584/393/23
f 420/155/23 126/394/23 584/393/23
f 314/77/22 587/400/22 167/397/22
f 314/77/22 418/154/22 587/400/22
f 418/154/22 124/401/22 587/400/22
f 313/75/22 590/407/22 166/404/22
f 313/75/22 416/136/22 590/407/22
f 416/136/22 122/408/22 590/407/22
f 312/74/11 593/414/11 165/411/11
f 312/74/11 414/153/11 593/414/11
f 414/153/11 120/258/11 593/414/11
f 311/72/21 596/419/21 164/416/21
f 311/72/21 412/152/21 596/419/21
f 412/152/21 118/218/21 596/419/21
f 310/69/20 599/424/20 163/421/20
f 310/69/20 410/151/20 599/424/20
f 410/151/20 116/264/20 599/424/20
f 309/66/3 602/429/3 162/426/3
f 309/66/3 408/150/3 602/429/3
f 408/150/3 114/430/3 602/429/3
f 308/63/19 605/436/19 161/433/19
f 308/63/19 406/149/19 605/436/19
f 406/149/19 112/437/19 605/436/19
f 307/60/6 608/443/6 160/440/6
f 307/60/6 404/148/6 608/443/6
f 404/148/6 110/111/6 608/443/6
f 306/58/18 611/449/18 159/446/18
f 306/58/18 402/147/18 611/449/18
f 402/147/18 108/450/18 611/449/18
f 305/56/6 614/456/6 158/453/6
f 305/56/6 400/146/6 614/456/6
f 400/146/6 106/252/6 614/456/6
f 304/53/17 617/461/17 157/458/17
f 304/53/17 398/145/17 617/461/17
f 398/145/17 104/462/17 617/461/17
f 303/50/3 620/468/3 156/465/3
f 303/50/3 396/119/3 620/468/3
f 396/119/3 102/469/3 620/468/3
f 446/144/30 623/473/30 152/281/30
f 446/144/30 345/143/30 623/473/30
f 345/143/30 198/194/30 623/473/30
f 447/141/32 626/478/32 153/475/32
f 447/141/32 344/140/32 626/478/32
f 344/140/32 197/200/32 626/478/32
f 442/138/31 629/481/31 148/318/31
f 442/138/31 343/137/31 629/481/31
f 343/137/31 196/207/31 629/481/31
f 416/136/33 632/484/33 122/408/33
f 416/136/33 342/135/33 632/484/33
f 342/135/33 195/214/33 632/484/33
f 435/134/33 635/489/33 141/486/33
f 435/134/33 341/133/33 635/489/33
f 341/133/33 194/220/33 635/489/33
f 487/132/30 638/494/30 193/491/30
f 487/132/30 296/131/30 638/494/30
f 296/131/30 149/495/30 638/494/30
f 427/129/25 641/501/25 133/498/25
f 427/129/25 338/128/25 641/501/25
f 338/128/25 191/241/25 641/501/25
f 448/126/32 644/506/32 154/503/32
f 448/126/32 337/125/32 644/506/32
f 337/125/32 190/248/32 644/506/32
f 300/124/32 647/511/32 153/508/32
f 300/124/32 336/123/32 647/511/32
f 336/123/32 189/254/32 647/511/32
f 419/121/31 650/516/31 125/513/31
f 419/121/31 335/120/31 650/516/31
f 335/120/31 188/260/31 650/516/31
f 396/119/18 653/519/18 102/469/18
f 396/119/18 334/118/18 653/519/18
f 334/118/18 187/266/18 653/519/18
f 480/117/30 656/524/30 186/521/30
f 480/117/30 250/116/30 656/524/30
f 250/116/30 103/525/30 656/524/30
f 478/114/30 659/531/30 184/528/30
f 478/114/30 445/113/30 659/531/30
f 445/113/30 151/532/30 659/531/30
f 404/111/18 662/538/18 110/535/18
f 404/111/18 328/110/18 662/538/18
f 328/110/18 181/300/18 662/538/18
f 407/109/25 665/543/25 113/540/25
f 407/109/25 327/108/25 665/543/25
f 327/108/25 180/307/25 665/543/25
f 376/29/24 668/548/24 82/545/24
f 376/29/24 326/106/24 668/548/24
f 326/106/24 179/314/24 668/548/24
f 368/105/7 671/553/7 74/550/7
f 368/105/7 325/104/7 671/553/7
f 325/104/7 178/321/7 671/553/7
f 371/102/29 674/558/29 77/555/29
f 371/102/29 324/101/29 674/558/29
f 324/101/29 177/328/29 674/558/29
f 375/99/28 677/562/28 81/560/28
f 375/99/28 323/98/28 677/562/28
f 323/98/28 176/335/28 677/562/28
f 370/23/27 680/567/27 76/564/27
f 370/23/27 322/96/27 680/567/27
f 322/96/27 175/342/27 680/567/27
f 380/95/11 683/571/11 86/311/11
f 380/95/11 321/94/11 683/571/11
f 321/94/11 174/349/11 683/571/11
f 381/92/26 686/575/26 87/573/26
f 381/92/26 320/91/26 686/575/26
f 320/91/26 173/356/26 686/575/26
f 387/89/20 689/579/20 93/577/20
f 387/89/20 319/88/20 689/579/20
f 319/88/20 172/363/20 689/579/20
f 367/20/25 692/584/25 73/581/25
f 367/20/25 318/86/25 692/584/25
f 318/86/25 171/370/25 692/584/25
f 349/2/7 695/589/7 55/586/7
f 349/2/7 317/85/7 695/589/7
f 317/85/7 170/376/7 695/589/7
f 352/84/24 698/594/24 58/591/24
f 352/84/24 316/83/24 698/594/24
f 316/83/24 169/383/24 698/594/24
f 374/81/23 701/599/23 80/596/23
f 374/81/23 315/80/23 701/599/23
f 315/80/23 168/390/23 701/599/23
f 372/78/22 704/603/22 78/601/22
f 372/78/22 314/77/22 704/603/22
f 314/77/22 167/397/22 704/603/22
f 391/44/22 707/608/22 97/605/22
f 391/44/22 313/75/22 707/608/22
f 313/75/22 166/404/22 707/608/22
f 358/11/11 710/613/11 64/610/11
f 358/11/11 312/74/11 710/613/11
f 312/74/11 165/411/11 710/613/11
f 386/73/21 713/618/21 92/615/21
f 386/73/21 311/72/21 713/618/21
f 311/72/21 164/416/21 713/618/21
f 361/70/20 716/623/20 67/620/20
f 361/70/20 310/69/20 716/623/20
f 310/69/20 163/421/20 716/623/20
f 350/67/3 719/628/3 56/625/3
f 350/67/3 309/66/3 719/628/3
f 309/66/3 162/426/3 719/628/3
f 348/64/19 722/633/19 54/630/19
f 348/64/19 308/63/19 722/633/19
f 308/63/19 161/433/19 722/633/19
f 357/61/6 725/637/6 63/635/6
f 357/61/6 307/60/6 725/637/6
f 307/60/6 160/440/6 725/637/6
f 355/8/18 728/642/18 61/639/18
f 355/8/18 306/58/18 728/642/18
f 306/58/18 159/446/18 728/642/18
f 362/57/6 731/647/6 68/644/6
f 362/57/6 305/56/6 731/647/6
f 305/56/6 158/453/6 731/647/6
f 353/54/17 734/652/17 59/649/17
f 353/54/17 304/53/17 734/652/17
f 304/53/17 157/458/17 734/652/17
f 351/51/3 737/656/3 57/654/3
f 351/51/3 303/50/3 737/656/3
f 303/50/3 156/465/3 737/656/3
f 246/48/16 740/661/16 99/658/16
f 246/48/16 394/47/16 740/661/16
f 394/47/16 100/662/16 740/661/16
f 243/45/15 743/668/15 96/665/15
f 243/45/15 391/44/15 743/668/15
f 391/44/15 97/605/15 743/668/15
f 240/42/14 746/671/14 93/577/14
f 240/42/14 388/41/14 746/671/14
f 388/41/14 94/672/14 746/671/14
f 237/39/13 749/678/13 90/675/13
f 237/39/13 385/38/13 749/678/13
f 385/38/13 91/679/13 749/678/13
f 234/36/34 752/683/34 87/573/34
f 234/36/34 382/35/34 752/683/34
f 382/35/12 88/684/12 752/683/12
f 231/33/11 755/690/11 84/687/11
f 231/33/11 379/32/11 755/690/11
f 379/32/11 85/691/11 755/690/11
f 228/30/10 758/695/10 81/560/10
f 228/30/10 376/29/10 758/695/10
f 376/29/10 82/545/10 758/695/10
f 225/27/9 761/698/9 78/601/9
f 225/27/9 373/26/9 761/698/9
f 373/26/9 79/699/9 761/698/9
f 222/24/8 764/705/8 75/702/8
f 222/24/8 370/23/8 764/705/8
f 370/23/8 76/564/8 764/705/8
f 219/21/7 767/710/7 72/707/7
f 219/21/7 367/20/7 767/710/7
f 367/20/7 73/581/7 767/710/7
f 216/18/6 770/715/6 69/712/6
f 216/18/6 364/17/6 770/715/6
f 364/17/6 70/716/6 770/715/6
f 213/15/5 773/722/5 66/719/5
f 213/15/5 361/14/5 773/722/5
f 361/14/5 67/723/5 773/722/5
f 210/12/4 776/727/4 63/635/4
f 210/12/4 358/11/4 776/727/4
f 358/11/4 64/610/4 776/727/4
f 207/9/3 779/732/3 60/729/3
f 207/9/3 355/8/3 779/732/3
f 355/8/3 61/639/3 779/732/3
f 204/6/2 782/735/2 57/654/2
f 204/6/2 352/5/2 782/735/2
f 352/5/2 58/736/2 782/735/2
f 201/3/1 785/742/1 54/739/1
f 201/3/1 349/2/1 785/742/1
f 349/2/1 55/586/1 785/742/1
